<?xml version="1.0" standalone="no"?>
<!DOCTYPE svg PUBLIC "-//W3C//DTD SVG 1.1//EN" "http://www.w3.org/Graphics/SVG/1.1/DTD/svg11.dtd" >
<svg xmlns="http://www.w3.org/2000/svg" xmlns:xlink="http://www.w3.org/1999/xlink" version="1.1">
<metadata>
Created by FontForge 20201107 at Wed Oct 27 17:11:08 2021
 By 
Copyright 2021 The Urbanist Project Authors (https://github.com/coreyhu/Urbanist)
</metadata>
<defs>
<font id="Urbanist-ExtraBold" horiz-adv-x="1120" >
  <font-face 
    font-family="Urbanist ExtraBold"
    font-weight="800"
    font-stretch="normal"
    units-per-em="2000"
    panose-1="2 11 10 4 4 2 0 0 2 3"
    ascent="1600"
    descent="-400"
    x-height="1000"
    cap-height="1400"
    bbox="-291 -500 2940 2102"
    underline-thickness="50"
    underline-position="-125"
    unicode-range="U+000D-FFFD"
  />
<missing-glyph horiz-adv-x="1000" 
d="M100 -500v2400h800v-2400h-800zM200 -400h600v2200h-600v-2200z" />
    <glyph glyph-name=".notdef" horiz-adv-x="1000" 
d="M100 -500v2400h800v-2400h-800zM200 -400h600v2200h-600v-2200z" />
    <glyph glyph-name=".null" horiz-adv-x="1200" 
 />
    <glyph glyph-name=".null" horiz-adv-x="1200" 
 />
    <glyph glyph-name="nonmarkingreturn" unicode="&#xd;" horiz-adv-x="1200" 
 />
    <glyph glyph-name="nonmarkingreturn" unicode="&#xfeff;" horiz-adv-x="1200" 
 />
    <glyph glyph-name="space" unicode=" " horiz-adv-x="480" 
 />
    <glyph glyph-name="exclam" unicode="!" horiz-adv-x="477" 
d="M103 420v980h231v-980h-231zM220 -26q-59 0 -99.5 41t-40.5 100q0 58 40.5 98t99.5 40q57 0 97 -40t40 -98q0 -59 -40 -100t-97 -41z" />
    <glyph glyph-name="quotedbl" unicode="&#x22;" horiz-adv-x="610" 
d="M62 878v522h186v-522h-186zM362 878v522h186v-522h-186z" />
    <glyph glyph-name="numbersign" unicode="#" horiz-adv-x="1592" 
d="M1440 862h-156l-88 -324h158l-72 -266h-156l-73 -272h-276l73 272h-338l-71 -272h-276l71 272h-156l72 266h156l88 324h-158l72 267h156l73 271h276l-73 -271h338l71 271h276l-71 -271h156zM920 538l88 324h-336l-88 -324h336z" />
    <glyph glyph-name="dollar" unicode="$" horiz-adv-x="1217" 
d="M609 1147q-64 1 -121.5 -19t-94 -55t-36.5 -80q0 -59 34.5 -89t91.5 -43t126 -23q142 -21 262 -74.5t192.5 -142t72.5 -215.5q0 -115 -58.5 -204.5t-157 -146.5t-218.5 -74v-205h-186v205q-100 13 -188 53t-152.5 103.5t-95.5 146.5l259 96q12 -34 50 -63.5t95 -48
t125 -18.5q65 0 122.5 19.5t93 54.5t35.5 82t-37 78t-95 49.5t-119 28.5q-151 22 -270.5 71.5t-188.5 137t-69 222.5q0 116 58.5 206t157 147t219.5 74v204h186v-204q98 -13 186 -53.5t153.5 -104.5t95.5 -149l-259 -94q-12 34 -50 63t-95 47t-124 18z" />
    <glyph glyph-name="percent" unicode="%" horiz-adv-x="1578" 
d="M226 0l808 1400h318l-808 -1400h-318zM400 774q-88 0 -160.5 42t-116 114.5t-43.5 161.5q0 92 44.5 163.5t117 113t158.5 41.5q87 0 159.5 -42t115.5 -114.5t43 -161.5q0 -91 -44.5 -162.5t-117 -113.5t-156.5 -42zM400 960q54 0 93 38.5t39 93.5q0 56 -39 94t-93 38
q-55 0 -94.5 -38t-39.5 -94q0 -55 39.5 -93.5t94.5 -38.5zM1178 -12q-89 0 -161.5 44.5t-114.5 117.5t-42 156q0 91 44.5 163.5t116.5 114.5t157 42q92 0 164 -45t114 -117.5t42 -157.5q0 -87 -43 -159.5t-116 -115.5t-161 -43zM1178 174q56 0 95 39t39 93q0 56 -39 95
t-95 39q-54 0 -93 -39t-39 -95q0 -54 39 -93t93 -39z" />
    <glyph glyph-name="ampersand" unicode="&#x26;" horiz-adv-x="1435" 
d="M518 -26q-124 0 -223 61t-157 160.5t-58 216.5q0 64 12 112.5t39.5 93t74 96.5t117.5 123q-37 38 -63 69.5t-42.5 63t-23.5 65.5t-7 76q0 96 46 171t121.5 118.5t163.5 43.5q92 0 167.5 -44.5t120.5 -119.5t45 -169q0 -43 -7.5 -77.5t-24.5 -65.5t-43 -62.5t-63 -68.5
l230 -230l262 263v-390l-67 -68l217 -217l-195 -195l-217 217q-72 -72 -125 -119t-97.5 -74.5t-92 -38.5t-110.5 -11zM518 250q31 0 53.5 8t46 26.5t54 50t76.5 77.5l-230 230l-79.5 -79.5t-49.5 -53.5t-25.5 -44.5t-7.5 -52.5q0 -48 23.5 -84.5t60.5 -57t78 -20.5zM518 990
q38 37 58 55.5t26.5 33t6.5 37.5q0 45 -29.5 68.5t-61.5 23.5q-35 0 -63 -26t-28 -66q0 -23 9 -39t28.5 -35t53.5 -52z" />
    <glyph glyph-name="quotesingle" unicode="'" horiz-adv-x="310" 
d="M62 878v522h186v-522h-186z" />
    <glyph glyph-name="parenleft" unicode="(" horiz-adv-x="793" 
d="M417 -112q-104 103 -169.5 218t-96.5 248t-31 290q0 70 15 160.5t41.5 186t63.5 180.5t82 146.5t95 82.5h276q-39 -24 -80 -84.5t-79.5 -144t-69.5 -177.5t-49.5 -185.5t-18.5 -164.5q1 -156 46.5 -299.5t114 -261t136.5 -195.5h-276z" />
    <glyph glyph-name="parenright" unicode=")" horiz-adv-x="793" 
d="M100 -112q69 78 137 195.5t114 261t46 299.5q0 73 -18 164.5t-49 185.5t-69.5 177.5t-80 144t-80.5 84.5h276q50 -21 95 -82.5t82 -146.5t64 -180.5t41.5 -186t14.5 -160.5q0 -157 -30.5 -290t-96.5 -248t-170 -218h-276z" />
    <glyph glyph-name="asterisk" unicode="*" horiz-adv-x="730" 
d="M256 830l-150 110l93 127l-149 48l56 178l151 -49v156h186v-156l149 49l58 -178l-151 -48l93 -127l-151 -110l-91 128z" />
    <glyph glyph-name="plus" unicode="+" horiz-adv-x="1160" 
d="M442 100v362h-362v276h362v362h276v-362h362v-276h-362v-362h-276z" />
    <glyph glyph-name="comma" unicode="," horiz-adv-x="538" 
d="M80 -112l62 338h276l-154 -338h-184z" />
    <glyph glyph-name="hyphen" unicode="-" horiz-adv-x="880" 
d="M120 738h640v-276h-640v276z" />
    <glyph glyph-name="period" unicode="." horiz-adv-x="479" 
d="M219 -26q-58 0 -98.5 40.5t-40.5 99.5q0 57 40.5 98t98.5 41t99 -41t41 -98q0 -59 -41 -99.5t-99 -40.5z" />
    <glyph glyph-name="slash" unicode="/" horiz-adv-x="842" 
d="M762 1400l-406 -1512h-276l406 1512h276z" />
    <glyph glyph-name="zero" unicode="0" horiz-adv-x="1214" 
d="M608 -26q-121 0 -221 56.5t-173.5 156.5t-113.5 231.5t-40 281.5t40 281.5t113.5 231.5t173.5 156.5t221 56.5t221 -56.5t172.5 -156.5t112.5 -231.5t40 -281.5t-40 -281.5t-112.5 -231.5t-172.5 -156.5t-221 -56.5zM608 250q99 0 163 64t94.5 167t30.5 219
q0 123 -32.5 225t-96.5 163.5t-159 61.5q-75 0 -129.5 -37t-90 -101t-53 -144.5t-17.5 -167.5q0 -116 31.5 -218.5t96 -167t162.5 -64.5z" />
    <glyph glyph-name="one" unicode="1" horiz-adv-x="700" 
d="M264 0v1124h-184l74 276h386v-1400h-276z" />
    <glyph glyph-name="two" unicode="2" horiz-adv-x="1160" 
d="M80 0v246q60 42 146 108.5t179 147t173.5 163.5t131 157t50.5 127q0 55 -27 101t-72 73t-100 27t-100.5 -27t-73 -73t-27.5 -101h-276q0 135 65.5 243t174 171t237.5 63q131 0 239 -64t172 -172.5t64 -240.5q0 -68 -20.5 -132t-59.5 -127.5t-94.5 -129t-125 -136
t-149.5 -148.5h453v-276h-960z" />
    <glyph glyph-name="three" unicode="3" horiz-adv-x="1035" 
d="M517 -26q-126 0 -230 61t-165.5 164.5t-61.5 229.5h276q0 -48 24 -89t65 -65.5t92 -24.5q49 0 90.5 24.5t66.5 65.5t25 89q0 66 -36 110t-101 66t-152 22v211q116 0 183 41.5t67 123.5q0 41 -20 74.5t-54 54t-75 20.5t-81 -20.5t-65.5 -54t-25.5 -74.5h-276q0 88 36 165
t98.5 135.5t142.5 91.5t168 33q115 0 212.5 -57t156.5 -153.5t59 -214.5q0 -75 -33.5 -151t-97.5 -109q56 -21 93.5 -71.5t57 -115t19.5 -127.5q0 -125 -62 -228.5t-166 -165t-230 -61.5z" />
    <glyph glyph-name="four" unicode="4" horiz-adv-x="1179" 
d="M674 0v322h-594v277l531 801h339v-802h109v-276h-109v-322h-276zM399 599l275 -1l-1 429z" />
    <glyph glyph-name="five" unicode="5" horiz-adv-x="1162" 
d="M557 -26q-137 0 -247.5 66.5t-175 177t-64.5 241.5h276q0 -58 28.5 -105.5t76.5 -75.5t106 -28q57 0 104.5 28t76 75.5t28.5 105.5t-23.5 107t-80.5 78.5t-157 29.5h-366l153 726h698v-276h-474l-36 -174l78 -2q143 -5 251.5 -71t170.5 -175t62 -243q0 -99 -37.5 -187
t-104 -155t-154.5 -105t-189 -38z" />
    <glyph glyph-name="six" unicode="6" horiz-adv-x="1105" 
d="M546 -26q-136 0 -248.5 67t-180 180t-67.5 251q0 66 16.5 128.5t50.5 121.5l391 678h320l-254 -439q77 -3 148 -28.5t130 -70.5t102.5 -105.5t67 -132.5t23.5 -152q0 -103 -39 -193t-107.5 -158.5t-159 -107.5t-193.5 -39zM546 250q64 0 114.5 31.5t79.5 82t29 106.5
q0 61 -29 111.5t-79.5 81t-112.5 30.5q-66 0 -116 -32t-78 -82.5t-28 -108.5q0 -63 31.5 -112.5t81.5 -78.5t107 -29z" />
    <glyph glyph-name="seven" unicode="7" horiz-adv-x="1109" 
d="M101 0l648 1124h-709v276h1029v-276l-650 -1124h-318z" />
    <glyph glyph-name="eight" unicode="8" horiz-adv-x="1101" 
d="M550 -26q-131 0 -237.5 60t-169.5 161t-63 225q0 91 38 173t104 143q-51 55 -82 124.5t-31 147.5q0 116 60 211t159.5 151t221.5 56q121 0 221 -56t160 -151t60 -211q0 -78 -30.5 -147.5t-83.5 -124.5q69 -61 106.5 -143t37.5 -173q0 -123 -63.5 -224.5t-170 -161.5
t-237.5 -60zM550 250q50 0 91 23t65 61.5t24 85.5q0 48 -24 86.5t-65 61.5t-91 23t-91 -23t-65.5 -61.5t-24.5 -86.5q0 -47 24.5 -85.5t65.5 -61.5t91 -23zM550 867q41 0 75 19t54.5 51.5t20.5 70.5q0 39 -20.5 71t-54.5 51.5t-75 19.5q-42 0 -76 -19.5t-54 -51.5t-20 -71
q0 -38 20 -70.5t54 -51.5t76 -19z" />
    <glyph glyph-name="nine" unicode="9" horiz-adv-x="1110" 
d="M270 0l258 444q-97 3 -182 42t-149 105.5t-100.5 153t-36.5 186.5q0 102 38.5 191.5t107 158t158.5 107t193 38.5q135 0 246.5 -67t179 -179.5t67.5 -248.5q0 -66 -16 -127.5t-51 -121.5l-393 -682h-320zM555 712q65 0 114.5 31.5t77 81.5t27.5 107q0 63 -30.5 112.5
t-80.5 77.5t-106 28q-64 0 -114 -31t-78.5 -81t-28.5 -106q0 -60 29 -110t78.5 -80t111.5 -30z" />
    <glyph glyph-name="colon" unicode=":" horiz-adv-x="479" 
d="M219 721q-58 0 -98.5 40.5t-40.5 99.5q0 57 40.5 98t98.5 41t99 -41t41 -98q0 -59 -41 -99.5t-99 -40.5zM219 -26q-58 0 -98.5 40.5t-40.5 99.5q0 57 40.5 98t98.5 41t99 -41t41 -98q0 -59 -41 -99.5t-99 -40.5z" />
    <glyph glyph-name="semicolon" unicode=";" horiz-adv-x="539" 
d="M80 -112l62 338h276l-154 -338h-184zM280 721q-59 0 -99.5 40.5t-40.5 98.5t40.5 99t99.5 41q57 0 98 -41t41 -99t-41 -98.5t-98 -40.5z" />
    <glyph glyph-name="less" unicode="&#x3c;" horiz-adv-x="1160" 
d="M1080 84l-1000 284v462l1000 286v-288l-802 -228l802 -229v-287z" />
    <glyph glyph-name="equal" unicode="=" horiz-adv-x="1160" 
d="M80 243v276h1000v-276h-1000zM80 681v276h1000v-276h-1000z" />
    <glyph glyph-name="greater" unicode="&#x3e;" horiz-adv-x="1160" 
d="M80 95v287l802 218l-802 218v287l1000 -275v-462z" />
    <glyph glyph-name="question" unicode="?" horiz-adv-x="1140" 
d="M426 412q0 118 59 216.5t163 155.5q45 24 70.5 70.5t25.5 103.5q0 53 -26 97t-70.5 69.5t-97.5 25.5t-97.5 -25.5t-70.5 -69.5t-26 -97h-276q0 129 63.5 235t170 169.5t236.5 63.5t236.5 -63.5t170 -169.5t63.5 -235q0 -133 -64.5 -245t-177.5 -172q-36 -19 -56 -53
t-20 -76h-276zM577 -26q-59 0 -99.5 41t-40.5 100q0 58 40.5 98t99.5 40q57 0 97.5 -40t40.5 -98q0 -59 -40.5 -100t-97.5 -41z" />
    <glyph glyph-name="at" unicode="@" horiz-adv-x="1866" 
d="M933 -271q-177 0 -331.5 61t-272 172t-183.5 261t-66 327t66 332t183.5 272.5t272.5 183.5t331 66q178 0 332.5 -66.5t271.5 -184.5t183 -272.5t66 -330.5q0 -100 -24.5 -194.5t-72 -170t-116.5 -120.5t-159 -45q-62 0 -128 27t-114.5 72t-60.5 99q-39 -31 -89 -48.5
t-109 -17.5q-109 0 -199.5 54t-144 144.5t-53.5 199.5q0 110 53.5 200.5t144 144t199.5 53.5q53 0 115 -14t97 -39v32l204 -45v-513q0 -34 17.5 -53.5t49.5 -19.5q41 0 66.5 45.5t36.5 105.5t11 103q0 121 -45.5 226t-125 184t-183.5 123.5t-223 44.5q-118 0 -223 -45
t-184.5 -124t-124.5 -183.5t-45 -225.5q0 -119 44.5 -219.5t123.5 -173t184 -112.5t225 -40v-276zM937 355q53 0 96 27.5t68.5 72t25.5 97.5t-25 97t-68 70t-97 26t-98 -26t-70.5 -70t-26.5 -99q0 -54 26.5 -98t70.5 -70.5t98 -26.5z" />
    <glyph glyph-name="A" unicode="A" horiz-adv-x="1490" 
d="M588 1400h314l508 -1400h-293l-84 232h-576l-84 -232h-293zM558 508h374l-188 513z" />
    <glyph glyph-name="B" unicode="B" horiz-adv-x="1192" 
d="M120 0v1400h521q113 0 205 -46.5t145.5 -132.5t53.5 -202q0 -47 -12.5 -97t-42 -92t-80.5 -64q66 -16 106 -59.5t61 -100t28 -115.5t7 -107q0 -108 -56 -195t-150.5 -138t-208.5 -51h-577zM396 235h272q55 0 100 26.5t72 73t27 105.5q0 50 -27 95t-72 73.5t-100 28.5
h-272v-402zM396 867h213q66 0 113 43t47 111q0 70 -47 106.5t-113 36.5h-213v-297z" />
    <glyph glyph-name="C" unicode="C" horiz-adv-x="1418" 
d="M768 -26q-142 0 -267 56.5t-219.5 156.5t-148 231.5t-53.5 281.5q0 151 53.5 282.5t148 231t219.5 156t267 56.5q170 0 313 -78.5t237 -209.5l-246 -133q-56 66 -135 105.5t-169 39.5q-85 0 -160 -35t-131.5 -97t-88.5 -143t-32 -175q0 -93 32 -174.5t88.5 -143
t131.5 -97t160 -35.5q91 0 169.5 40t134.5 106l246 -134q-94 -130 -237 -209t-313 -79z" />
    <glyph glyph-name="D" unicode="D" horiz-adv-x="1344" 
d="M120 0v1400h464q145 0 271.5 -54.5t223 -151t151 -223t54.5 -271.5t-54.5 -271.5t-151 -223t-223 -151t-271.5 -54.5h-464zM396 276h188q86 0 162.5 33t135.5 91t92.5 135t33.5 165t-33.5 164.5t-92 135t-135 91.5t-163.5 33h-188v-848z" />
    <glyph glyph-name="E" unicode="E" horiz-adv-x="1106" 
d="M120 0v1400h886v-276h-610v-236h476v-276h-476v-336h610v-276h-886z" />
    <glyph glyph-name="F" unicode="F" horiz-adv-x="970" 
d="M120 0v1400h830v-276h-554v-236h458v-276h-458v-612h-276z" />
    <glyph glyph-name="G" unicode="G" horiz-adv-x="1537" 
d="M768 -26q-146 0 -271.5 57t-219 157.5t-145.5 232.5t-52 281q0 160 57 292t155 228.5t222.5 149t259.5 52.5q148 0 290 -69t254 -219l-246 -132q-64 74 -142.5 110t-159.5 36t-155.5 -33t-132.5 -94t-92 -144t-34 -183q0 -93 32.5 -174t89.5 -142t132.5 -95.5
t161.5 -34.5q53 0 104.5 15.5t98.5 45.5t86.5 75t69.5 104h-217v240h542q6 -155 -45 -292t-146 -241.5t-222 -163.5t-275 -59z" />
    <glyph glyph-name="H" unicode="H" horiz-adv-x="1324" 
d="M928 1400h276v-1400h-276v612h-532v-612h-276v1400h276v-512h532v512z" />
    <glyph glyph-name="I" unicode="I" horiz-adv-x="576" 
d="M150 0v1400h276v-1400h-276z" />
    <glyph glyph-name="J" unicode="J" horiz-adv-x="914" 
d="M334 -26q-80 0 -156.5 27t-137.5 80l177 212q19 -15 48 -29t69 -14q51 0 92.5 25.5t66.5 68t25 92.5v964h276v-964q0 -127 -62 -231.5t-166.5 -167.5t-231.5 -63z" />
    <glyph glyph-name="K" unicode="K" horiz-adv-x="1205" 
d="M1181 0h-360l-373 524l-52 -62v-462h-276v1400h276v-509l426 509h360l-554 -660z" />
    <glyph glyph-name="L" unicode="L" horiz-adv-x="1060" 
d="M120 0v1400h276v-1124h564v-276h-840z" />
    <glyph glyph-name="M" unicode="M" horiz-adv-x="1901" 
d="M120 0l272 1400h233l325 -857l326 857h233l272 -1400h-282l-155 803l-299 -789h-190l-298 789l-156 -803h-281z" />
    <glyph glyph-name="N" unicode="N" horiz-adv-x="1360" 
d="M120 0v1400h298l546 -901v901h276v-1400h-298l-546 901v-901h-276z" />
    <glyph glyph-name="O" unicode="O" horiz-adv-x="1540" 
d="M770 -26q-142 0 -267 56.5t-220 156.5t-149 231.5t-54 281.5t54 281.5t149 231.5t220 156.5t267 56.5q143 0 268 -56.5t220 -156.5t148.5 -231.5t53.5 -281.5t-53.5 -281.5t-148.5 -231.5t-220 -156.5t-268 -56.5zM770 250q85 0 160 35.5t132 97.5t89.5 143t32.5 174
t-32.5 174.5t-89.5 143t-132 97t-160 35.5t-160 -35.5t-132 -97.5t-89.5 -143t-32.5 -174t32.5 -174.5t89.5 -143t132 -97t160 -35.5z" />
    <glyph glyph-name="P" unicode="P" horiz-adv-x="1126" 
d="M120 0v1400h516q115 0 207.5 -58t147.5 -154.5t55 -212.5q0 -118 -56 -214.5t-149.5 -153.5t-204.5 -57h-240v-550h-276zM396 826h209q46 0 83 22.5t59.5 61t22.5 85.5q0 46 -22.5 84.5t-59.5 61.5t-83 23h-209v-338z" />
    <glyph glyph-name="Q" unicode="Q" horiz-adv-x="1579" 
d="M1304 -48l-153 151q-80 -58 -177 -90t-204 -32q-142 0 -267 56.5t-220 156t-149 231t-54 282.5q0 150 54 281.5t149 231.5t220 156.5t267 56.5q143 0 268 -56.5t220 -156.5t148.5 -231.5t53.5 -281.5q0 -112 -31.5 -214t-85.5 -190l156 -156zM770 257q49 0 94.5 12.5
t86.5 35.5l-103 103l195 195l94 -94q23 45 35 95t12 103q0 93 -32.5 174.5t-89.5 143.5t-132 97t-160 35t-160 -35.5t-132 -97.5t-89.5 -143t-32.5 -174t32.5 -174.5t89.5 -143.5t132 -97t160 -35z" />
    <glyph glyph-name="R" unicode="R" horiz-adv-x="1243" 
d="M120 0v1400h556q114 0 206.5 -57.5t147 -154t54.5 -213.5q0 -92 -32 -170.5t-90 -137.5t-135 -92l333 -575h-318l-319 550h-127v-550h-276zM396 826h247q45 0 82.5 22.5t60 61t22.5 85.5q0 46 -22.5 84.5t-60 61.5t-82.5 23h-247v-338z" />
    <glyph glyph-name="S" unicode="S" horiz-adv-x="1257" 
d="M629 -26q-118 0 -225.5 37t-188 107t-115.5 166l259 96q12 -34 50 -63.5t95 -48t125 -18.5q65 0 122.5 19.5t93 54.5t35.5 82t-37 78t-95 49.5t-119 28.5q-151 22 -270.5 71.5t-188.5 137t-69 222.5q0 130 73.5 227t194 151t260.5 54q116 0 224 -37t188.5 -107
t115.5 -168l-259 -94q-12 34 -50 63t-95 47t-124 18q-64 1 -121.5 -19t-94 -55t-36.5 -80q0 -59 34.5 -89t91.5 -43t126 -23q142 -21 262 -74.5t192.5 -142t72.5 -215.5q0 -130 -73 -227t-193 -151t-261 -54z" />
    <glyph glyph-name="T" unicode="T" horiz-adv-x="1260" 
d="M1180 1400v-276h-412v-1124h-276v1124h-412v276h1100z" />
    <glyph glyph-name="U" unicode="U" horiz-adv-x="1370" 
d="M686 -26q-168 0 -295.5 82t-199 220.5t-71.5 307.5v816h276v-816q0 -91 34 -167t99 -121.5t157 -45.5q93 0 157.5 45t97.5 121t33 168v816h276v-816q0 -127 -40.5 -237.5t-115.5 -194.5t-178.5 -131t-229.5 -47z" />
    <glyph glyph-name="V" unicode="V" horiz-adv-x="1555" 
d="M600 0l-508 1400h293l393 -1081l393 1081h292l-508 -1400h-355z" />
    <glyph glyph-name="W" unicode="W" horiz-adv-x="1919" 
d="M450 0l-358 1400h285l228 -895l228 895h253l228 -895l228 895h285l-356 -1400h-312l-199 778l-198 -778h-312z" />
    <glyph glyph-name="X" unicode="X" horiz-adv-x="1486" 
d="M60 0l512 704l-506 696h340l337 -462l337 462h340l-506 -696l512 -704h-342l-341 468l-341 -468h-342z" />
    <glyph glyph-name="Y" unicode="Y" horiz-adv-x="1364" 
d="M978 1400h326l-484 -769v-631h-276v631l-484 769h326l296 -469z" />
    <glyph glyph-name="Z" unicode="Z" horiz-adv-x="1292" 
d="M80 0v276l759 848h-759v276h1132v-276l-759 -848h759v-276h-1132z" />
    <glyph glyph-name="bracketleft" unicode="[" horiz-adv-x="672" 
d="M572 164v-276h-452v1512h452v-276h-176v-960h176z" />
    <glyph glyph-name="backslash" unicode="\" horiz-adv-x="840" 
d="M484 -112l-404 1512h276l404 -1512h-276z" />
    <glyph glyph-name="bracketright" unicode="]" horiz-adv-x="674" 
d="M100 -112v276h178v960h-178v276h454v-1512h-454z" />
    <glyph glyph-name="asciicircum" unicode="^" horiz-adv-x="1012" 
d="M80 1000l236 650h380l236 -650h-294l-132 363l-132 -363h-294z" />
    <glyph glyph-name="underscore" unicode="_" horiz-adv-x="1240" 
d="M120 164h1000v-276h-1000v276z" />
    <glyph glyph-name="grave" unicode="`" horiz-adv-x="1116" 
d="M308 1398h276l80 -288h-184z" />
    <glyph glyph-name="a" unicode="a" horiz-adv-x="1210" 
d="M854 1000h276v-1000h-277l-13 104q-39 -58 -100 -94t-143 -36q-112 0 -209 42t-171 116t-115.5 171.5t-41.5 209.5q0 107 39 200t110 164t163.5 111t199.5 40q92 0 165.5 -39t128.5 -99zM590 239q68 0 123 35t87 94.5t32 131.5q0 73 -32 132t-87 94t-123 35
q-69 0 -125 -35t-89 -94.5t-33 -131.5t33.5 -131.5t89.5 -94.5t124 -35z" />
    <glyph glyph-name="b" unicode="b" horiz-adv-x="1251" 
d="M664 1028q146 0 265.5 -71t190.5 -190.5t71 -264.5q0 -109 -41 -205t-113.5 -168.5t-168 -113.5t-204.5 -41q-86 0 -153 38t-115 96v-108h-276v1500h276v-606q48 59 115 96.5t153 37.5zM660 241q69 0 125.5 35t89.5 94.5t33 131.5t-33.5 131t-90 94.5t-124.5 35.5
t-122.5 -35.5t-86 -95t-31.5 -130.5q0 -73 31.5 -132t86 -94t122.5 -35z" />
    <glyph glyph-name="c" unicode="c" horiz-adv-x="1020" 
d="M712 316l248 -134q-69 -94 -173 -151t-227 -57q-138 0 -251.5 71t-181 190.5t-67.5 264.5q0 110 39 205.5t107.5 168t159.5 113.5t194 41q123 0 227 -57t173 -153l-248 -134q-31 33 -70.5 50.5t-81.5 17.5q-64 0 -114.5 -35t-80 -92.5t-29.5 -124.5q0 -66 30 -123
t80.5 -92t113.5 -35q43 0 82 18t70 48z" />
    <glyph glyph-name="d" unicode="d" horiz-adv-x="1251" 
d="M855 1500h276v-1500h-276v106q-46 -58 -114 -95t-155 -37q-109 0 -204 41t-167.5 113.5t-113.5 167.5t-41 204t41 204t113.5 167.5t167.5 113.5t204 41q87 0 155 -36.5t114 -95.5v606zM590 239q68 0 123 35t87 94.5t32 131.5q0 73 -32 132t-87 94t-123 35q-69 0 -125 -35
t-89 -94.5t-33 -131.5t33.5 -131.5t89.5 -94.5t124 -35z" />
    <glyph glyph-name="e" unicode="e" 
d="M560 -26q-138 0 -251.5 71t-181 191t-67.5 265q0 109 39 204.5t107.5 168t159.5 113.5t194 41q119 0 217.5 -51t167 -139t98 -199t9.5 -231h-694q13 -44 40.5 -79.5t68 -56.5t93.5 -22q52 -1 96 24t75 67l282 -65q-61 -133 -182 -217.5t-271 -84.5zM348 612h425
q-13 50 -44 90t-74.5 63t-94.5 23q-50 0 -93.5 -23t-74 -62.5t-44.5 -90.5z" />
    <glyph glyph-name="f" unicode="f" horiz-adv-x="748" 
d="M426 1194v-194h265v-276h-265v-724h-276v724h-100v276h100v194q0 91 45 165.5t120.5 119.5t166.5 45q67 0 132 -27.5t116 -85.5l-198 -195q-7 16 -21 24t-29 8q-23 0 -39.5 -15.5t-16.5 -38.5z" />
    <glyph glyph-name="g" unicode="g" horiz-adv-x="1242" 
d="M846 1000h276v-1014q0 -111 -45 -200.5t-122.5 -153.5t-178 -98t-212.5 -34q-106 0 -203 41.5t-172 114.5t-117 168l252 115q21 -50 57.5 -86t84 -55.5t98.5 -19.5q55 0 105.5 13t90.5 39t63 65t23 91v116q-46 -57 -111.5 -92.5t-151.5 -35.5q-108 0 -202.5 41
t-166.5 113.5t-113 167.5t-41 204t41 204t113 167.5t166.5 113.5t202.5 41q86 0 151.5 -35.5t111.5 -92.5v102zM587 239q68 0 123 35.5t86.5 94.5t31.5 131t-31.5 131.5t-86.5 94.5t-123 35q-67 0 -122.5 -35t-88.5 -94.5t-33 -131.5t33 -131.5t88.5 -94.5t122.5 -35z" />
    <glyph glyph-name="h" unicode="h" horiz-adv-x="1129" 
d="M1049 636v-636h-276v560q0 53 -25.5 95.5t-68 67.5t-94.5 25t-95 -25t-68 -67.5t-25 -95.5v-560h-276l-1 1500h276l1 -574q50 48 117.5 75t142.5 27q109 0 197.5 -53t141.5 -141.5t53 -197.5z" />
    <glyph glyph-name="i" unicode="i" horiz-adv-x="516" 
d="M120 1000h276v-1000h-276v1000zM260 1115q-60 0 -101 40t-41 99t41 99t100 40t99.5 -40t40.5 -99t-39.5 -99t-99.5 -40z" />
    <glyph glyph-name="j" unicode="j" horiz-adv-x="501" 
d="M-80 -500v276q51 0 93 24.5t67 66.5t25 93v1040h276v-1040q0 -127 -61.5 -231t-166 -166.5t-233.5 -62.5zM245 1115q-60 0 -101 40t-41 99t41 99t100 40t99.5 -40t40.5 -99t-39.5 -99t-99.5 -40z" />
    <glyph glyph-name="k" unicode="k" horiz-adv-x="1098" 
d="M1048 0h-318l-212 365l-122 -145v-220h-276v1500h276v-851l294 351h360l-343 -411z" />
    <glyph glyph-name="l" unicode="l" horiz-adv-x="516" 
d="M120 0v1500h276v-1500h-276z" />
    <glyph glyph-name="m" unicode="m" horiz-adv-x="1777" 
d="M120 0v1000h276v-74q51 48 118 75t142 27q102 0 187.5 -47t137.5 -125q53 78 138 125t186 47q109 0 197.5 -53t141.5 -141.5t53 -197.5v-636h-276v560q0 52 -25.5 94.5t-67.5 68t-94 25.5t-94.5 -25t-68 -67.5t-25.5 -95.5v-560h-276v560q0 53 -25 95.5t-67.5 67.5
t-94.5 25q-51 0 -93.5 -25.5t-68 -68t-25.5 -94.5v-560h-276z" />
    <glyph glyph-name="n" unicode="n" horiz-adv-x="1129" 
d="M1049 636v-636h-276v560q0 53 -25.5 95.5t-68 67.5t-94.5 25t-95 -25t-68 -67.5t-25 -95.5v-560h-276l-1 1000h276l1 -74q50 48 117.5 75t142.5 27q109 0 197.5 -53t141.5 -141.5t53 -197.5z" />
    <glyph glyph-name="o" unicode="o" 
d="M560 -26q-138 0 -251.5 71t-181 190.5t-67.5 264.5q0 110 39 205.5t107.5 168t159.5 113.5t194 41q138 0 251.5 -71t181 -191t67.5 -266q0 -109 -39 -204t-107.5 -167.5t-159 -113.5t-194.5 -41zM560 250q64 0 115 34.5t80 91.5t29 124q0 69 -30.5 126.5t-81.5 91.5
t-112 34q-63 0 -114 -35t-80.5 -92t-29.5 -125q0 -71 30.5 -127.5t81.5 -89.5t112 -33z" />
    <glyph glyph-name="p" unicode="p" horiz-adv-x="1250" 
d="M396 -500h-276v1500h276v-108q48 59 114 96.5t154 37.5q109 0 204.5 -41t167.5 -113.5t113 -167.5t41 -204t-41 -205t-113 -168.5t-167.5 -113.5t-204.5 -41q-88 0 -154 38t-114 96v-606zM660 761q-68 0 -122.5 -35.5t-86 -94.5t-31.5 -131t31.5 -131.5t86 -94.5
t122.5 -35t124.5 35t90 94t33.5 132q0 71 -33 130.5t-89.5 95t-125.5 35.5z" />
    <glyph glyph-name="q" unicode="q" horiz-adv-x="1250" 
d="M586 -28q-145 0 -264.5 71t-190.5 191t-71 266q0 109 41 204t113.5 167.5t167.5 113.5t204 41q87 0 154 -37.5t114 -96.5v108h276v-1500h-276v606q-47 -58 -114 -96t-154 -38zM590 761q-69 0 -125 -35.5t-89 -95t-33 -130.5q0 -73 33 -132t89 -94t125 -35q68 0 122.5 35
t86 94.5t31.5 131.5t-31.5 131t-86 94.5t-122.5 35.5z" />
    <glyph glyph-name="r" unicode="r" horiz-adv-x="787" 
d="M121 0l-1 1000h276l1 -74q50 48 117.5 75t142.5 27q55 0 110 -16l-109 -279q-36 15 -73 15q-52 0 -95 -25t-68 -67.5t-25 -95.5v-560h-276z" />
    <glyph glyph-name="s" unicode="s" horiz-adv-x="872" 
d="M411 -18q-77 6 -148 32.5t-126.5 72t-86.5 109.5l232 100q11 -16 33 -34.5t53.5 -32.5t73.5 -14q31 0 60 7.5t47 25t18 46.5q0 32 -23 49t-55.5 25.5t-62.5 14.5q-92 16 -173.5 57.5t-132.5 107.5t-51 158q0 101 53 174.5t138 113.5t184 40q117 0 217 -49t161 -138
l-218 -129q-13 19 -33.5 36.5t-47 30t-56.5 14.5q-39 3 -71 -4.5t-50.5 -27.5t-18.5 -54q0 -33 29 -48.5t67 -23t67 -17.5q87 -28 163.5 -71.5t123.5 -106.5t44 -148q0 -99 -59 -173.5t-152.5 -113t-198.5 -29.5z" />
    <glyph glyph-name="t" unicode="t" horiz-adv-x="724" 
d="M664 724h-180v-724h-276v724h-138v276h138v314h276v-314h180v-276z" />
    <glyph glyph-name="u" unicode="u" horiz-adv-x="1089" 
d="M80 366v634h276v-558q0 -53 25.5 -95.5t68.5 -67.5t94 -25q52 0 95 25t68 67.5t25 95.5v558h276l1 -1000h-276l-1 76q-50 -48 -117.5 -75t-142.5 -27q-108 0 -197 53t-142 141.5t-53 197.5z" />
    <glyph glyph-name="v" unicode="v" horiz-adv-x="1205" 
d="M781 0h-357l-364 1000h294l248 -683l248 683h295z" />
    <glyph glyph-name="w" unicode="w" horiz-adv-x="1730" 
d="M666 0h-272l-334 1000h270l201 -599l199 599h270l199 -599l200 599h271l-335 -1000h-271l-199 600z" />
    <glyph glyph-name="x" unicode="x" horiz-adv-x="1232" 
d="M80 0l366 502l-362 498h340l191 -262l193 262h341l-363 -498l366 -502h-340l-197 268l-195 -268h-340z" />
    <glyph glyph-name="y" unicode="y" horiz-adv-x="1180" 
d="M806 1000h294l-548 -1500h-292l180 500l-360 1000h302l196 -623z" />
    <glyph glyph-name="z" unicode="z" horiz-adv-x="1014" 
d="M934 724l-455 -448h455v-276h-854v276l455 448h-455v276h854v-276z" />
    <glyph glyph-name="braceleft" unicode="{" horiz-adv-x="826" 
d="M608 -112q-97 0 -176.5 47t-126.5 126.5t-47 176.5v244q0 25 -21 42.5t-48.5 32.5t-48 35.5t-20.5 51.5q0 29 20.5 49.5t48 37.5t48.5 34t21 39v246q0 96 47 175.5t126.5 127t176.5 47.5h118v-276h-118q-21 0 -38 -10t-26.5 -26.5t-9.5 -37.5v-255q-2 -32 -21.5 -55.5
t-40 -46t-26.5 -49.5q6 -31 26.5 -52t40 -43.5t21.5 -55.5v-255q0 -21 9.5 -38t26.5 -26.5t38 -9.5h118v-276h-118z" />
    <glyph glyph-name="bar" unicode="|" horiz-adv-x="556" 
d="M140 1400h276v-1702h-276v1702z" />
    <glyph glyph-name="braceright" unicode="}" horiz-adv-x="826" 
d="M100 -112v276h118q21 0 38 9.5t26.5 26.5t9.5 38v255q2 33 21.5 55.5t40 43.5t26.5 52q-5 27 -26 49.5t-40.5 46t-21.5 55.5v255q0 21 -9.5 37.5t-26.5 26.5t-38 10h-118v276h118q97 0 176.5 -47.5t126.5 -127t47 -175.5v-246q0 -22 21 -39t48.5 -34t48 -37.5t20.5 -49.5
q0 -31 -20.5 -51.5t-48 -35.5t-48.5 -32.5t-21 -42.5v-244q0 -97 -47 -176.5t-126.5 -126.5t-176.5 -47h-118z" />
    <glyph glyph-name="asciitilde" unicode="~" horiz-adv-x="1330" 
d="M981 390q-66 0 -142 24.5t-152 56.5t-144.5 56.5t-120.5 24.5q-28 0 -43.5 -14.5t-21 -37t-4.5 -47.5l-270 6q-13 91 26.5 171t114.5 130t169 50q66 0 133.5 -25.5t134.5 -59t128.5 -59t114.5 -25.5q28 0 44.5 13.5t23 37t4.5 51.5l270 -6q14 -92 -14.5 -171
t-92.5 -127.5t-158 -48.5z" />
    <glyph glyph-name="uni00A0" unicode="&#xa0;" horiz-adv-x="480" 
 />
    <glyph glyph-name="exclamdown" unicode="&#xa1;" horiz-adv-x="473" 
d="M218 1026q58 0 98.5 -40.5t40.5 -100.5q0 -57 -40.5 -97.5t-98.5 -40.5q-57 0 -97.5 40.5t-40.5 97.5q0 60 40.5 100.5t97.5 40.5zM334 580v-980h-231v980h231z" />
    <glyph glyph-name="cent" unicode="&#xa2;" horiz-adv-x="1092" 
d="M489 0v207q-116 23 -208.5 93t-146.5 174.5t-54 227.5q0 122 54 226.5t146.5 174.5t208.5 92v205h186v-205q107 -20 194.5 -81.5t142.5 -151.5l-239 -138q-31 47 -82.5 75.5t-108.5 28.5q-62 0 -113 -30.5t-82 -82t-31 -113.5q0 -63 31 -115t82.5 -82.5t112.5 -30.5
q57 0 108.5 28.5t82.5 75.5l239 -138q-55 -90 -142.5 -151.5t-194.5 -81.5v-207h-186z" />
    <glyph glyph-name="sterling" unicode="&#xa3;" horiz-adv-x="1206" 
d="M104 0v276q49 0 101 12.5t93.5 35.5t58.5 56t-6 75q-13 30 -37.5 61.5t-55.5 65.5t-62 71t-57.5 77t-42.5 83.5t-16 90.5q0 107 40.5 201.5t113 167t167 113t201.5 40.5q108 0 203 -40.5t167.5 -112.5t113 -166.5t40.5 -202.5h-276q0 68 -33 124t-89.5 89t-125.5 33
q-67 0 -123.5 -33t-89.5 -89t-33 -124q0 -56 20.5 -100t52.5 -82t68.5 -74t69 -76.5t53 -89.5t20.5 -114q0 -19 -4.5 -37t-11 -33t-11.5 -22h490v-276h-999zM104 445v186h776v-186h-776z" />
    <glyph glyph-name="currency" unicode="&#xa4;" horiz-adv-x="1040" 
d="M212 260l-132 132l131 131q-32 54 -42.5 115.5t0.5 123t44 115.5l-133 133l132 130l131 -131q54 31 115.5 41.5t124 1t116.5 -40.5l131 129l130 -130l-129 -129q34 -55 45 -118t0.5 -126t-43.5 -118l127 -127l-130 -132l-127 127q-58 -32 -120 -43t-124 0t-118 45z
M523 525q48 1 87 24t62 62t23 88q0 51 -24 89.5t-63.5 60t-84.5 22.5q-51 1 -90 -23.5t-61.5 -64.5t-22.5 -84q0 -48 23.5 -88t63 -63.5t87.5 -22.5z" />
    <glyph glyph-name="yen" unicode="&#xa5;" horiz-adv-x="1368" 
d="M546 0v134h-226v186h226v80h-226v186h226v45l-484 769h326l296 -469l296 469h326l-484 -769v-45h226v-186h-226v-80h226v-186h-226v-134h-276z" />
    <glyph glyph-name="brokenbar" unicode="&#xa6;" horiz-adv-x="516" 
d="M120 448h276v-750h-276v750zM120 1400h276v-750h-276v750z" />
    <glyph glyph-name="section" unicode="&#xa7;" horiz-adv-x="1110" 
d="M542 -363q-117 0 -216.5 49t-161.5 138l218 129q13 -18 33.5 -36t47 -30.5t56.5 -14.5q40 -3 71.5 4.5t50 27.5t18.5 54q0 33 -28.5 50.5t-66.5 26t-68 12.5q-107 13 -192 80t-134.5 166t-49.5 207q0 70 20 135t56.5 119.5t85.5 93.5q-42 35 -65.5 81.5t-23.5 104.5
q0 102 53 175.5t138 113.5t184 40q117 0 217 -49t161 -138l-218 -129q-13 18 -33.5 36t-47 30.5t-56.5 14.5q-39 3 -71 -4.5t-50.5 -27.5t-18.5 -54q0 -32 26.5 -49t63.5 -24.5t68 -13.5q112 -21 198 -84t134.5 -158t48.5 -213q0 -71 -20.5 -135t-57 -118t-86.5 -94
q44 -35 67.5 -82t23.5 -105q0 -102 -52.5 -175.5t-138 -113.5t-184.5 -40zM568 287q48 0 89 31t66 79.5t25 101.5q0 64 -26 111.5t-74 75t-113 27.5q-44 0 -83.5 -32t-64.5 -81t-25 -100q0 -59 25.5 -107.5t72 -77t108.5 -28.5z" />
    <glyph glyph-name="dieresis" unicode="&#xa8;" horiz-adv-x="1502" 
d="M542 1067q-60 0 -101 39.5t-41 99.5q0 58 41 99t101 41q58 0 98.5 -41t40.5 -99q0 -60 -40.5 -99.5t-98.5 -39.5zM963 1067q-60 0 -101 39.5t-41 99.5q0 58 41 99t101 41q58 0 98.5 -41t40.5 -99q0 -60 -40.5 -99.5t-98.5 -39.5z" />
    <glyph glyph-name="copyright" unicode="&#xa9;" horiz-adv-x="1938" 
d="M968 -350q-184 0 -345 69t-283 191t-191 282.5t-69 345.5q0 184 69 345t191 283t283 191t345 69q185 0 346 -68.5t283.5 -190.5t191.5 -283t69 -345q0 -186 -69 -346.5t-191.5 -282.5t-283.5 -191t-346 -69zM968 -74q131 0 242.5 48.5t194.5 133.5t130 195.5t47 234.5
q0 126 -47.5 236.5t-131.5 195.5t-195.5 132.5t-239.5 47.5q-129 0 -240.5 -48.5t-195 -133.5t-130 -195t-46.5 -235q0 -130 48.5 -241.5t133.5 -194.5t196 -129.5t234 -46.5zM1121 354l248 -134q-69 -94 -173 -151t-227 -57q-138 0 -251.5 71t-181 190.5t-67.5 264.5
q0 110 39 205.5t107.5 168t159.5 113.5t194 41q123 0 227 -57t173 -153l-248 -134q-31 33 -70.5 50.5t-81.5 17.5q-63 0 -113.5 -35.5t-80.5 -92.5t-30 -123q0 -67 30 -124t80.5 -92t113.5 -35q43 0 82.5 18t69.5 48z" />
    <glyph glyph-name="ordfeminine" unicode="&#xaa;" horiz-adv-x="1210" 
d="M854 1000h276v-1000h-277l-13 104q-39 -58 -100 -94t-143 -36q-112 0 -209 42t-171 116t-115.5 171.5t-41.5 209.5q0 107 39 200t110 164t163.5 111t199.5 40q92 0 165.5 -39t128.5 -99zM590 239q68 0 123 35t87 94.5t32 131.5q0 73 -32 132t-87 94t-123 35
q-69 0 -125 -35t-89 -94.5t-33 -131.5t33.5 -131.5t89.5 -94.5t124 -35z" />
    <glyph glyph-name="guillemotleft" unicode="&#xab;" horiz-adv-x="1224" 
d="M420 261l-300 340l300 338h278l-298 -338l298 -340h-278zM846 261l-300 340l300 338h278l-298 -338l298 -340h-278z" />
    <glyph glyph-name="logicalnot" unicode="&#xac;" horiz-adv-x="1038" 
d="M682 281v362h-602v276h878v-638h-276z" />
    <glyph glyph-name="uni00AD" unicode="&#xad;" horiz-adv-x="884" 
d="M124 738h640v-276h-640v276z" />
    <glyph glyph-name="registered" unicode="&#xae;" horiz-adv-x="1164" 
d="M581 379q-108 0 -202.5 40.5t-166 112.5t-112 166.5t-40.5 203.5q0 108 40.5 202t112.5 166t166 112.5t202 40.5q110 0 205.5 -41.5t167 -114t111 -166t39.5 -199.5q0 -110 -41 -205t-113.5 -166.5t-167 -111.5t-201.5 -40zM581 574q91 0 165.5 44t118.5 118.5t44 165.5
q0 90 -44 164t-118.5 118t-165.5 44q-90 0 -164 -44t-118 -118t-44 -164q0 -91 44 -165.5t118 -118.5t164 -44zM439 700v434h170q56 0 94.5 -41t38.5 -98q0 -39 -18.5 -71.5t-49.5 -49.5l102 -174h-121l-92 156h-19v-156h-105zM544 961h65q12 0 20 10t8 24q0 15 -8 24.5
t-20 9.5h-65v-68z" />
    <glyph glyph-name="macron" unicode="&#xaf;" horiz-adv-x="1200" 
d="M262 1340h676v-204h-676v204z" />
    <glyph glyph-name="degree" unicode="&#xb0;" horiz-adv-x="978" 
d="M490 672q-116 0 -208.5 57t-147 150t-54.5 201q0 111 55 204t148 148.5t207 55.5q117 0 209 -57t145.5 -150t53.5 -201q0 -117 -56 -209t-149 -145.5t-203 -53.5zM490 948q54 0 93 38.5t39 93.5q0 56 -39 94t-93 38q-55 0 -94.5 -38t-39.5 -94q0 -55 39.5 -93.5
t94.5 -38.5z" />
    <glyph glyph-name="plusminus" unicode="&#xb1;" horiz-adv-x="1160" 
d="M442 390v362h-362v276h362v362h276v-362h362v-276h-362v-362h-276zM80 0v276h1000v-276h-1000z" />
    <glyph glyph-name="uni00B2" unicode="&#xb2;" horiz-adv-x="721" 
d="M96 818v139q42 29 88.5 58t91 61t82 72t61.5 90q0 35 -23.5 58.5t-57.5 23.5q-35 0 -59.5 -23.5t-24.5 -58.5h-158q0 67 32.5 119t88 81.5t121.5 29.5q100 0 169.5 -65t69.5 -165q0 -40 -17 -75t-45 -66.5t-62 -61t-68 -59.5h181v-158h-470z" />
    <glyph glyph-name="uni00B3" unicode="&#xb3;" horiz-adv-x="583" 
d="M293 798q-91 0 -156 59t-65 151h158q0 -27 18.5 -44.5t44.5 -17.5q25 0 42.5 17.5t17.5 44.5q0 32 -28.5 60t-86.5 28v102q58 0 78 25t20 50q0 20 -14.5 33.5t-33.5 13.5t-33 -13.5t-14 -33.5h-159q0 86 60.5 140.5t145.5 54.5q86 0 146 -54.5t60 -140.5
q0 -33 -10.5 -64.5t-29.5 -57.5q29 -29 43 -66t14 -77q0 -92 -64.5 -151t-153.5 -59z" />
    <glyph glyph-name="acute" unicode="&#xb4;" horiz-adv-x="1116" 
d="M452 1110l80 288h276l-172 -288h-184z" />
    <glyph glyph-name="uni00B5" unicode="&#xb5;" horiz-adv-x="1158" 
d="M80 -432v1432h276v-505q0 -71 29 -129t81.5 -92.5t121.5 -34.5t116.5 34.5t72.5 92.5t25 129v505h276v-1000h-276v103q-47 -57 -112.5 -94t-149.5 -37q-53 0 -98.5 13.5t-85.5 35.5v-453h-276z" />
    <glyph glyph-name="paragraph" unicode="&#xb6;" 
d="M420 -302v1020q-94 0 -171 46t-123 123.5t-46 172.5q0 94 46 171t123 123t171 46h276v-1702h-276zM764 -302v1702h276v-1702h-276z" />
    <glyph glyph-name="periodcentered" unicode="&#xb7;" horiz-adv-x="439" 
d="M219 461q-58 0 -98.5 40.5t-40.5 98.5t40.5 98.5t98.5 40.5t99 -40.5t41 -98.5t-41 -98.5t-99 -40.5z" />
    <glyph glyph-name="cedilla" unicode="&#xb8;" horiz-adv-x="1296" 
d="M628 -379q-74 -19 -140.5 19t-85.5 111l136 37q5 -17 20.5 -26t33.5 -5q17 5 26 20.5t5 33.5q-5 18 -20 25t-34 6l-138 -2l146 257l123 -71l-37 -63q34 -16 60 -45.5t36 -70.5q20 -74 -18.5 -140t-112.5 -86z" />
    <glyph glyph-name="uni00B9" unicode="&#xb9;" horiz-adv-x="460" 
d="M157 818v473h-61l23 158h197v-631h-159z" />
    <glyph glyph-name="ordmasculine" unicode="&#xba;" 
d="M560 -26q-138 0 -251.5 71t-181 190.5t-67.5 264.5q0 110 39 205.5t107.5 168t159.5 113.5t194 41q138 0 251.5 -71t181 -191t67.5 -266q0 -109 -39 -204t-107.5 -167.5t-159 -113.5t-194.5 -41zM560 250q64 0 115 34.5t80 91.5t29 124q0 69 -30.5 126.5t-81.5 91.5
t-112 34q-63 0 -114 -35t-80.5 -92t-29.5 -125q0 -71 30.5 -127.5t81.5 -89.5t112 -33z" />
    <glyph glyph-name="guillemotright" unicode="&#xbb;" horiz-adv-x="1244" 
d="M526 261l298 340l-298 338h278l300 -338l-300 -340h-278zM100 261l298 340l-298 338h278l300 -338l-300 -340h-278z" />
    <glyph glyph-name="onequarter" unicode="&#xbc;" horiz-adv-x="1603" 
d="M157 818v473h-61l23 158h197v-631h-159zM169 0l808 1400h224l-808 -1400h-224zM1246 0v91h-240v191l222 349h176v-381h56v-159h-56v-91h-158zM1160 250h101v160z" />
    <glyph glyph-name="onehalf" unicode="&#xbd;" horiz-adv-x="1631" 
d="M157 818v473h-61l23 158h197v-631h-159zM169 0l808 1400h224l-808 -1400h-224zM1006 0v139q42 29 88.5 58.5t91 61.5t82 72t61.5 90q0 35 -23.5 58t-57.5 23q-35 0 -59.5 -23t-24.5 -58h-158q0 66 32.5 120.5t88 87t121.5 32.5t120.5 -32.5t86.5 -87t32 -120.5
q0 -40 -17 -75t-45 -67t-62 -61.5t-68 -59.5h181v-158h-470z" />
    <glyph glyph-name="threequarters" unicode="&#xbe;" horiz-adv-x="1727" 
d="M293 798q-91 0 -156 59t-65 151h158q0 -27 18.5 -44.5t44.5 -17.5q25 0 42.5 17.5t17.5 44.5q0 32 -28.5 60t-86.5 28v102q58 0 78 25t20 50q0 20 -14.5 33.5t-33.5 13.5t-33 -13.5t-14 -33.5h-159q0 86 60.5 140.5t145.5 54.5q86 0 146 -54.5t60 -140.5
q0 -33 -10.5 -64.5t-29.5 -57.5q29 -29 43 -66t14 -77q0 -92 -64.5 -151t-153.5 -59zM292 0l808 1400h224l-808 -1400h-224zM1369 0v91h-240v191l222 349h176v-381h56v-159h-56v-91h-158zM1283 250h101v160z" />
    <glyph glyph-name="questiondown" unicode="&#xbf;" horiz-adv-x="1136" 
d="M550 -426q-130 0 -236.5 63.5t-170 169.5t-63.5 235q0 133 65 245.5t177 171.5q36 19 56 53.5t20 75.5h276q0 -117 -59 -216t-163 -156q-45 -23 -70.5 -70t-25.5 -104q0 -53 26 -97t70.5 -69.5t97.5 -25.5t97.5 25.5t70.5 69.5t26 97h276q0 -129 -63.5 -235t-170 -169.5
t-236.5 -63.5zM523 747q-57 0 -97.5 40.5t-40.5 97.5q0 60 40.5 100.5t97.5 40.5q58 0 98.5 -40.5t40.5 -100.5q0 -57 -40.5 -97.5t-98.5 -40.5z" />
    <glyph glyph-name="Agrave" unicode="&#xc0;" horiz-adv-x="1490" 
d="M588 1400h314l508 -1400h-293l-84 232h-576l-84 -232h-293zM558 508h374l-188 513zM463 1798h276l80 -288h-184z" />
    <glyph glyph-name="Aacute" unicode="&#xc1;" horiz-adv-x="1490" 
d="M588 1400h314l508 -1400h-293l-84 232h-576l-84 -232h-293zM558 508h374l-188 513zM672 1510l80 288h276l-172 -288h-184z" />
    <glyph glyph-name="Acircumflex" unicode="&#xc2;" horiz-adv-x="1490" 
d="M588 1400h314l508 -1400h-293l-84 232h-576l-84 -232h-293zM558 508h374l-188 513zM900 1798l194 -288h-184l-165 190l-163 -190h-184l190 288h312z" />
    <glyph glyph-name="Atilde" unicode="&#xc3;" horiz-adv-x="1490" 
d="M588 1400h314l508 -1400h-293l-84 232h-576l-84 -232h-293zM558 508h374l-188 513zM901 1497q-38 0 -90.5 27t-104 59t-88.5 51t-46 4q-9 -17 -8.5 -35.5t9.5 -49.5l-157 -43q-29 84 -16 152.5t61.5 108.5t127.5 40q36 0 84.5 -21.5t96.5 -49.5t85 -49.5t49 -21.5
q20 0 24 12.5t-1.5 32t-12.5 37.5l161 52q29 -89 14 -158t-64.5 -108.5t-123.5 -39.5z" />
    <glyph glyph-name="Adieresis" unicode="&#xc4;" horiz-adv-x="1490" 
d="M588 1400h314l508 -1400h-293l-84 232h-576l-84 -232h-293zM558 508h374l-188 513zM536 1467q-60 0 -101 39.5t-41 99.5q0 58 41 99t101 41q58 0 98.5 -41t40.5 -99q0 -60 -40.5 -99.5t-98.5 -39.5zM957 1467q-60 0 -101 39.5t-41 99.5q0 58 41 99t101 41q58 0 98.5 -41
t40.5 -99q0 -60 -40.5 -99.5t-98.5 -39.5z" />
    <glyph glyph-name="Aring" unicode="&#xc5;" horiz-adv-x="1490" 
d="M588 1400h314l508 -1400h-293l-84 232h-576l-84 -232h-293zM558 508h374l-188 513zM745 1460q-80 0 -137 58t-57 138q0 52 26 95.5t70 70t98 26.5q80 0 137 -57t57 -135q0 -82 -57 -139t-137 -57zM745 1591q26 0 44.5 19t18.5 45q0 25 -18.5 43.5t-44.5 18.5
q-27 0 -45 -18t-18 -43q0 -27 18 -46t45 -19z" />
    <glyph glyph-name="AE" unicode="&#xc6;" horiz-adv-x="1696" 
d="M80 0l508 1400h1008v-276h-470v-286h374v-276h-374v-286h470v-276h-746v232h-393l-84 -232h-293zM558 508h292v616h-68z" />
    <glyph glyph-name="Ccedilla" unicode="&#xc7;" horiz-adv-x="1418" 
d="M768 -26q-142 0 -267 56.5t-219.5 156.5t-148 231.5t-53.5 281.5q0 151 53.5 282.5t148 231t219.5 156t267 56.5q170 0 313 -78.5t237 -209.5l-246 -133q-56 66 -135 105.5t-169 39.5q-85 0 -160 -35t-131.5 -97t-88.5 -143t-32 -175q0 -93 32 -174.5t88.5 -143
t131.5 -97t160 -35.5q91 0 169.5 40t134.5 106l246 -134q-94 -130 -237 -209t-313 -79zM778 -379q-74 -19 -140.5 19t-85.5 111l136 37q5 -17 20.5 -26t33.5 -5q17 5 26 20.5t5 33.5q-5 18 -20 25t-34 6l-138 -2l146 257l123 -71l-37 -63q34 -16 60 -45.5t36 -70.5
q20 -74 -18.5 -140t-112.5 -86z" />
    <glyph glyph-name="Egrave" unicode="&#xc8;" horiz-adv-x="1106" 
d="M120 0v1400h886v-276h-610v-236h476v-276h-476v-336h610v-276h-886zM271 1798h276l80 -288h-184z" />
    <glyph glyph-name="Eacute" unicode="&#xc9;" horiz-adv-x="1106" 
d="M120 0v1400h886v-276h-610v-236h476v-276h-476v-336h610v-276h-886zM480 1510l80 288h276l-172 -288h-184z" />
    <glyph glyph-name="Ecircumflex" unicode="&#xca;" horiz-adv-x="1106" 
d="M120 0v1400h886v-276h-610v-236h476v-276h-476v-336h610v-276h-886zM708 1798l194 -288h-184l-165 190l-163 -190h-184l190 288h312z" />
    <glyph glyph-name="Edieresis" unicode="&#xcb;" horiz-adv-x="1106" 
d="M120 0v1400h886v-276h-610v-236h476v-276h-476v-336h610v-276h-886zM344 1467q-60 0 -101 39.5t-41 99.5q0 58 41 99t101 41q58 0 98.5 -41t40.5 -99q0 -60 -40.5 -99.5t-98.5 -39.5zM765 1467q-60 0 -101 39.5t-41 99.5q0 58 41 99t101 41q58 0 98.5 -41t40.5 -99
q0 -60 -40.5 -99.5t-98.5 -39.5z" />
    <glyph glyph-name="Igrave" unicode="&#xcc;" horiz-adv-x="576" 
d="M150 0v1400h276v-1400h-276zM6 1798h276l80 -288h-184z" />
    <glyph glyph-name="Iacute" unicode="&#xcd;" horiz-adv-x="576" 
d="M150 0v1400h276v-1400h-276zM215 1510l80 288h276l-172 -288h-184z" />
    <glyph glyph-name="Icircumflex" unicode="&#xce;" horiz-adv-x="576" 
d="M150 0v1400h276v-1400h-276zM443 1798l194 -288h-184l-165 190l-163 -190h-184l190 288h312z" />
    <glyph glyph-name="Idieresis" unicode="&#xcf;" horiz-adv-x="576" 
d="M150 0v1400h276v-1400h-276zM79 1467q-60 0 -101 39.5t-41 99.5q0 58 41 99t101 41q58 0 98.5 -41t40.5 -99q0 -60 -40.5 -99.5t-98.5 -39.5zM500 1467q-60 0 -101 39.5t-41 99.5q0 58 41 99t101 41q58 0 98.5 -41t40.5 -99q0 -60 -40.5 -99.5t-98.5 -39.5z" />
    <glyph glyph-name="Eth" unicode="&#xd0;" horiz-adv-x="1461" 
d="M239 0v612h-139v276h139v512h462q145 0 271.5 -54.5t223 -151t151 -223t54.5 -271.5t-54.5 -271.5t-151 -223t-223 -151t-271.5 -54.5h-462zM515 276h186q88 0 164.5 33t135 92t91.5 135.5t33 163.5q0 88 -33 164.5t-92 135t-135 91.5t-164 33h-186v-236h254v-276h-254
v-336z" />
    <glyph glyph-name="Ntilde" unicode="&#xd1;" horiz-adv-x="1360" 
d="M120 0v1400h298l546 -901v901h276v-1400h-298l-546 901v-901h-276zM836 1497q-38 0 -90.5 27t-104 59t-88.5 51t-46 4q-9 -17 -8.5 -35.5t9.5 -49.5l-157 -43q-29 84 -16 152.5t61.5 108.5t127.5 40q36 0 84.5 -21.5t96.5 -49.5t85 -49.5t49 -21.5q20 0 24 12.5t-1.5 32
t-12.5 37.5l161 52q29 -89 14 -158t-64.5 -108.5t-123.5 -39.5z" />
    <glyph glyph-name="Ograve" unicode="&#xd2;" horiz-adv-x="1540" 
d="M770 -26q-142 0 -267 56.5t-220 156.5t-149 231.5t-54 281.5t54 281.5t149 231.5t220 156.5t267 56.5q143 0 268 -56.5t220 -156.5t148.5 -231.5t53.5 -281.5t-53.5 -281.5t-148.5 -231.5t-220 -156.5t-268 -56.5zM770 250q85 0 160 35.5t132 97.5t89.5 143t32.5 174
t-32.5 174.5t-89.5 143t-132 97t-160 35.5t-160 -35.5t-132 -97.5t-89.5 -143t-32.5 -174t32.5 -174.5t89.5 -143t132 -97t160 -35.5zM488 1798h276l80 -288h-184z" />
    <glyph glyph-name="Oacute" unicode="&#xd3;" horiz-adv-x="1540" 
d="M770 -26q-142 0 -267 56.5t-220 156.5t-149 231.5t-54 281.5t54 281.5t149 231.5t220 156.5t267 56.5q143 0 268 -56.5t220 -156.5t148.5 -231.5t53.5 -281.5t-53.5 -281.5t-148.5 -231.5t-220 -156.5t-268 -56.5zM770 250q85 0 160 35.5t132 97.5t89.5 143t32.5 174
t-32.5 174.5t-89.5 143t-132 97t-160 35.5t-160 -35.5t-132 -97.5t-89.5 -143t-32.5 -174t32.5 -174.5t89.5 -143t132 -97t160 -35.5zM697 1510l80 288h276l-172 -288h-184z" />
    <glyph glyph-name="Ocircumflex" unicode="&#xd4;" horiz-adv-x="1540" 
d="M770 -26q-142 0 -267 56.5t-220 156.5t-149 231.5t-54 281.5t54 281.5t149 231.5t220 156.5t267 56.5q143 0 268 -56.5t220 -156.5t148.5 -231.5t53.5 -281.5t-53.5 -281.5t-148.5 -231.5t-220 -156.5t-268 -56.5zM770 250q85 0 160 35.5t132 97.5t89.5 143t32.5 174
t-32.5 174.5t-89.5 143t-132 97t-160 35.5t-160 -35.5t-132 -97.5t-89.5 -143t-32.5 -174t32.5 -174.5t89.5 -143t132 -97t160 -35.5zM925 1798l194 -288h-184l-165 190l-163 -190h-184l190 288h312z" />
    <glyph glyph-name="Otilde" unicode="&#xd5;" horiz-adv-x="1540" 
d="M770 -26q-142 0 -267 56.5t-220 156.5t-149 231.5t-54 281.5t54 281.5t149 231.5t220 156.5t267 56.5q143 0 268 -56.5t220 -156.5t148.5 -231.5t53.5 -281.5t-53.5 -281.5t-148.5 -231.5t-220 -156.5t-268 -56.5zM770 250q85 0 160 35.5t132 97.5t89.5 143t32.5 174
t-32.5 174.5t-89.5 143t-132 97t-160 35.5t-160 -35.5t-132 -97.5t-89.5 -143t-32.5 -174t32.5 -174.5t89.5 -143t132 -97t160 -35.5zM926 1497q-38 0 -90.5 27t-104 59t-88.5 51t-46 4q-9 -17 -8.5 -35.5t9.5 -49.5l-157 -43q-29 84 -16 152.5t61.5 108.5t127.5 40
q36 0 84.5 -21.5t96.5 -49.5t85 -49.5t49 -21.5q20 0 24 12.5t-1.5 32t-12.5 37.5l161 52q29 -89 14 -158t-64.5 -108.5t-123.5 -39.5z" />
    <glyph glyph-name="Odieresis" unicode="&#xd6;" horiz-adv-x="1540" 
d="M770 -26q-142 0 -267 56.5t-220 156.5t-149 231.5t-54 281.5t54 281.5t149 231.5t220 156.5t267 56.5q143 0 268 -56.5t220 -156.5t148.5 -231.5t53.5 -281.5t-53.5 -281.5t-148.5 -231.5t-220 -156.5t-268 -56.5zM770 250q85 0 160 35.5t132 97.5t89.5 143t32.5 174
t-32.5 174.5t-89.5 143t-132 97t-160 35.5t-160 -35.5t-132 -97.5t-89.5 -143t-32.5 -174t32.5 -174.5t89.5 -143t132 -97t160 -35.5zM561 1467q-60 0 -101 39.5t-41 99.5q0 58 41 99t101 41q58 0 98.5 -41t40.5 -99q0 -60 -40.5 -99.5t-98.5 -39.5zM982 1467
q-60 0 -101 39.5t-41 99.5q0 58 41 99t101 41q58 0 98.5 -41t40.5 -99q0 -60 -40.5 -99.5t-98.5 -39.5z" />
    <glyph glyph-name="multiply" unicode="&#xd7;" horiz-adv-x="1061" 
d="M275 149l-195 195l255 256l-255 256l195 195l255 -256l256 256l195 -195l-256 -256l256 -256l-195 -195l-256 256z" />
    <glyph glyph-name="Oslash" unicode="&#xd8;" horiz-adv-x="1540" 
d="M460 -116l-240 138l83 146q-101 99 -162 237t-61 295q0 150 54 281.5t149 231.5t220 156.5t267 56.5q63 0 122 -11.5t113 -31.5l77 133l240 -138l-85 -144q103 -100 163 -238t60 -296q0 -150 -53.5 -281.5t-148.5 -231.5t-220 -156.5t-268 -56.5q-61 0 -119.5 12
t-113.5 33zM450 422l413 714q-21 7 -45 10.5t-48 3.5q-85 0 -160 -35.5t-132 -97.5t-89.5 -143t-32.5 -174q0 -79 25.5 -150.5t68.5 -127.5zM770 250q85 0 160 35.5t132 97.5t89.5 143t32.5 174q0 79 -24 150.5t-68 127.5l-413 -713q22 -7 45.5 -11t45.5 -4z" />
    <glyph glyph-name="Ugrave" unicode="&#xd9;" horiz-adv-x="1370" 
d="M686 -26q-168 0 -295.5 82t-199 220.5t-71.5 307.5v816h276v-816q0 -91 34 -167t99 -121.5t157 -45.5q93 0 157.5 45t97.5 121t33 168v816h276v-816q0 -127 -40.5 -237.5t-115.5 -194.5t-178.5 -131t-229.5 -47zM403 1798h276l80 -288h-184z" />
    <glyph glyph-name="Uacute" unicode="&#xda;" horiz-adv-x="1370" 
d="M686 -26q-168 0 -295.5 82t-199 220.5t-71.5 307.5v816h276v-816q0 -91 34 -167t99 -121.5t157 -45.5q93 0 157.5 45t97.5 121t33 168v816h276v-816q0 -127 -40.5 -237.5t-115.5 -194.5t-178.5 -131t-229.5 -47zM612 1510l80 288h276l-172 -288h-184z" />
    <glyph glyph-name="Ucircumflex" unicode="&#xdb;" horiz-adv-x="1370" 
d="M686 -26q-168 0 -295.5 82t-199 220.5t-71.5 307.5v816h276v-816q0 -91 34 -167t99 -121.5t157 -45.5q93 0 157.5 45t97.5 121t33 168v816h276v-816q0 -127 -40.5 -237.5t-115.5 -194.5t-178.5 -131t-229.5 -47zM841 1798l194 -288h-184l-165 190l-163 -190h-184l190 288
h312z" />
    <glyph glyph-name="Udieresis" unicode="&#xdc;" horiz-adv-x="1370" 
d="M686 -26q-168 0 -295.5 82t-199 220.5t-71.5 307.5v816h276v-816q0 -91 34 -167t99 -121.5t157 -45.5q93 0 157.5 45t97.5 121t33 168v816h276v-816q0 -127 -40.5 -237.5t-115.5 -194.5t-178.5 -131t-229.5 -47zM476 1467q-60 0 -101 39.5t-41 99.5q0 58 41 99t101 41
q58 0 98.5 -41t40.5 -99q0 -60 -40.5 -99.5t-98.5 -39.5zM897 1467q-60 0 -101 39.5t-41 99.5q0 58 41 99t101 41q58 0 98.5 -41t40.5 -99q0 -60 -40.5 -99.5t-98.5 -39.5z" />
    <glyph glyph-name="Yacute" unicode="&#xdd;" horiz-adv-x="1364" 
d="M978 1400h326l-484 -769v-631h-276v631l-484 769h326l296 -469zM609 1510l80 288h276l-172 -288h-184z" />
    <glyph glyph-name="Thorn" unicode="&#xde;" horiz-adv-x="1106" 
d="M120 0v1400h276v-275h240q115 0 207.5 -58t147.5 -154.5t55 -212.5q0 -118 -56 -214t-149.5 -153.5t-204.5 -57.5h-240v-275h-276zM396 551h209q46 0 83 22.5t59.5 61t22.5 85.5q0 46 -22.5 84.5t-59.5 61.5t-83 23h-209v-338z" />
    <glyph glyph-name="germandbls" unicode="&#xdf;" horiz-adv-x="1168" 
d="M120 0v882q0 108 40 201.5t111 164.5t165 111.5t201 40.5q114 0 205.5 -52.5t145 -143.5t53.5 -206q0 -47 -12 -99.5t-41.5 -97.5t-81.5 -70q66 -9 106 -44t61 -84t28 -103t7 -102q0 -114 -56 -204.5t-150.5 -142t-208.5 -51.5h-74l-38 235h83q55 0 100 25t72 66.5
t27 91.5t-27 90.5t-72 65.5t-100 27l-83 3v224l24 4q44 6 80.5 27.5t58 57t21.5 81.5q0 45 -21.5 82.5t-58 60.5t-80.5 23q-58 0 -105.5 -28.5t-75.5 -75.5t-28 -106v-954h-276z" />
    <glyph glyph-name="agrave" unicode="&#xe0;" horiz-adv-x="1210" 
d="M854 1000h276v-1000h-277l-13 104q-39 -58 -100 -94t-143 -36q-112 0 -209 42t-171 116t-115.5 171.5t-41.5 209.5q0 107 39 200t110 164t163.5 111t199.5 40q92 0 165.5 -39t128.5 -99zM590 239q68 0 123 35t87 94.5t32 131.5q0 73 -32 132t-87 94t-123 35
q-69 0 -125 -35t-89 -94.5t-33 -131.5t33.5 -131.5t89.5 -94.5t124 -35zM337 1398h276l80 -288h-184z" />
    <glyph glyph-name="aacute" unicode="&#xe1;" horiz-adv-x="1210" 
d="M854 1000h276v-1000h-277l-13 104q-39 -58 -100 -94t-143 -36q-112 0 -209 42t-171 116t-115.5 171.5t-41.5 209.5q0 107 39 200t110 164t163.5 111t199.5 40q92 0 165.5 -39t128.5 -99zM590 239q68 0 123 35t87 94.5t32 131.5q0 73 -32 132t-87 94t-123 35
q-69 0 -125 -35t-89 -94.5t-33 -131.5t33.5 -131.5t89.5 -94.5t124 -35zM546 1110l80 288h276l-172 -288h-184z" />
    <glyph glyph-name="acircumflex" unicode="&#xe2;" horiz-adv-x="1210" 
d="M854 1000h276v-1000h-277l-13 104q-39 -58 -100 -94t-143 -36q-112 0 -209 42t-171 116t-115.5 171.5t-41.5 209.5q0 107 39 200t110 164t163.5 111t199.5 40q92 0 165.5 -39t128.5 -99zM590 239q68 0 123 35t87 94.5t32 131.5q0 73 -32 132t-87 94t-123 35
q-69 0 -125 -35t-89 -94.5t-33 -131.5t33.5 -131.5t89.5 -94.5t124 -35zM774 1398l194 -288h-184l-165 190l-163 -190h-184l190 288h312z" />
    <glyph glyph-name="atilde" unicode="&#xe3;" horiz-adv-x="1210" 
d="M854 1000h276v-1000h-277l-13 104q-39 -58 -100 -94t-143 -36q-112 0 -209 42t-171 116t-115.5 171.5t-41.5 209.5q0 107 39 200t110 164t163.5 111t199.5 40q92 0 165.5 -39t128.5 -99zM590 239q68 0 123 35t87 94.5t32 131.5q0 73 -32 132t-87 94t-123 35
q-69 0 -125 -35t-89 -94.5t-33 -131.5t33.5 -131.5t89.5 -94.5t124 -35zM775 1097q-38 0 -90.5 27t-104 59t-88.5 51t-46 4q-9 -17 -8.5 -35.5t9.5 -49.5l-157 -43q-29 84 -16 152.5t61.5 108.5t127.5 40q36 0 84.5 -21.5t96.5 -49.5t85 -49.5t49 -21.5q20 0 24 12.5
t-1.5 32t-12.5 37.5l161 52q29 -89 14 -158t-64.5 -108.5t-123.5 -39.5z" />
    <glyph glyph-name="adieresis" unicode="&#xe4;" horiz-adv-x="1210" 
d="M854 1000h276v-1000h-277l-13 104q-39 -58 -100 -94t-143 -36q-112 0 -209 42t-171 116t-115.5 171.5t-41.5 209.5q0 107 39 200t110 164t163.5 111t199.5 40q92 0 165.5 -39t128.5 -99zM590 239q68 0 123 35t87 94.5t32 131.5q0 73 -32 132t-87 94t-123 35
q-69 0 -125 -35t-89 -94.5t-33 -131.5t33.5 -131.5t89.5 -94.5t124 -35zM410 1067q-60 0 -101 39.5t-41 99.5q0 58 41 99t101 41q58 0 98.5 -41t40.5 -99q0 -60 -40.5 -99.5t-98.5 -39.5zM831 1067q-60 0 -101 39.5t-41 99.5q0 58 41 99t101 41q58 0 98.5 -41t40.5 -99
q0 -60 -40.5 -99.5t-98.5 -39.5z" />
    <glyph glyph-name="aring" unicode="&#xe5;" horiz-adv-x="1210" 
d="M854 1000h276v-1000h-277l-13 104q-39 -58 -100 -94t-143 -36q-112 0 -209 42t-171 116t-115.5 171.5t-41.5 209.5q0 107 39 200t110 164t163.5 111t199.5 40q92 0 165.5 -39t128.5 -99zM590 239q68 0 123 35t87 94.5t32 131.5q0 73 -32 132t-87 94t-123 35
q-69 0 -125 -35t-89 -94.5t-33 -131.5t33.5 -131.5t89.5 -94.5t124 -35zM619 1060q-80 0 -137 58t-57 138q0 52 26 95.5t70 70t98 26.5q80 0 137 -57t57 -135q0 -82 -57 -139t-137 -57zM619 1191q26 0 44.5 19t18.5 45q0 25 -18.5 43.5t-44.5 18.5q-27 0 -45 -18t-18 -43
q0 -27 18 -46t45 -19z" />
    <glyph glyph-name="ae" unicode="&#xe6;" horiz-adv-x="1714" 
d="M364 -26q-96 0 -171.5 44t-119 116.5t-43.5 158.5q0 85 43.5 157.5t119 117t171.5 44.5h280q-10 40 -33.5 71.5t-60 50t-83.5 18.5q-79 0 -143 -40l-152 229q65 44 139.5 65.5t152.5 21.5q100 0 189.5 -40t152.5 -114q45 47 99.5 81.5t118 53.5t131.5 19q119 0 217.5 -51
t166.5 -139t97.5 -199t9.5 -231h-694q14 -45 41.5 -80.5t69 -56.5t94.5 -21q52 0 95.5 25t73.5 66l281 -65q-60 -133 -181 -217.5t-271 -84.5q-77 0 -146.5 23.5t-129 66t-104.5 99.5q-36 -49 -99 -91.5t-143 -70t-169 -27.5zM364 214q65 0 118.5 24.5t91.5 67.5
q41 42 69 102h-279q-40 0 -67 -27.5t-27 -66.5q0 -38 27 -69t67 -31zM942 612h425q-12 50 -43.5 90t-75 63t-93.5 23t-93.5 -23t-74.5 -62.5t-45 -90.5z" />
    <glyph glyph-name="ccedilla" unicode="&#xe7;" horiz-adv-x="1019" 
d="M712 316l248 -134q-69 -94 -173 -151t-227 -57q-138 0 -251.5 71t-181 190.5t-67.5 264.5q0 110 39 205.5t107.5 168t159.5 113.5t194 41q123 0 227 -57t173 -153l-248 -134q-31 33 -70.5 50.5t-81.5 17.5q-64 0 -114.5 -35t-80 -92.5t-29.5 -124.5q0 -66 30 -123
t80.5 -92t113.5 -35q43 0 82 18t70 48zM570 -379q-74 -19 -140.5 19t-85.5 111l136 37q5 -17 20.5 -26t33.5 -5q17 5 26 20.5t5 33.5q-5 18 -20 25t-34 6l-138 -2l146 257l123 -71l-37 -63q34 -16 60 -45.5t36 -70.5q20 -74 -18.5 -140t-112.5 -86z" />
    <glyph glyph-name="egrave" unicode="&#xe8;" 
d="M560 -26q-138 0 -251.5 71t-181 191t-67.5 265q0 109 39 204.5t107.5 168t159.5 113.5t194 41q119 0 217.5 -51t167 -139t98 -199t9.5 -231h-694q13 -44 40.5 -79.5t68 -56.5t93.5 -22q52 -1 96 24t75 67l282 -65q-61 -133 -182 -217.5t-271 -84.5zM348 612h425
q-13 50 -44 90t-74.5 63t-94.5 23q-50 0 -93.5 -23t-74 -62.5t-44.5 -90.5zM278 1398h276l80 -288h-184z" />
    <glyph glyph-name="eacute" unicode="&#xe9;" 
d="M560 -26q-138 0 -251.5 71t-181 191t-67.5 265q0 109 39 204.5t107.5 168t159.5 113.5t194 41q119 0 217.5 -51t167 -139t98 -199t9.5 -231h-694q13 -44 40.5 -79.5t68 -56.5t93.5 -22q52 -1 96 24t75 67l282 -65q-61 -133 -182 -217.5t-271 -84.5zM348 612h425
q-13 50 -44 90t-74.5 63t-94.5 23q-50 0 -93.5 -23t-74 -62.5t-44.5 -90.5zM487 1110l80 288h276l-172 -288h-184z" />
    <glyph glyph-name="ecircumflex" unicode="&#xea;" 
d="M560 -26q-138 0 -251.5 71t-181 191t-67.5 265q0 109 39 204.5t107.5 168t159.5 113.5t194 41q119 0 217.5 -51t167 -139t98 -199t9.5 -231h-694q13 -44 40.5 -79.5t68 -56.5t93.5 -22q52 -1 96 24t75 67l282 -65q-61 -133 -182 -217.5t-271 -84.5zM348 612h425
q-13 50 -44 90t-74.5 63t-94.5 23q-50 0 -93.5 -23t-74 -62.5t-44.5 -90.5zM715 1398l194 -288h-184l-165 190l-163 -190h-184l190 288h312z" />
    <glyph glyph-name="edieresis" unicode="&#xeb;" 
d="M560 -26q-138 0 -251.5 71t-181 191t-67.5 265q0 109 39 204.5t107.5 168t159.5 113.5t194 41q119 0 217.5 -51t167 -139t98 -199t9.5 -231h-694q13 -44 40.5 -79.5t68 -56.5t93.5 -22q52 -1 96 24t75 67l282 -65q-61 -133 -182 -217.5t-271 -84.5zM348 612h425
q-13 50 -44 90t-74.5 63t-94.5 23q-50 0 -93.5 -23t-74 -62.5t-44.5 -90.5zM351 1067q-60 0 -101 39.5t-41 99.5q0 58 41 99t101 41q58 0 98.5 -41t40.5 -99q0 -60 -40.5 -99.5t-98.5 -39.5zM772 1067q-60 0 -101 39.5t-41 99.5q0 58 41 99t101 41q58 0 98.5 -41t40.5 -99
q0 -60 -40.5 -99.5t-98.5 -39.5z" />
    <glyph glyph-name="igrave" unicode="&#xec;" horiz-adv-x="516" 
d="M120 1000h276v-1000h-276v1000zM-24 1398h276l80 -288h-184z" />
    <glyph glyph-name="iacute" unicode="&#xed;" horiz-adv-x="516" 
d="M120 1000h276v-1000h-276v1000zM185 1110l80 288h276l-172 -288h-184z" />
    <glyph glyph-name="icircumflex" unicode="&#xee;" horiz-adv-x="516" 
d="M120 1000h276v-1000h-276v1000zM413 1398l194 -288h-184l-165 190l-163 -190h-184l190 288h312z" />
    <glyph glyph-name="idieresis" unicode="&#xef;" horiz-adv-x="516" 
d="M120 1000h276v-1000h-276v1000zM49 1067q-60 0 -101 39.5t-41 99.5q0 58 41 99t101 41q58 0 98.5 -41t40.5 -99q0 -60 -40.5 -99.5t-98.5 -39.5zM470 1067q-60 0 -101 39.5t-41 99.5q0 58 41 99t101 41q58 0 98.5 -41t40.5 -99q0 -60 -40.5 -99.5t-98.5 -39.5z" />
    <glyph glyph-name="eth" unicode="&#xf0;" horiz-adv-x="1126" 
d="M439 1023l-132 132l438 432l130 -132zM584 -26q-139 0 -253.5 68t-182.5 182t-68 252q0 104 39 195.5t108.5 161t161 108.5t195.5 39q31 0 60.5 -7.5t53.5 -22.5q-20 49 -46.5 102.5t-66 100.5t-98.5 76t-145 29l-2 276q171 0 308.5 -83.5t235.5 -227t150 -327t52 -383.5
q0 -157 -65 -279t-178.5 -191t-258.5 -69zM584 250q62 0 113.5 31t82 82.5t30.5 112.5q0 63 -30.5 114.5t-82 82.5t-113.5 31q-63 0 -115 -31t-82.5 -83t-30.5 -114q0 -61 30.5 -112.5t82.5 -82.5t115 -31z" />
    <glyph glyph-name="ntilde" unicode="&#xf1;" horiz-adv-x="1129" 
d="M1049 636v-636h-276v560q0 53 -25.5 95.5t-68 67.5t-94.5 25t-95 -25t-68 -67.5t-25 -95.5v-560h-276l-1 1000h276l1 -74q50 48 117.5 75t142.5 27q109 0 197.5 -53t141.5 -141.5t53 -197.5zM759 1097q-38 0 -90.5 27t-104 59t-88.5 51t-46 4q-9 -17 -8.5 -35.5
t9.5 -49.5l-157 -43q-29 84 -16 152.5t61.5 108.5t127.5 40q36 0 84.5 -21.5t96.5 -49.5t85 -49.5t49 -21.5q20 0 24 12.5t-1.5 32t-12.5 37.5l161 52q29 -89 14 -158t-64.5 -108.5t-123.5 -39.5z" />
    <glyph glyph-name="ograve" unicode="&#xf2;" 
d="M560 -26q-138 0 -251.5 71t-181 190.5t-67.5 264.5q0 110 39 205.5t107.5 168t159.5 113.5t194 41q138 0 251.5 -71t181 -191t67.5 -266q0 -109 -39 -204t-107.5 -167.5t-159 -113.5t-194.5 -41zM560 250q64 0 115 34.5t80 91.5t29 124q0 69 -30.5 126.5t-81.5 91.5
t-112 34q-63 0 -114 -35t-80.5 -92t-29.5 -125q0 -71 30.5 -127.5t81.5 -89.5t112 -33zM278 1398h276l80 -288h-184z" />
    <glyph glyph-name="oacute" unicode="&#xf3;" 
d="M560 -26q-138 0 -251.5 71t-181 190.5t-67.5 264.5q0 110 39 205.5t107.5 168t159.5 113.5t194 41q138 0 251.5 -71t181 -191t67.5 -266q0 -109 -39 -204t-107.5 -167.5t-159 -113.5t-194.5 -41zM560 250q64 0 115 34.5t80 91.5t29 124q0 69 -30.5 126.5t-81.5 91.5
t-112 34q-63 0 -114 -35t-80.5 -92t-29.5 -125q0 -71 30.5 -127.5t81.5 -89.5t112 -33zM487 1110l80 288h276l-172 -288h-184z" />
    <glyph glyph-name="ocircumflex" unicode="&#xf4;" 
d="M560 -26q-138 0 -251.5 71t-181 190.5t-67.5 264.5q0 110 39 205.5t107.5 168t159.5 113.5t194 41q138 0 251.5 -71t181 -191t67.5 -266q0 -109 -39 -204t-107.5 -167.5t-159 -113.5t-194.5 -41zM560 250q64 0 115 34.5t80 91.5t29 124q0 69 -30.5 126.5t-81.5 91.5
t-112 34q-63 0 -114 -35t-80.5 -92t-29.5 -125q0 -71 30.5 -127.5t81.5 -89.5t112 -33zM715 1398l194 -288h-184l-165 190l-163 -190h-184l190 288h312z" />
    <glyph glyph-name="otilde" unicode="&#xf5;" 
d="M560 -26q-138 0 -251.5 71t-181 190.5t-67.5 264.5q0 110 39 205.5t107.5 168t159.5 113.5t194 41q138 0 251.5 -71t181 -191t67.5 -266q0 -109 -39 -204t-107.5 -167.5t-159 -113.5t-194.5 -41zM560 250q64 0 115 34.5t80 91.5t29 124q0 69 -30.5 126.5t-81.5 91.5
t-112 34q-63 0 -114 -35t-80.5 -92t-29.5 -125q0 -71 30.5 -127.5t81.5 -89.5t112 -33zM716 1097q-38 0 -90.5 27t-104 59t-88.5 51t-46 4q-9 -17 -8.5 -35.5t9.5 -49.5l-157 -43q-29 84 -16 152.5t61.5 108.5t127.5 40q36 0 84.5 -21.5t96.5 -49.5t85 -49.5t49 -21.5
q20 0 24 12.5t-1.5 32t-12.5 37.5l161 52q29 -89 14 -158t-64.5 -108.5t-123.5 -39.5z" />
    <glyph glyph-name="odieresis" unicode="&#xf6;" 
d="M560 -26q-138 0 -251.5 71t-181 190.5t-67.5 264.5q0 110 39 205.5t107.5 168t159.5 113.5t194 41q138 0 251.5 -71t181 -191t67.5 -266q0 -109 -39 -204t-107.5 -167.5t-159 -113.5t-194.5 -41zM560 250q64 0 115 34.5t80 91.5t29 124q0 69 -30.5 126.5t-81.5 91.5
t-112 34q-63 0 -114 -35t-80.5 -92t-29.5 -125q0 -71 30.5 -127.5t81.5 -89.5t112 -33zM351 1067q-60 0 -101 39.5t-41 99.5q0 58 41 99t101 41q58 0 98.5 -41t40.5 -99q0 -60 -40.5 -99.5t-98.5 -39.5zM772 1067q-60 0 -101 39.5t-41 99.5q0 58 41 99t101 41q58 0 98.5 -41
t40.5 -99q0 -60 -40.5 -99.5t-98.5 -39.5z" />
    <glyph glyph-name="divide" unicode="&#xf7;" horiz-adv-x="1160" 
d="M80 462v276h1000v-276h-1000zM580 1103q59 0 101 -42t42 -101q0 -58 -42 -100.5t-101 -42.5q-60 0 -101.5 42.5t-41.5 100.5q0 59 41.5 101t101.5 42zM580 383q59 0 101 -42.5t42 -101.5q0 -58 -42 -100t-101 -42q-60 0 -101.5 42t-41.5 100q0 59 41.5 101.5t101.5 42.5z
" />
    <glyph glyph-name="oslash" unicode="&#xf8;" 
d="M352 -81l-192 111l53 92q-70 72 -111.5 169.5t-41.5 208.5q0 110 39 205.5t107.5 168t159.5 113.5t194 41q42 0 82.5 -7t75.5 -21l50 84l192 -111l-53 -93q71 -72 112 -169.5t41 -210.5q0 -109 -39 -204t-107.5 -167.5t-159 -113.5t-194.5 -41q-42 0 -82.5 7t-77.5 21z
M349 354l246 427q-56 5 -106.5 -17t-90 -63.5t-62 -97.5t-22.5 -119q0 -37 9.5 -69.5t25.5 -60.5zM525 221q58 -4 109 17t89.5 62.5t60.5 97t22 118.5q0 38 -9.5 71t-25.5 61z" />
    <glyph glyph-name="ugrave" unicode="&#xf9;" horiz-adv-x="1089" 
d="M80 366v634h276v-558q0 -53 25.5 -95.5t68.5 -67.5t94 -25q52 0 95 25t68 67.5t25 95.5v558h276l1 -1000h-276l-1 76q-50 -48 -117.5 -75t-142.5 -27q-108 0 -197 53t-142 141.5t-53 197.5zM297 1400h276l80 -288h-184z" />
    <glyph glyph-name="uacute" unicode="&#xfa;" horiz-adv-x="1089" 
d="M80 366v634h276v-558q0 -53 25.5 -95.5t68.5 -67.5t94 -25q52 0 95 25t68 67.5t25 95.5v558h276l1 -1000h-276l-1 76q-50 -48 -117.5 -75t-142.5 -27q-108 0 -197 53t-142 141.5t-53 197.5zM506 1112l80 288h276l-172 -288h-184z" />
    <glyph glyph-name="ucircumflex" unicode="&#xfb;" horiz-adv-x="1089" 
d="M80 366v634h276v-558q0 -53 25.5 -95.5t68.5 -67.5t94 -25q52 0 95 25t68 67.5t25 95.5v558h276l1 -1000h-276l-1 76q-50 -48 -117.5 -75t-142.5 -27q-108 0 -197 53t-142 141.5t-53 197.5zM735 1400l194 -288h-184l-165 190l-163 -190h-184l190 288h312z" />
    <glyph glyph-name="udieresis" unicode="&#xfc;" horiz-adv-x="1089" 
d="M80 366v634h276v-558q0 -53 25.5 -95.5t68.5 -67.5t94 -25q52 0 95 25t68 67.5t25 95.5v558h276l1 -1000h-276l-1 76q-50 -48 -117.5 -75t-142.5 -27q-108 0 -197 53t-142 141.5t-53 197.5zM370 1069q-60 0 -101 39.5t-41 99.5q0 58 41 99t101 41q58 0 98.5 -41t40.5 -99
q0 -60 -40.5 -99.5t-98.5 -39.5zM791 1069q-60 0 -101 39.5t-41 99.5q0 58 41 99t101 41q58 0 98.5 -41t40.5 -99q0 -60 -40.5 -99.5t-98.5 -39.5z" />
    <glyph glyph-name="yacute" unicode="&#xfd;" horiz-adv-x="1180" 
d="M806 1000h294l-548 -1500h-292l180 500l-360 1000h302l196 -623zM517 1110l80 288h276l-172 -288h-184z" />
    <glyph glyph-name="thorn" unicode="&#xfe;" horiz-adv-x="1250" 
d="M120 -500v1900h276v-508q48 59 114 96.5t154 37.5q109 0 204.5 -41t167.5 -113.5t113 -167.5t41 -204t-41 -205t-113 -168.5t-167.5 -113.5t-204.5 -41q-88 0 -154 38t-114 96v-606h-276zM660 239q68 0 124.5 35t90 94t33.5 132q0 71 -33 130.5t-89.5 95t-125.5 35.5
q-68 0 -122.5 -35.5t-86 -94.5t-31.5 -131t31.5 -131.5t86 -94.5t122.5 -35z" />
    <glyph glyph-name="ydieresis" unicode="&#xff;" horiz-adv-x="1180" 
d="M806 1000h294l-548 -1500h-292l180 500l-360 1000h302l196 -623zM381 1067q-60 0 -101 39.5t-41 99.5q0 58 41 99t101 41q58 0 98.5 -41t40.5 -99q0 -60 -40.5 -99.5t-98.5 -39.5zM802 1067q-60 0 -101 39.5t-41 99.5q0 58 41 99t101 41q58 0 98.5 -41t40.5 -99
q0 -60 -40.5 -99.5t-98.5 -39.5z" />
    <glyph glyph-name="Amacron" unicode="&#x100;" horiz-adv-x="1490" 
d="M588 1400h314l508 -1400h-293l-84 232h-576l-84 -232h-293zM558 508h374l-188 513zM407 1740h676v-204h-676v204z" />
    <glyph glyph-name="amacron" unicode="&#x101;" horiz-adv-x="1210" 
d="M854 1000h276v-1000h-277l-13 104q-39 -58 -100 -94t-143 -36q-112 0 -209 42t-171 116t-115.5 171.5t-41.5 209.5q0 107 39 200t110 164t163.5 111t199.5 40q92 0 165.5 -39t128.5 -99zM590 239q68 0 123 35t87 94.5t32 131.5q0 73 -32 132t-87 94t-123 35
q-69 0 -125 -35t-89 -94.5t-33 -131.5t33.5 -131.5t89.5 -94.5t124 -35zM281 1340h676v-204h-676v204z" />
    <glyph glyph-name="Abreve" unicode="&#x102;" horiz-adv-x="1490" 
d="M588 1400h314l508 -1400h-293l-84 232h-576l-84 -232h-293zM558 508h374l-188 513zM745 1488q-91 0 -166.5 45t-120.5 120.5t-45 166.5h168q0 -45 22.5 -82t59.5 -59.5t82 -22.5t82.5 21.5t59.5 59t22 83.5h168q0 -93 -44.5 -168.5t-120 -119.5t-167.5 -44z" />
    <glyph glyph-name="abreve" unicode="&#x103;" horiz-adv-x="1210" 
d="M854 1000h276v-1000h-277l-13 104q-39 -58 -100 -94t-143 -36q-112 0 -209 42t-171 116t-115.5 171.5t-41.5 209.5q0 107 39 200t110 164t163.5 111t199.5 40q92 0 165.5 -39t128.5 -99zM590 239q68 0 123 35t87 94.5t32 131.5q0 73 -32 132t-87 94t-123 35
q-69 0 -125 -35t-89 -94.5t-33 -131.5t33.5 -131.5t89.5 -94.5t124 -35zM619 1088q-91 0 -166.5 45t-120.5 120.5t-45 166.5h168q0 -45 22.5 -82t59.5 -59.5t82 -22.5t82.5 21.5t59.5 59t22 83.5h168q0 -93 -44.5 -168.5t-120 -119.5t-167.5 -44z" />
    <glyph glyph-name="Aogonek" unicode="&#x104;" horiz-adv-x="1490" 
d="M588 1400h314l508 -1400h-293l-84 232h-576l-84 -232h-293zM558 508h374l-188 513zM1286 -465q-76 0 -132.5 36t-87.5 94.5t-31 121.5q0 48 17.5 93.5t56.5 83.5l168 168l131 -132q-31 -31 -61.5 -60t-55 -57t-39.5 -54.5t-15 -51.5q0 -23 16 -42t44 -19q38 0 65 27
t27 66h172q0 -73 -36 -135.5t-98.5 -100.5t-140.5 -38z" />
    <glyph glyph-name="aogonek" unicode="&#x105;" horiz-adv-x="1210" 
d="M854 1000h276v-1000h-277l-13 104q-39 -58 -100 -94t-143 -36q-112 0 -209 42t-171 116t-115.5 171.5t-41.5 209.5q0 107 39 200t110 164t163.5 111t199.5 40q92 0 165.5 -39t128.5 -99zM590 239q68 0 123 35t87 94.5t32 131.5q0 73 -32 132t-87 94t-123 35
q-69 0 -125 -35t-89 -94.5t-33 -131.5t33.5 -131.5t89.5 -94.5t124 -35zM1006 -465q-76 0 -132.5 36t-87.5 94.5t-31 121.5q0 48 17.5 93.5t56.5 83.5l168 168l131 -132q-31 -31 -61.5 -60t-55 -57t-39.5 -54.5t-15 -51.5q0 -23 16 -42t44 -19q38 0 65 27t27 66h172
q0 -73 -36 -135.5t-98.5 -100.5t-140.5 -38z" />
    <glyph glyph-name="Cacute" unicode="&#x106;" horiz-adv-x="1418" 
d="M768 -26q-142 0 -267 56.5t-219.5 156.5t-148 231.5t-53.5 281.5q0 151 53.5 282.5t148 231t219.5 156t267 56.5q170 0 313 -78.5t237 -209.5l-246 -133q-56 66 -135 105.5t-169 39.5q-85 0 -160 -35t-131.5 -97t-88.5 -143t-32 -175q0 -93 32 -174.5t88.5 -143
t131.5 -97t160 -35.5q91 0 169.5 40t134.5 106l246 -134q-94 -130 -237 -209t-313 -79zM695 1510l80 288h276l-172 -288h-184z" />
    <glyph glyph-name="cacute" unicode="&#x107;" horiz-adv-x="1019" 
d="M712 316l248 -134q-69 -94 -173 -151t-227 -57q-138 0 -251.5 71t-181 190.5t-67.5 264.5q0 110 39 205.5t107.5 168t159.5 113.5t194 41q123 0 227 -57t173 -153l-248 -134q-31 33 -70.5 50.5t-81.5 17.5q-64 0 -114.5 -35t-80 -92.5t-29.5 -124.5q0 -66 30 -123
t80.5 -92t113.5 -35q43 0 82 18t70 48zM487 1110l80 288h276l-172 -288h-184z" />
    <glyph glyph-name="Ccircumflex" unicode="&#x108;" horiz-adv-x="1418" 
d="M768 -26q-142 0 -267 56.5t-219.5 156.5t-148 231.5t-53.5 281.5q0 151 53.5 282.5t148 231t219.5 156t267 56.5q170 0 313 -78.5t237 -209.5l-246 -133q-56 66 -135 105.5t-169 39.5q-85 0 -160 -35t-131.5 -97t-88.5 -143t-32 -175q0 -93 32 -174.5t88.5 -143
t131.5 -97t160 -35.5q91 0 169.5 40t134.5 106l246 -134q-94 -130 -237 -209t-313 -79zM923 1798l194 -288h-184l-165 190l-163 -190h-184l190 288h312z" />
    <glyph glyph-name="ccircumflex" unicode="&#x109;" horiz-adv-x="1019" 
d="M712 316l248 -134q-69 -94 -173 -151t-227 -57q-138 0 -251.5 71t-181 190.5t-67.5 264.5q0 110 39 205.5t107.5 168t159.5 113.5t194 41q123 0 227 -57t173 -153l-248 -134q-31 33 -70.5 50.5t-81.5 17.5q-64 0 -114.5 -35t-80 -92.5t-29.5 -124.5q0 -66 30 -123
t80.5 -92t113.5 -35q43 0 82 18t70 48zM715 1398l194 -288h-184l-165 190l-163 -190h-184l190 288h312z" />
    <glyph glyph-name="Cdotaccent" unicode="&#x10a;" horiz-adv-x="1418" 
d="M768 -26q-142 0 -267 56.5t-219.5 156.5t-148 231.5t-53.5 281.5q0 151 53.5 282.5t148 231t219.5 156t267 56.5q170 0 313 -78.5t237 -209.5l-246 -133q-56 66 -135 105.5t-169 39.5q-85 0 -160 -35t-131.5 -97t-88.5 -143t-32 -175q0 -93 32 -174.5t88.5 -143
t131.5 -97t160 -35.5q91 0 169.5 40t134.5 106l246 -134q-94 -130 -237 -209t-313 -79zM770 1515q-60 0 -101 40t-41 99t41 99t100 40t99.5 -40t40.5 -99t-39.5 -99t-99.5 -40z" />
    <glyph glyph-name="cdotaccent" unicode="&#x10b;" horiz-adv-x="1019" 
d="M712 316l248 -134q-69 -94 -173 -151t-227 -57q-138 0 -251.5 71t-181 190.5t-67.5 264.5q0 110 39 205.5t107.5 168t159.5 113.5t194 41q123 0 227 -57t173 -153l-248 -134q-31 33 -70.5 50.5t-81.5 17.5q-64 0 -114.5 -35t-80 -92.5t-29.5 -124.5q0 -66 30 -123
t80.5 -92t113.5 -35q43 0 82 18t70 48zM562 1115q-60 0 -101 40t-41 99t41 99t100 40t99.5 -40t40.5 -99t-39.5 -99t-99.5 -40z" />
    <glyph glyph-name="Ccaron" unicode="&#x10c;" horiz-adv-x="1418" 
d="M768 -26q-142 0 -267 56.5t-219.5 156.5t-148 231.5t-53.5 281.5q0 151 53.5 282.5t148 231t219.5 156t267 56.5q170 0 313 -78.5t237 -209.5l-246 -133q-56 66 -135 105.5t-169 39.5q-85 0 -160 -35t-131.5 -97t-88.5 -143t-32 -175q0 -93 32 -174.5t88.5 -143
t131.5 -97t160 -35.5q91 0 169.5 40t134.5 106l246 -134q-94 -130 -237 -209t-313 -79zM613 1510l-194 288h184l165 -190l163 190h184l-190 -288h-312z" />
    <glyph glyph-name="ccaron" unicode="&#x10d;" horiz-adv-x="1019" 
d="M712 316l248 -134q-69 -94 -173 -151t-227 -57q-138 0 -251.5 71t-181 190.5t-67.5 264.5q0 110 39 205.5t107.5 168t159.5 113.5t194 41q123 0 227 -57t173 -153l-248 -134q-31 33 -70.5 50.5t-81.5 17.5q-64 0 -114.5 -35t-80 -92.5t-29.5 -124.5q0 -66 30 -123
t80.5 -92t113.5 -35q43 0 82 18t70 48zM405 1110l-194 288h184l165 -190l163 190h184l-190 -288h-312z" />
    <glyph glyph-name="Dcaron" unicode="&#x10e;" horiz-adv-x="1343" 
d="M120 0v1400h464q145 0 271.5 -54.5t223 -151t151 -223t54.5 -271.5t-54.5 -271.5t-151 -223t-223 -151t-271.5 -54.5h-464zM396 276h188q86 0 162.5 33t135.5 91t92.5 135t33.5 165t-33.5 164.5t-92 135t-135 91.5t-163.5 33h-188v-848zM497 1510l-194 288h184l165 -190
l163 190h184l-190 -288h-312z" />
    <glyph glyph-name="dcaron" unicode="&#x10f;" horiz-adv-x="1251" 
d="M855 1500h276v-1500h-276v106q-46 -58 -114 -95t-155 -37q-109 0 -204 41t-167.5 113.5t-113.5 167.5t-41 204t41 204t113.5 167.5t167.5 113.5t204 41q87 0 155 -36.5t114 -95.5v606zM590 239q68 0 123 35t87 94.5t32 131.5q0 73 -32 132t-87 94t-123 35q-69 0 -125 -35
t-89 -94.5t-33 -131.5t33.5 -131.5t89.5 -94.5t124 -35zM1178 1212l80 288h276l-172 -288h-184z" />
    <glyph glyph-name="Emacron" unicode="&#x112;" horiz-adv-x="1106" 
d="M120 0v1400h886v-276h-610v-236h476v-276h-476v-336h610v-276h-886zM215 1740h676v-204h-676v204z" />
    <glyph glyph-name="emacron" unicode="&#x113;" 
d="M560 -26q-138 0 -251.5 71t-181 191t-67.5 265q0 109 39 204.5t107.5 168t159.5 113.5t194 41q119 0 217.5 -51t167 -139t98 -199t9.5 -231h-694q13 -44 40.5 -79.5t68 -56.5t93.5 -22q52 -1 96 24t75 67l282 -65q-61 -133 -182 -217.5t-271 -84.5zM348 612h425
q-13 50 -44 90t-74.5 63t-94.5 23q-50 0 -93.5 -23t-74 -62.5t-44.5 -90.5zM221 1340h676v-204h-676v204z" />
    <glyph glyph-name="Edotaccent" unicode="&#x116;" horiz-adv-x="1106" 
d="M120 0v1400h886v-276h-610v-236h476v-276h-476v-336h610v-276h-886zM555 1515q-60 0 -101 40t-41 99t41 99t100 40t99.5 -40t40.5 -99t-39.5 -99t-99.5 -40z" />
    <glyph glyph-name="edotaccent" unicode="&#x117;" 
d="M560 -26q-138 0 -251.5 71t-181 191t-67.5 265q0 109 39 204.5t107.5 168t159.5 113.5t194 41q119 0 217.5 -51t167 -139t98 -199t9.5 -231h-694q13 -44 40.5 -79.5t68 -56.5t93.5 -22q52 -1 96 24t75 67l282 -65q-61 -133 -182 -217.5t-271 -84.5zM348 612h425
q-13 50 -44 90t-74.5 63t-94.5 23q-50 0 -93.5 -23t-74 -62.5t-44.5 -90.5zM562 1115q-60 0 -101 40t-41 99t41 99t100 40t99.5 -40t40.5 -99t-39.5 -99t-99.5 -40z" />
    <glyph glyph-name="Eogonek" unicode="&#x118;" horiz-adv-x="1106" 
d="M120 0v1400h886v-276h-610v-236h476v-276h-476v-336h610v-276h-886zM778 -465q-76 0 -132.5 36t-87.5 94.5t-31 121.5q0 48 17.5 93.5t56.5 83.5l168 168l131 -132q-31 -31 -61.5 -60t-55 -57t-39.5 -54.5t-15 -51.5q0 -23 16 -42t44 -19q38 0 65 27t27 66h172
q0 -73 -36 -135.5t-98.5 -100.5t-140.5 -38z" />
    <glyph glyph-name="eogonek" unicode="&#x119;" 
d="M560 -26q-138 0 -251.5 71t-181 191t-67.5 265q0 109 39 204.5t107.5 168t159.5 113.5t194 41q119 0 217.5 -51t167 -139t98 -199t9.5 -231h-694q13 -44 40.5 -79.5t68 -56.5t93.5 -22q52 -1 96 24t75 67l282 -65q-61 -133 -182 -217.5t-271 -84.5zM348 612h425
q-13 50 -44 90t-74.5 63t-94.5 23q-50 0 -93.5 -23t-74 -62.5t-44.5 -90.5zM592 -465q-76 0 -132.5 36t-87.5 94.5t-31 121.5q0 48 17.5 93.5t56.5 83.5l168 168l131 -132q-31 -31 -61.5 -60t-55 -57t-39.5 -54.5t-15 -51.5q0 -23 16 -42t44 -19q38 0 65 27t27 66h172
q0 -73 -36 -135.5t-98.5 -100.5t-140.5 -38z" />
    <glyph glyph-name="Ecaron" unicode="&#x11a;" horiz-adv-x="1106" 
d="M120 0v1400h886v-276h-610v-236h476v-276h-476v-336h610v-276h-886zM398 1510l-194 288h184l165 -190l163 190h184l-190 -288h-312z" />
    <glyph glyph-name="ecaron" unicode="&#x11b;" 
d="M560 -26q-138 0 -251.5 71t-181 191t-67.5 265q0 109 39 204.5t107.5 168t159.5 113.5t194 41q119 0 217.5 -51t167 -139t98 -199t9.5 -231h-694q13 -44 40.5 -79.5t68 -56.5t93.5 -22q52 -1 96 24t75 67l282 -65q-61 -133 -182 -217.5t-271 -84.5zM348 612h425
q-13 50 -44 90t-74.5 63t-94.5 23q-50 0 -93.5 -23t-74 -62.5t-44.5 -90.5zM405 1110l-194 288h184l165 -190l163 190h184l-190 -288h-312z" />
    <glyph glyph-name="Gcircumflex" unicode="&#x11c;" horiz-adv-x="1536" 
d="M768 -26q-146 0 -271.5 57t-219 157.5t-145.5 232.5t-52 281q0 160 57 292t155 228.5t222.5 149t259.5 52.5q148 0 290 -69t254 -219l-246 -132q-64 74 -142.5 110t-159.5 36t-155.5 -33t-132.5 -94t-92 -144t-34 -183q0 -93 32.5 -174t89.5 -142t132.5 -95.5
t161.5 -34.5q53 0 104.5 15.5t98.5 45.5t86.5 75t69.5 104h-217v240h542q6 -155 -45 -292t-146 -241.5t-222 -163.5t-275 -59zM925 1798l194 -288h-184l-165 190l-163 -190h-184l190 288h312z" />
    <glyph glyph-name="gcircumflex" unicode="&#x11d;" horiz-adv-x="1242" 
d="M846 1000h276v-1014q0 -111 -45 -200.5t-122.5 -153.5t-178 -98t-212.5 -34q-106 0 -203 41.5t-172 114.5t-117 168l252 115q21 -50 57.5 -86t84 -55.5t98.5 -19.5q55 0 105.5 13t90.5 39t63 65t23 91v116q-46 -57 -111.5 -92.5t-151.5 -35.5q-108 0 -202.5 41
t-166.5 113.5t-113 167.5t-41 204t41 204t113 167.5t166.5 113.5t202.5 41q86 0 151.5 -35.5t111.5 -92.5v102zM587 239q68 0 123 35.5t86.5 94.5t31.5 131t-31.5 131.5t-86.5 94.5t-123 35q-67 0 -122.5 -35t-88.5 -94.5t-33 -131.5t33 -131.5t88.5 -94.5t122.5 -35z
M777 1398l194 -288h-184l-165 190l-163 -190h-184l190 288h312z" />
    <glyph glyph-name="Gbreve" unicode="&#x11e;" horiz-adv-x="1536" 
d="M768 -26q-146 0 -271.5 57t-219 157.5t-145.5 232.5t-52 281q0 160 57 292t155 228.5t222.5 149t259.5 52.5q148 0 290 -69t254 -219l-246 -132q-64 74 -142.5 110t-159.5 36t-155.5 -33t-132.5 -94t-92 -144t-34 -183q0 -93 32.5 -174t89.5 -142t132.5 -95.5
t161.5 -34.5q53 0 104.5 15.5t98.5 45.5t86.5 75t69.5 104h-217v240h542q6 -155 -45 -292t-146 -241.5t-222 -163.5t-275 -59zM770 1488q-91 0 -166.5 45t-120.5 120.5t-45 166.5h168q0 -45 22.5 -82t59.5 -59.5t82 -22.5t82.5 21.5t59.5 59t22 83.5h168q0 -93 -44.5 -168.5
t-120 -119.5t-167.5 -44z" />
    <glyph glyph-name="gbreve" unicode="&#x11f;" horiz-adv-x="1242" 
d="M846 1000h276v-1014q0 -111 -45 -200.5t-122.5 -153.5t-178 -98t-212.5 -34q-106 0 -203 41.5t-172 114.5t-117 168l252 115q21 -50 57.5 -86t84 -55.5t98.5 -19.5q55 0 105.5 13t90.5 39t63 65t23 91v116q-46 -57 -111.5 -92.5t-151.5 -35.5q-108 0 -202.5 41
t-166.5 113.5t-113 167.5t-41 204t41 204t113 167.5t166.5 113.5t202.5 41q86 0 151.5 -35.5t111.5 -92.5v102zM587 239q68 0 123 35.5t86.5 94.5t31.5 131t-31.5 131.5t-86.5 94.5t-123 35q-67 0 -122.5 -35t-88.5 -94.5t-33 -131.5t33 -131.5t88.5 -94.5t122.5 -35z
M621 1088q-91 0 -166.5 45t-120.5 120.5t-45 166.5h168q0 -45 22.5 -82t59.5 -59.5t82 -22.5t82.5 21.5t59.5 59t22 83.5h168q0 -93 -44.5 -168.5t-120 -119.5t-167.5 -44z" />
    <glyph glyph-name="Gdotaccent" unicode="&#x120;" horiz-adv-x="1536" 
d="M768 -26q-146 0 -271.5 57t-219 157.5t-145.5 232.5t-52 281q0 160 57 292t155 228.5t222.5 149t259.5 52.5q148 0 290 -69t254 -219l-246 -132q-64 74 -142.5 110t-159.5 36t-155.5 -33t-132.5 -94t-92 -144t-34 -183q0 -93 32.5 -174t89.5 -142t132.5 -95.5
t161.5 -34.5q53 0 104.5 15.5t98.5 45.5t86.5 75t69.5 104h-217v240h542q6 -155 -45 -292t-146 -241.5t-222 -163.5t-275 -59zM771 1515q-60 0 -101 40t-41 99t41 99t100 40t99.5 -40t40.5 -99t-39.5 -99t-99.5 -40z" />
    <glyph glyph-name="gdotaccent" unicode="&#x121;" horiz-adv-x="1242" 
d="M846 1000h276v-1014q0 -111 -45 -200.5t-122.5 -153.5t-178 -98t-212.5 -34q-106 0 -203 41.5t-172 114.5t-117 168l252 115q21 -50 57.5 -86t84 -55.5t98.5 -19.5q55 0 105.5 13t90.5 39t63 65t23 91v116q-46 -57 -111.5 -92.5t-151.5 -35.5q-108 0 -202.5 41
t-166.5 113.5t-113 167.5t-41 204t41 204t113 167.5t166.5 113.5t202.5 41q86 0 151.5 -35.5t111.5 -92.5v102zM587 239q68 0 123 35.5t86.5 94.5t31.5 131t-31.5 131.5t-86.5 94.5t-123 35q-67 0 -122.5 -35t-88.5 -94.5t-33 -131.5t33 -131.5t88.5 -94.5t122.5 -35z
M623 1115q-60 0 -101 40t-41 99t41 99t100 40t99.5 -40t40.5 -99t-39.5 -99t-99.5 -40z" />
    <glyph glyph-name="uni0122" unicode="&#x122;" horiz-adv-x="1536" 
d="M768 -26q-146 0 -271.5 57t-219 157.5t-145.5 232.5t-52 281q0 160 57 292t155 228.5t222.5 149t259.5 52.5q148 0 290 -69t254 -219l-246 -132q-64 74 -142.5 110t-159.5 36t-155.5 -33t-132.5 -94t-92 -144t-34 -183q0 -93 32.5 -174t89.5 -142t132.5 -95.5
t161.5 -34.5q53 0 104.5 15.5t98.5 45.5t86.5 75t69.5 104h-217v240h542q6 -155 -45 -292t-146 -241.5t-222 -163.5t-275 -59zM569 -441l62 338h276l-154 -338h-184z" />
    <glyph glyph-name="Hcircumflex" unicode="&#x124;" horiz-adv-x="1324" 
d="M928 1400h276v-1400h-276v612h-532v-612h-276v1400h276v-512h532v512zM817 1798l194 -288h-184l-165 190l-163 -190h-184l190 288h312z" />
    <glyph glyph-name="hcircumflex" unicode="&#x125;" horiz-adv-x="1129" 
d="M1049 636v-636h-276v560q0 53 -25.5 95.5t-68 67.5t-94.5 25t-95 -25t-68 -67.5t-25 -95.5v-560h-276l-1 1500h276l1 -574q50 48 117.5 75t142.5 27q109 0 197.5 -53t141.5 -141.5t53 -197.5zM776 1823l194 -288h-184l-165 190l-163 -190h-184l190 288h312z" />
    <glyph glyph-name="Itilde" unicode="&#x128;" horiz-adv-x="576" 
d="M150 0v1400h276v-1400h-276zM444 1497q-38 0 -90.5 27t-104 59t-88.5 51t-46 4q-9 -17 -8.5 -35.5t9.5 -49.5l-157 -43q-29 84 -16 152.5t61.5 108.5t127.5 40q36 0 84.5 -21.5t96.5 -49.5t85 -49.5t49 -21.5q20 0 24 12.5t-1.5 32t-12.5 37.5l161 52q29 -89 14 -158
t-64.5 -108.5t-123.5 -39.5z" />
    <glyph glyph-name="itilde" unicode="&#x129;" horiz-adv-x="516" 
d="M381 1078q-30 0 -71 21t-82 47t-70.5 41.5t-36.5 2.5t-6 -28t8 -40l-124 -34q-24 68 -13.5 122t49 86.5t99.5 32.5q29 0 67.5 -17.5t76.5 -40t67 -39.5t39 -17q23 0 19.5 21.5t-11.5 44.5l127 42q35 -107 -7.5 -176t-130.5 -69zM120 1000h276v-1000h-276v1000z" />
    <glyph glyph-name="Imacron" unicode="&#x12a;" horiz-adv-x="576" 
d="M150 0v1400h276v-1400h-276zM-50 1740h676v-204h-676v204z" />
    <glyph glyph-name="imacron" unicode="&#x12b;" horiz-adv-x="516" 
d="M-1 1340h517v-204h-517v204zM120 1000h276v-1000h-276v1000z" />
    <glyph glyph-name="Iogonek" unicode="&#x12e;" horiz-adv-x="576" 
d="M150 0v1400h276v-1400h-276zM303 -465q-76 0 -132.5 36t-87.5 94.5t-31 121.5q0 48 17.5 93.5t56.5 83.5l168 168l131 -132q-31 -31 -61.5 -60t-55 -57t-39.5 -54.5t-15 -51.5q0 -23 16 -42t44 -19q38 0 65 27t27 66h172q0 -73 -36 -135.5t-98.5 -100.5t-140.5 -38z" />
    <glyph glyph-name="iogonek" unicode="&#x12f;" horiz-adv-x="516" 
d="M120 1000h276v-1000h-276v1000zM260 1115q-60 0 -101 40t-41 99t41 99t100 40t99.5 -40t40.5 -99t-39.5 -99t-99.5 -40zM273 -465q-76 0 -132.5 36t-87.5 94.5t-31 121.5q0 48 17.5 93.5t56.5 83.5l168 168l131 -132q-31 -31 -61.5 -60t-55 -57t-39.5 -54.5t-15 -51.5
q0 -23 16 -42t44 -19q38 0 65 27t27 66h172q0 -73 -36 -135.5t-98.5 -100.5t-140.5 -38z" />
    <glyph glyph-name="Idotaccent" unicode="&#x130;" horiz-adv-x="576" 
d="M150 0v1400h276v-1400h-276zM290 1515q-60 0 -101 40t-41 99t41 99t100 40t99.5 -40t40.5 -99t-39.5 -99t-99.5 -40z" />
    <glyph glyph-name="dotlessi" unicode="&#x131;" horiz-adv-x="516" 
d="M120 1000h276v-1000h-276v1000z" />
    <glyph glyph-name="IJ" unicode="&#x132;" horiz-adv-x="1490" 
d="M150 0v1400h276v-1400h-276zM910 -26q-80 0 -156.5 27t-137.5 80l177 212q19 -15 48 -29t69 -14q51 0 92.5 25.5t66.5 68t25 92.5v964h276v-964q0 -127 -62 -231.5t-166.5 -167.5t-231.5 -63z" />
    <glyph glyph-name="ij" unicode="&#x133;" horiz-adv-x="1027" 
d="M120 1000h276v-1000h-276v1000zM260 1115q-60 0 -101 40t-41 99t41 99t100 40t99.5 -40t40.5 -99t-39.5 -99t-99.5 -40zM446 -500v276q51 0 93 24.5t67 66.5t25 93v1040h276v-1040q0 -127 -61.5 -231t-166 -166.5t-233.5 -62.5zM771 1115q-60 0 -101 40t-41 99t41 99
t100 40t99.5 -40t40.5 -99t-39.5 -99t-99.5 -40z" />
    <glyph glyph-name="Jcircumflex" unicode="&#x134;" horiz-adv-x="914" 
d="M334 -26q-80 0 -156.5 27t-137.5 80l177 212q19 -15 48 -29t69 -14q51 0 92.5 25.5t66.5 68t25 92.5v964h276v-964q0 -127 -62 -231.5t-166.5 -167.5t-231.5 -63zM812 1798l194 -288h-184l-165 190l-163 -190h-184l190 288h312z" />
    <glyph glyph-name="jcircumflex" unicode="&#x135;" horiz-adv-x="501" 
d="M-80 -500v276q51 0 93 24.5t67 66.5t25 93v1040h276v-1040q0 -127 -61.5 -231t-166 -166.5t-233.5 -62.5zM399 1398l194 -288h-184l-165 190l-163 -190h-184l190 288h312z" />
    <glyph glyph-name="uni0136" unicode="&#x136;" horiz-adv-x="1205" 
d="M1181 0h-360l-373 524l-52 -62v-462h-276v1400h276v-509l426 509h360l-554 -660zM403 -441l62 338h276l-154 -338h-184z" />
    <glyph glyph-name="uni0137" unicode="&#x137;" horiz-adv-x="1098" 
d="M1048 0h-318l-212 365l-122 -145v-220h-276v1500h276v-851l294 351h360l-343 -411zM347 -441l62 338h276l-154 -338h-184z" />
    <glyph glyph-name="Lacute" unicode="&#x139;" horiz-adv-x="1060" 
d="M120 0v1400h276v-1124h564v-276h-840zM185 1510l80 288h276l-172 -288h-184z" />
    <glyph glyph-name="lacute" unicode="&#x13a;" horiz-adv-x="516" 
d="M120 0v1500h276v-1500h-276zM185 1610l80 288h276l-172 -288h-184z" />
    <glyph glyph-name="uni013B" unicode="&#x13b;" horiz-adv-x="1060" 
d="M120 0v1400h276v-1124h564v-276h-840zM340 -441l62 338h276l-154 -338h-184z" />
    <glyph glyph-name="uni013C" unicode="&#x13c;" horiz-adv-x="516" 
d="M120 0v1500h276v-1500h-276zM58 -441l62 338h276l-154 -338h-184z" />
    <glyph glyph-name="Lcaron" unicode="&#x13d;" horiz-adv-x="1060" 
d="M120 0v1400h276v-1124h564v-276h-840zM589 1212l80 288h276l-172 -288h-184z" />
    <glyph glyph-name="lcaron" unicode="&#x13e;" horiz-adv-x="516" 
d="M120 0v1500h276v-1500h-276zM442 1212l80 288h276l-172 -288h-184z" />
    <glyph glyph-name="Nacute" unicode="&#x143;" horiz-adv-x="1360" 
d="M120 0v1400h298l546 -901v901h276v-1400h-298l-546 901v-901h-276zM607 1510l80 288h276l-172 -288h-184z" />
    <glyph glyph-name="nacute" unicode="&#x144;" horiz-adv-x="1129" 
d="M1049 636v-636h-276v560q0 53 -25.5 95.5t-68 67.5t-94.5 25t-95 -25t-68 -67.5t-25 -95.5v-560h-276l-1 1000h276l1 -74q50 48 117.5 75t142.5 27q109 0 197.5 -53t141.5 -141.5t53 -197.5zM530 1110l80 288h276l-172 -288h-184z" />
    <glyph glyph-name="uni0145" unicode="&#x145;" horiz-adv-x="1360" 
d="M120 0v1400h298l546 -901v901h276v-1400h-298l-546 901v-901h-276zM480 -441l62 338h276l-154 -338h-184z" />
    <glyph glyph-name="uni0146" unicode="&#x146;" horiz-adv-x="1129" 
d="M1049 636v-636h-276v560q0 53 -25.5 95.5t-68 67.5t-94.5 25t-95 -25t-68 -67.5t-25 -95.5v-560h-276l-1 1000h276l1 -74q50 48 117.5 75t142.5 27q109 0 197.5 -53t141.5 -141.5t53 -197.5zM385 -441l62 338h276l-154 -338h-184z" />
    <glyph glyph-name="Ncaron" unicode="&#x147;" horiz-adv-x="1360" 
d="M120 0v1400h298l546 -901v901h276v-1400h-298l-546 901v-901h-276zM525 1510l-194 288h184l165 -190l163 190h184l-190 -288h-312z" />
    <glyph glyph-name="ncaron" unicode="&#x148;" horiz-adv-x="1129" 
d="M1049 636v-636h-276v560q0 53 -25.5 95.5t-68 67.5t-94.5 25t-95 -25t-68 -67.5t-25 -95.5v-560h-276l-1 1000h276l1 -74q50 48 117.5 75t142.5 27q109 0 197.5 -53t141.5 -141.5t53 -197.5zM448 1110l-194 288h184l165 -190l163 190h184l-190 -288h-312z" />
    <glyph glyph-name="Omacron" unicode="&#x14c;" horiz-adv-x="1540" 
d="M770 -26q-142 0 -267 56.5t-220 156.5t-149 231.5t-54 281.5t54 281.5t149 231.5t220 156.5t267 56.5q143 0 268 -56.5t220 -156.5t148.5 -231.5t53.5 -281.5t-53.5 -281.5t-148.5 -231.5t-220 -156.5t-268 -56.5zM770 250q85 0 160 35.5t132 97.5t89.5 143t32.5 174
t-32.5 174.5t-89.5 143t-132 97t-160 35.5t-160 -35.5t-132 -97.5t-89.5 -143t-32.5 -174t32.5 -174.5t89.5 -143t132 -97t160 -35.5zM432 1740h676v-204h-676v204z" />
    <glyph glyph-name="omacron" unicode="&#x14d;" 
d="M560 -26q-138 0 -251.5 71t-181 190.5t-67.5 264.5q0 110 39 205.5t107.5 168t159.5 113.5t194 41q138 0 251.5 -71t181 -191t67.5 -266q0 -109 -39 -204t-107.5 -167.5t-159 -113.5t-194.5 -41zM560 250q64 0 115 34.5t80 91.5t29 124q0 69 -30.5 126.5t-81.5 91.5
t-112 34q-63 0 -114 -35t-80.5 -92t-29.5 -125q0 -71 30.5 -127.5t81.5 -89.5t112 -33zM222 1340h676v-204h-676v204z" />
    <glyph glyph-name="Ohungarumlaut" unicode="&#x150;" horiz-adv-x="1540" 
d="M770 -26q-142 0 -267 56.5t-220 156.5t-149 231.5t-54 281.5t54 281.5t149 231.5t220 156.5t267 56.5q143 0 268 -56.5t220 -156.5t148.5 -231.5t53.5 -281.5t-53.5 -281.5t-148.5 -231.5t-220 -156.5t-268 -56.5zM770 250q85 0 160 35.5t132 97.5t89.5 143t32.5 174
t-32.5 174.5t-89.5 143t-132 97t-160 35.5t-160 -35.5t-132 -97.5t-89.5 -143t-32.5 -174t32.5 -174.5t89.5 -143t132 -97t160 -35.5zM885 1510l80 288h276l-172 -288h-184zM531 1510l80 288h276l-172 -288h-184z" />
    <glyph glyph-name="ohungarumlaut" unicode="&#x151;" 
d="M560 -26q-138 0 -251.5 71t-181 190.5t-67.5 264.5q0 110 39 205.5t107.5 168t159.5 113.5t194 41q138 0 251.5 -71t181 -191t67.5 -266q0 -109 -39 -204t-107.5 -167.5t-159 -113.5t-194.5 -41zM560 250q64 0 115 34.5t80 91.5t29 124q0 69 -30.5 126.5t-81.5 91.5
t-112 34q-63 0 -114 -35t-80.5 -92t-29.5 -125q0 -71 30.5 -127.5t81.5 -89.5t112 -33zM675 1110l80 288h276l-172 -288h-184zM321 1110l80 288h276l-172 -288h-184z" />
    <glyph glyph-name="OE" unicode="&#x152;" horiz-adv-x="2107" 
d="M770 -26q-142 0 -267 56.5t-220 156.5t-149 231.5t-54 281.5t54 281.5t149 231.5t220 156.5t267 56.5q80 0 154.5 -19.5t141 -55t122.5 -85.5v134h819v-276h-543v-286h447v-276h-447v-286h543v-276h-819v134q-56 -49 -122.5 -85t-141 -55.5t-154.5 -19.5zM770 250
q85 0 160 35.5t132 97.5t89.5 143t32.5 174t-32.5 174.5t-89.5 143t-132 97t-160 35.5t-160 -35.5t-132 -97.5t-89.5 -143t-32.5 -174t32.5 -174.5t89.5 -143t132 -97t160 -35.5z" />
    <glyph glyph-name="oe" unicode="&#x153;" horiz-adv-x="1843" 
d="M560 -26q-138 0 -251.5 71t-181 190.5t-67.5 264.5q0 110 39 205.5t107.5 168t159.5 113.5t194 41q72 0 138 -21t123 -59t101 -90q44 52 101 90t123 59t138 21q118 0 216.5 -51t167 -138.5t98 -198.5t9.5 -231h-693q13 -45 40.5 -80.5t67.5 -56.5t94 -22q52 0 96 25
t75 67l281 -66q-60 -133 -181 -217.5t-271 -84.5q-72 0 -138 21t-123 59t-101 90q-44 -52 -101 -90t-123 -59t-138 -21zM560 250q64 0 115 34.5t80 91.5t29 124q0 69 -30.5 126.5t-81.5 91.5t-112 34q-63 0 -114 -35t-80.5 -92t-29.5 -125q0 -71 30.5 -127.5t81.5 -89.5
t112 -33zM1071 613h424q-13 50 -43.5 90t-73.5 62.5t-94 22.5q-50 0 -93.5 -22.5t-75 -62t-44.5 -90.5z" />
    <glyph glyph-name="Racute" unicode="&#x154;" horiz-adv-x="1243" 
d="M120 0v1400h556q114 0 206.5 -57.5t147 -154t54.5 -213.5q0 -92 -32 -170.5t-90 -137.5t-135 -92l333 -575h-318l-319 550h-127v-550h-276zM396 826h247q45 0 82.5 22.5t60 61t22.5 85.5q0 46 -22.5 84.5t-60 61.5t-82.5 23h-247v-338zM438 1510l80 288h276l-172 -288
h-184z" />
    <glyph glyph-name="racute" unicode="&#x155;" horiz-adv-x="787" 
d="M121 0l-1 1000h276l1 -74q50 48 117.5 75t142.5 27q55 0 110 -16l-109 -279q-36 15 -73 15q-52 0 -95 -25t-68 -67.5t-25 -95.5v-560h-276zM381 1110l80 288h276l-172 -288h-184z" />
    <glyph glyph-name="uni0156" unicode="&#x156;" horiz-adv-x="1243" 
d="M120 0v1400h556q114 0 206.5 -57.5t147 -154t54.5 -213.5q0 -92 -32 -170.5t-90 -137.5t-135 -92l333 -575h-318l-319 550h-127v-550h-276zM396 826h247q45 0 82.5 22.5t60 61t22.5 85.5q0 46 -22.5 84.5t-60 61.5t-82.5 23h-247v-338zM420 -441l62 338h276l-154 -338
h-184z" />
    <glyph glyph-name="uni0157" unicode="&#x157;" horiz-adv-x="787" 
d="M121 0l-1 1000h276l1 -74q50 48 117.5 75t142.5 27q55 0 110 -16l-109 -279q-36 15 -73 15q-52 0 -95 -25t-68 -67.5t-25 -95.5v-560h-276zM58 -441l62 338h276l-154 -338h-184z" />
    <glyph glyph-name="Rcaron" unicode="&#x158;" horiz-adv-x="1243" 
d="M120 0v1400h556q114 0 206.5 -57.5t147 -154t54.5 -213.5q0 -92 -32 -170.5t-90 -137.5t-135 -92l333 -575h-318l-319 550h-127v-550h-276zM396 826h247q45 0 82.5 22.5t60 61t22.5 85.5q0 46 -22.5 84.5t-60 61.5t-82.5 23h-247v-338zM356 1510l-194 288h184l165 -190
l163 190h184l-190 -288h-312z" />
    <glyph glyph-name="rcaron" unicode="&#x159;" horiz-adv-x="787" 
d="M121 0l-1 1000h276l1 -74q50 48 117.5 75t142.5 27q55 0 110 -16l-109 -279q-36 15 -73 15q-52 0 -95 -25t-68 -67.5t-25 -95.5v-560h-276zM299 1110l-194 288h184l165 -190l163 190h184l-190 -288h-312z" />
    <glyph glyph-name="Sacute" unicode="&#x15a;" horiz-adv-x="1257" 
d="M629 -26q-118 0 -225.5 37t-188 107t-115.5 166l259 96q12 -34 50 -63.5t95 -48t125 -18.5q65 0 122.5 19.5t93 54.5t35.5 82t-37 78t-95 49.5t-119 28.5q-151 22 -270.5 71.5t-188.5 137t-69 222.5q0 130 73.5 227t194 151t260.5 54q116 0 224 -37t188.5 -107
t115.5 -168l-259 -94q-12 34 -50 63t-95 47t-124 18q-64 1 -121.5 -19t-94 -55t-36.5 -80q0 -59 34.5 -89t91.5 -43t126 -23q142 -21 262 -74.5t192.5 -142t72.5 -215.5q0 -130 -73 -227t-193 -151t-261 -54zM556 1510l80 288h276l-172 -288h-184z" />
    <glyph glyph-name="sacute" unicode="&#x15b;" horiz-adv-x="872" 
d="M411 -18q-77 6 -148 32.5t-126.5 72t-86.5 109.5l232 100q11 -16 33 -34.5t53.5 -32.5t73.5 -14q31 0 60 7.5t47 25t18 46.5q0 32 -23 49t-55.5 25.5t-62.5 14.5q-92 16 -173.5 57.5t-132.5 107.5t-51 158q0 101 53 174.5t138 113.5t184 40q117 0 217 -49t161 -138
l-218 -129q-13 19 -33.5 36.5t-47 30t-56.5 14.5q-39 3 -71 -4.5t-50.5 -27.5t-18.5 -54q0 -33 29 -48.5t67 -23t67 -17.5q87 -28 163.5 -71.5t123.5 -106.5t44 -148q0 -99 -59 -173.5t-152.5 -113t-198.5 -29.5zM363 1110l80 288h276l-172 -288h-184z" />
    <glyph glyph-name="Scircumflex" unicode="&#x15c;" horiz-adv-x="1257" 
d="M629 -26q-118 0 -225.5 37t-188 107t-115.5 166l259 96q12 -34 50 -63.5t95 -48t125 -18.5q65 0 122.5 19.5t93 54.5t35.5 82t-37 78t-95 49.5t-119 28.5q-151 22 -270.5 71.5t-188.5 137t-69 222.5q0 130 73.5 227t194 151t260.5 54q116 0 224 -37t188.5 -107
t115.5 -168l-259 -94q-12 34 -50 63t-95 47t-124 18q-64 1 -121.5 -19t-94 -55t-36.5 -80q0 -59 34.5 -89t91.5 -43t126 -23q142 -21 262 -74.5t192.5 -142t72.5 -215.5q0 -130 -73 -227t-193 -151t-261 -54zM784 1798l194 -288h-184l-165 190l-163 -190h-184l190 288h312z
" />
    <glyph glyph-name="scircumflex" unicode="&#x15d;" horiz-adv-x="872" 
d="M411 -18q-77 6 -148 32.5t-126.5 72t-86.5 109.5l232 100q11 -16 33 -34.5t53.5 -32.5t73.5 -14q31 0 60 7.5t47 25t18 46.5q0 32 -23 49t-55.5 25.5t-62.5 14.5q-92 16 -173.5 57.5t-132.5 107.5t-51 158q0 101 53 174.5t138 113.5t184 40q117 0 217 -49t161 -138
l-218 -129q-13 19 -33.5 36.5t-47 30t-56.5 14.5q-39 3 -71 -4.5t-50.5 -27.5t-18.5 -54q0 -33 29 -48.5t67 -23t67 -17.5q87 -28 163.5 -71.5t123.5 -106.5t44 -148q0 -99 -59 -173.5t-152.5 -113t-198.5 -29.5zM591 1398l194 -288h-184l-165 190l-163 -190h-184l190 288
h312z" />
    <glyph glyph-name="Scedilla" unicode="&#x15e;" horiz-adv-x="1257" 
d="M629 -26q-118 0 -225.5 37t-188 107t-115.5 166l259 96q12 -34 50 -63.5t95 -48t125 -18.5q65 0 122.5 19.5t93 54.5t35.5 82t-37 78t-95 49.5t-119 28.5q-151 22 -270.5 71.5t-188.5 137t-69 222.5q0 130 73.5 227t194 151t260.5 54q116 0 224 -37t188.5 -107
t115.5 -168l-259 -94q-12 34 -50 63t-95 47t-124 18q-64 1 -121.5 -19t-94 -55t-36.5 -80q0 -59 34.5 -89t91.5 -43t126 -23q142 -21 262 -74.5t192.5 -142t72.5 -215.5q0 -130 -73 -227t-193 -151t-261 -54zM719 -379q-74 -19 -140.5 19t-85.5 111l136 37q5 -17 20.5 -26
t33.5 -5q17 5 26 20.5t5 33.5q-5 18 -20 25t-34 6l-138 -2l146 257l123 -71l-37 -63q34 -16 60 -45.5t36 -70.5q20 -74 -18.5 -140t-112.5 -86z" />
    <glyph glyph-name="scedilla" unicode="&#x15f;" horiz-adv-x="872" 
d="M411 -18q-77 6 -148 32.5t-126.5 72t-86.5 109.5l232 100q11 -16 33 -34.5t53.5 -32.5t73.5 -14q31 0 60 7.5t47 25t18 46.5q0 32 -23 49t-55.5 25.5t-62.5 14.5q-92 16 -173.5 57.5t-132.5 107.5t-51 158q0 101 53 174.5t138 113.5t184 40q117 0 217 -49t161 -138
l-218 -129q-13 19 -33.5 36.5t-47 30t-56.5 14.5q-39 3 -71 -4.5t-50.5 -27.5t-18.5 -54q0 -33 29 -48.5t67 -23t67 -17.5q87 -28 163.5 -71.5t123.5 -106.5t44 -148q0 -99 -59 -173.5t-152.5 -113t-198.5 -29.5zM503 -379q-74 -19 -140.5 19t-85.5 111l136 37
q5 -17 20.5 -26t33.5 -5q17 5 26 20.5t5 33.5q-5 18 -20 25t-34 6l-138 -2l146 257l123 -71l-37 -63q34 -16 60 -45.5t36 -70.5q20 -74 -18.5 -140t-112.5 -86z" />
    <glyph glyph-name="Scaron" unicode="&#x160;" horiz-adv-x="1257" 
d="M629 -26q-118 0 -225.5 37t-188 107t-115.5 166l259 96q12 -34 50 -63.5t95 -48t125 -18.5q65 0 122.5 19.5t93 54.5t35.5 82t-37 78t-95 49.5t-119 28.5q-151 22 -270.5 71.5t-188.5 137t-69 222.5q0 130 73.5 227t194 151t260.5 54q116 0 224 -37t188.5 -107
t115.5 -168l-259 -94q-12 34 -50 63t-95 47t-124 18q-64 1 -121.5 -19t-94 -55t-36.5 -80q0 -59 34.5 -89t91.5 -43t126 -23q142 -21 262 -74.5t192.5 -142t72.5 -215.5q0 -130 -73 -227t-193 -151t-261 -54zM474 1510l-194 288h184l165 -190l163 190h184l-190 -288h-312z
" />
    <glyph glyph-name="scaron" unicode="&#x161;" horiz-adv-x="872" 
d="M411 -18q-77 6 -148 32.5t-126.5 72t-86.5 109.5l232 100q11 -16 33 -34.5t53.5 -32.5t73.5 -14q31 0 60 7.5t47 25t18 46.5q0 32 -23 49t-55.5 25.5t-62.5 14.5q-92 16 -173.5 57.5t-132.5 107.5t-51 158q0 101 53 174.5t138 113.5t184 40q117 0 217 -49t161 -138
l-218 -129q-13 19 -33.5 36.5t-47 30t-56.5 14.5q-39 3 -71 -4.5t-50.5 -27.5t-18.5 -54q0 -33 29 -48.5t67 -23t67 -17.5q87 -28 163.5 -71.5t123.5 -106.5t44 -148q0 -99 -59 -173.5t-152.5 -113t-198.5 -29.5zM281 1110l-194 288h184l165 -190l163 190h184l-190 -288
h-312z" />
    <glyph glyph-name="uni0162" unicode="&#x162;" horiz-adv-x="1259" 
d="M1180 1400v-276h-412v-1124h-276v1124h-412v276h1100zM639 -379q-74 -19 -140.5 19t-85.5 111l136 37q5 -17 20.5 -26t33.5 -5q17 5 26 20.5t5 33.5q-5 18 -20 25t-34 6l-138 -2l146 257l123 -71l-37 -63q34 -16 60 -45.5t36 -70.5q20 -74 -18.5 -140t-112.5 -86z" />
    <glyph glyph-name="uni0163" unicode="&#x163;" horiz-adv-x="724" 
d="M664 724h-180v-724h-276v724h-138v276h138v314h276v-314h180v-276zM356 -379q-74 -19 -140.5 19t-85.5 111l136 37q5 -17 20.5 -26t33.5 -5q17 5 26 20.5t5 33.5q-5 18 -20 25t-34 6l-138 -2l146 257l123 -71l-37 -63q34 -16 60 -45.5t36 -70.5q20 -74 -18.5 -140
t-112.5 -86z" />
    <glyph glyph-name="Tcaron" unicode="&#x164;" horiz-adv-x="1259" 
d="M1180 1400v-276h-412v-1124h-276v1124h-412v276h1100zM475 1510l-194 288h184l165 -190l163 190h184l-190 -288h-312z" />
    <glyph glyph-name="tcaron" unicode="&#x165;" horiz-adv-x="724" 
d="M664 724h-180v-724h-276v724h-138v276h138v314h276v-314h180v-276zM535 1212l80 288h276l-172 -288h-184z" />
    <glyph glyph-name="Utilde" unicode="&#x168;" horiz-adv-x="1370" 
d="M686 -26q-168 0 -295.5 82t-199 220.5t-71.5 307.5v816h276v-816q0 -91 34 -167t99 -121.5t157 -45.5q93 0 157.5 45t97.5 121t33 168v816h276v-816q0 -127 -40.5 -237.5t-115.5 -194.5t-178.5 -131t-229.5 -47zM841 1497q-38 0 -90.5 27t-104 59t-88.5 51t-46 4
q-9 -17 -8.5 -35.5t9.5 -49.5l-157 -43q-29 84 -16 152.5t61.5 108.5t127.5 40q36 0 84.5 -21.5t96.5 -49.5t85 -49.5t49 -21.5q20 0 24 12.5t-1.5 32t-12.5 37.5l161 52q29 -89 14 -158t-64.5 -108.5t-123.5 -39.5z" />
    <glyph glyph-name="utilde" unicode="&#x169;" horiz-adv-x="1089" 
d="M80 366v634h276v-558q0 -53 25.5 -95.5t68.5 -67.5t94 -25q52 0 95 25t68 67.5t25 95.5v558h276l1 -1000h-276l-1 76q-50 -48 -117.5 -75t-142.5 -27q-108 0 -197 53t-142 141.5t-53 197.5zM735 1099q-38 0 -90.5 27t-104 59t-88.5 51t-46 4q-9 -17 -8.5 -35.5t9.5 -49.5
l-157 -43q-29 84 -16 152.5t61.5 108.5t127.5 40q36 0 84.5 -21.5t96.5 -49.5t85 -49.5t49 -21.5q20 0 24 12.5t-1.5 32t-12.5 37.5l161 52q29 -89 14 -158t-64.5 -108.5t-123.5 -39.5z" />
    <glyph glyph-name="Umacron" unicode="&#x16a;" horiz-adv-x="1370" 
d="M686 -26q-168 0 -295.5 82t-199 220.5t-71.5 307.5v816h276v-816q0 -91 34 -167t99 -121.5t157 -45.5q93 0 157.5 45t97.5 121t33 168v816h276v-816q0 -127 -40.5 -237.5t-115.5 -194.5t-178.5 -131t-229.5 -47zM347 1740h676v-204h-676v204z" />
    <glyph glyph-name="umacron" unicode="&#x16b;" horiz-adv-x="1089" 
d="M80 366v634h276v-558q0 -53 25.5 -95.5t68.5 -67.5t94 -25q52 0 95 25t68 67.5t25 95.5v558h276l1 -1000h-276l-1 76q-50 -48 -117.5 -75t-142.5 -27q-108 0 -197 53t-142 141.5t-53 197.5zM241 1342h676v-204h-676v204z" />
    <glyph glyph-name="Ubreve" unicode="&#x16c;" horiz-adv-x="1370" 
d="M686 -26q-168 0 -295.5 82t-199 220.5t-71.5 307.5v816h276v-816q0 -91 34 -167t99 -121.5t157 -45.5q93 0 157.5 45t97.5 121t33 168v816h276v-816q0 -127 -40.5 -237.5t-115.5 -194.5t-178.5 -131t-229.5 -47zM685 1488q-91 0 -166.5 45t-120.5 120.5t-45 166.5h168
q0 -45 22.5 -82t59.5 -59.5t82 -22.5t82.5 21.5t59.5 59t22 83.5h168q0 -93 -44.5 -168.5t-120 -119.5t-167.5 -44z" />
    <glyph glyph-name="ubreve" unicode="&#x16d;" horiz-adv-x="1089" 
d="M80 366v634h276v-558q0 -53 25.5 -95.5t68.5 -67.5t94 -25q52 0 95 25t68 67.5t25 95.5v558h276l1 -1000h-276l-1 76q-50 -48 -117.5 -75t-142.5 -27q-108 0 -197 53t-142 141.5t-53 197.5zM579 1090q-91 0 -166.5 45t-120.5 120.5t-45 166.5h168q0 -45 22.5 -82
t59.5 -59.5t82 -22.5t82.5 21.5t59.5 59t22 83.5h168q0 -93 -44.5 -168.5t-120 -119.5t-167.5 -44z" />
    <glyph glyph-name="Uring" unicode="&#x16e;" horiz-adv-x="1370" 
d="M686 -26q-168 0 -295.5 82t-199 220.5t-71.5 307.5v816h276v-816q0 -91 34 -167t99 -121.5t157 -45.5q93 0 157.5 45t97.5 121t33 168v816h276v-816q0 -127 -40.5 -237.5t-115.5 -194.5t-178.5 -131t-229.5 -47zM685 1460q-80 0 -137 58t-57 138q0 52 26 95.5t70 70
t98 26.5q80 0 137 -57t57 -135q0 -82 -57 -139t-137 -57zM685 1591q26 0 44.5 19t18.5 45q0 25 -18.5 43.5t-44.5 18.5q-27 0 -45 -18t-18 -43q0 -27 18 -46t45 -19z" />
    <glyph glyph-name="uring" unicode="&#x16f;" horiz-adv-x="1089" 
d="M80 366v634h276v-558q0 -53 25.5 -95.5t68.5 -67.5t94 -25q52 0 95 25t68 67.5t25 95.5v558h276l1 -1000h-276l-1 76q-50 -48 -117.5 -75t-142.5 -27q-108 0 -197 53t-142 141.5t-53 197.5zM579 1062q-80 0 -137 58t-57 138q0 52 26 95.5t70 70t98 26.5q80 0 137 -57
t57 -135q0 -82 -57 -139t-137 -57zM579 1193q26 0 44.5 19t18.5 45q0 25 -18.5 43.5t-44.5 18.5q-27 0 -45 -18t-18 -43q0 -27 18 -46t45 -19z" />
    <glyph glyph-name="Uhungarumlaut" unicode="&#x170;" horiz-adv-x="1370" 
d="M686 -26q-168 0 -295.5 82t-199 220.5t-71.5 307.5v816h276v-816q0 -91 34 -167t99 -121.5t157 -45.5q93 0 157.5 45t97.5 121t33 168v816h276v-816q0 -127 -40.5 -237.5t-115.5 -194.5t-178.5 -131t-229.5 -47zM800 1510l80 288h276l-172 -288h-184zM446 1510l80 288
h276l-172 -288h-184z" />
    <glyph glyph-name="uhungarumlaut" unicode="&#x171;" horiz-adv-x="1089" 
d="M80 366v634h276v-558q0 -53 25.5 -95.5t68.5 -67.5t94 -25q52 0 95 25t68 67.5t25 95.5v558h276l1 -1000h-276l-1 76q-50 -48 -117.5 -75t-142.5 -27q-108 0 -197 53t-142 141.5t-53 197.5zM694 1112l80 288h276l-172 -288h-184zM340 1112l80 288h276l-172 -288h-184z
" />
    <glyph glyph-name="Uogonek" unicode="&#x172;" horiz-adv-x="1370" 
d="M686 -26q-168 0 -295.5 82t-199 220.5t-71.5 307.5v816h276v-816q0 -91 34 -167t99 -121.5t157 -45.5q93 0 157.5 45t97.5 121t33 168v816h276v-816q0 -127 -40.5 -237.5t-115.5 -194.5t-178.5 -131t-229.5 -47zM726 -467q-76 0 -132.5 36t-87.5 94.5t-31 121.5
q0 48 17.5 93.5t56.5 83.5l168 168l131 -132q-31 -31 -61.5 -60t-55 -57t-39.5 -54.5t-15 -51.5q0 -23 16 -42t44 -19q38 0 65 27t27 66h172q0 -73 -36 -135.5t-98.5 -100.5t-140.5 -38z" />
    <glyph glyph-name="uogonek" unicode="&#x173;" horiz-adv-x="1089" 
d="M80 366v634h276v-558q0 -53 25.5 -95.5t68.5 -67.5t94 -25q52 0 95 25t68 67.5t25 95.5v558h276l1 -1000h-276l-1 76q-50 -48 -117.5 -75t-142.5 -27q-108 0 -197 53t-142 141.5t-53 197.5zM886 -463q-76 0 -132.5 36t-87.5 94.5t-31 121.5q0 48 17.5 93.5t56.5 83.5
l168 168l131 -132q-31 -31 -61.5 -60t-55 -57t-39.5 -54.5t-15 -51.5q0 -23 16 -42t44 -19q38 0 65 27t27 66h172q0 -73 -36 -135.5t-98.5 -100.5t-140.5 -38z" />
    <glyph glyph-name="Wcircumflex" unicode="&#x174;" horiz-adv-x="1919" 
d="M450 0l-358 1400h285l228 -895l228 895h253l228 -895l228 895h285l-356 -1400h-312l-199 778l-198 -778h-312zM1115 1798l194 -288h-184l-165 190l-163 -190h-184l190 288h312z" />
    <glyph glyph-name="wcircumflex" unicode="&#x175;" horiz-adv-x="1730" 
d="M666 0h-272l-334 1000h270l201 -599l199 599h270l199 -599l200 599h271l-335 -1000h-271l-199 600zM1020 1398l194 -288h-184l-165 190l-163 -190h-184l190 288h312z" />
    <glyph glyph-name="Ycircumflex" unicode="&#x176;" horiz-adv-x="1364" 
d="M978 1400h326l-484 -769v-631h-276v631l-484 769h326l296 -469zM838 1798l194 -288h-184l-165 190l-163 -190h-184l190 288h312z" />
    <glyph glyph-name="ycircumflex" unicode="&#x177;" horiz-adv-x="1180" 
d="M806 1000h294l-548 -1500h-292l180 500l-360 1000h302l196 -623zM745 1398l194 -288h-184l-165 190l-163 -190h-184l190 288h312z" />
    <glyph glyph-name="Ydieresis" unicode="&#x178;" horiz-adv-x="1364" 
d="M978 1400h326l-484 -769v-631h-276v631l-484 769h326l296 -469zM473 1467q-60 0 -101 39.5t-41 99.5q0 58 41 99t101 41q58 0 98.5 -41t40.5 -99q0 -60 -40.5 -99.5t-98.5 -39.5zM894 1467q-60 0 -101 39.5t-41 99.5q0 58 41 99t101 41q58 0 98.5 -41t40.5 -99
q0 -60 -40.5 -99.5t-98.5 -39.5z" />
    <glyph glyph-name="Zacute" unicode="&#x179;" horiz-adv-x="1292" 
d="M80 0v276l759 848h-759v276h1132v-276l-759 -848h759v-276h-1132zM573 1510l80 288h276l-172 -288h-184z" />
    <glyph glyph-name="zacute" unicode="&#x17a;" horiz-adv-x="1014" 
d="M934 724l-455 -448h455v-276h-854v276l455 448h-455v276h854v-276zM434 1110l80 288h276l-172 -288h-184z" />
    <glyph glyph-name="Zdotaccent" unicode="&#x17b;" horiz-adv-x="1292" 
d="M80 0v276l759 848h-759v276h1132v-276l-759 -848h759v-276h-1132zM648 1515q-60 0 -101 40t-41 99t41 99t100 40t99.5 -40t40.5 -99t-39.5 -99t-99.5 -40z" />
    <glyph glyph-name="zdotaccent" unicode="&#x17c;" horiz-adv-x="1014" 
d="M934 724l-455 -448h455v-276h-854v276l455 448h-455v276h854v-276zM509 1115q-60 0 -101 40t-41 99t41 99t100 40t99.5 -40t40.5 -99t-39.5 -99t-99.5 -40z" />
    <glyph glyph-name="Zcaron" unicode="&#x17d;" horiz-adv-x="1292" 
d="M80 0v276l759 848h-759v276h1132v-276l-759 -848h759v-276h-1132zM491 1510l-194 288h184l165 -190l163 190h184l-190 -288h-312z" />
    <glyph glyph-name="zcaron" unicode="&#x17e;" horiz-adv-x="1014" 
d="M934 724l-455 -448h455v-276h-854v276l455 448h-455v276h854v-276zM352 1110l-194 288h184l165 -190l163 190h184l-190 -288h-312z" />
    <glyph glyph-name="uni01CD" unicode="&#x1cd;" horiz-adv-x="1490" 
d="M588 1400h314l508 -1400h-293l-84 232h-576l-84 -232h-293zM558 508h374l-188 513zM590 1510l-194 288h184l165 -190l163 190h184l-190 -288h-312z" />
    <glyph glyph-name="uni01CE" unicode="&#x1ce;" horiz-adv-x="1210" 
d="M854 1000h276v-1000h-277l-13 104q-39 -58 -100 -94t-143 -36q-112 0 -209 42t-171 116t-115.5 171.5t-41.5 209.5q0 107 39 200t110 164t163.5 111t199.5 40q92 0 165.5 -39t128.5 -99zM590 239q68 0 123 35t87 94.5t32 131.5q0 73 -32 132t-87 94t-123 35
q-69 0 -125 -35t-89 -94.5t-33 -131.5t33.5 -131.5t89.5 -94.5t124 -35zM464 1110l-194 288h184l165 -190l163 190h184l-190 -288h-312z" />
    <glyph glyph-name="uni01CF" unicode="&#x1cf;" horiz-adv-x="576" 
d="M150 0v1400h276v-1400h-276zM133 1510l-194 288h184l165 -190l163 190h184l-190 -288h-312z" />
    <glyph glyph-name="uni01D0" unicode="&#x1d0;" horiz-adv-x="516" 
d="M120 1000h276v-1000h-276v1000zM103 1110l-194 288h184l165 -190l163 190h184l-190 -288h-312z" />
    <glyph glyph-name="uni01D1" unicode="&#x1d1;" horiz-adv-x="1540" 
d="M770 -26q-142 0 -267 56.5t-220 156.5t-149 231.5t-54 281.5t54 281.5t149 231.5t220 156.5t267 56.5q143 0 268 -56.5t220 -156.5t148.5 -231.5t53.5 -281.5t-53.5 -281.5t-148.5 -231.5t-220 -156.5t-268 -56.5zM770 250q85 0 160 35.5t132 97.5t89.5 143t32.5 174
t-32.5 174.5t-89.5 143t-132 97t-160 35.5t-160 -35.5t-132 -97.5t-89.5 -143t-32.5 -174t32.5 -174.5t89.5 -143t132 -97t160 -35.5zM615 1510l-194 288h184l165 -190l163 190h184l-190 -288h-312z" />
    <glyph glyph-name="uni01D2" unicode="&#x1d2;" 
d="M560 -26q-138 0 -251.5 71t-181 190.5t-67.5 264.5q0 110 39 205.5t107.5 168t159.5 113.5t194 41q138 0 251.5 -71t181 -191t67.5 -266q0 -109 -39 -204t-107.5 -167.5t-159 -113.5t-194.5 -41zM560 250q64 0 115 34.5t80 91.5t29 124q0 69 -30.5 126.5t-81.5 91.5
t-112 34q-63 0 -114 -35t-80.5 -92t-29.5 -125q0 -71 30.5 -127.5t81.5 -89.5t112 -33zM405 1110l-194 288h184l165 -190l163 190h184l-190 -288h-312z" />
    <glyph glyph-name="uni01D3" unicode="&#x1d3;" horiz-adv-x="1370" 
d="M686 -26q-168 0 -295.5 82t-199 220.5t-71.5 307.5v816h276v-816q0 -91 34 -167t99 -121.5t157 -45.5q93 0 157.5 45t97.5 121t33 168v816h276v-816q0 -127 -40.5 -237.5t-115.5 -194.5t-178.5 -131t-229.5 -47zM530 1510l-194 288h184l165 -190l163 190h184l-190 -288
h-312z" />
    <glyph glyph-name="uni01D4" unicode="&#x1d4;" horiz-adv-x="1089" 
d="M80 366v634h276v-558q0 -53 25.5 -95.5t68.5 -67.5t94 -25q52 0 95 25t68 67.5t25 95.5v558h276l1 -1000h-276l-1 76q-50 -48 -117.5 -75t-142.5 -27q-108 0 -197 53t-142 141.5t-53 197.5zM424 1112l-194 288h184l165 -190l163 190h184l-190 -288h-312z" />
    <glyph glyph-name="uni01D5" unicode="&#x1d5;" horiz-adv-x="1370" 
d="M686 -26q-168 0 -295.5 82t-199 220.5t-71.5 307.5v816h276v-816q0 -91 34 -167t99 -121.5t157 -45.5q93 0 157.5 45t97.5 121t33 168v816h276v-816q0 -127 -40.5 -237.5t-115.5 -194.5t-178.5 -131t-229.5 -47zM476 1467q-60 0 -101 39.5t-41 99.5q0 58 41 99t101 41
q58 0 98.5 -41t40.5 -99q0 -60 -40.5 -99.5t-98.5 -39.5zM897 1467q-60 0 -101 39.5t-41 99.5q0 58 41 99t101 41q58 0 98.5 -41t40.5 -99q0 -60 -40.5 -99.5t-98.5 -39.5zM347 2044h676v-204h-676v204z" />
    <glyph glyph-name="uni01D6" unicode="&#x1d6;" horiz-adv-x="1089" 
d="M80 366v634h276v-558q0 -53 25.5 -95.5t68.5 -67.5t94 -25q52 0 95 25t68 67.5t25 95.5v558h276l1 -1000h-276l-1 76q-50 -48 -117.5 -75t-142.5 -27q-108 0 -197 53t-142 141.5t-53 197.5zM370 1069q-60 0 -101 39.5t-41 99.5q0 58 41 99t101 41q58 0 98.5 -41t40.5 -99
q0 -60 -40.5 -99.5t-98.5 -39.5zM791 1069q-60 0 -101 39.5t-41 99.5q0 58 41 99t101 41q58 0 98.5 -41t40.5 -99q0 -60 -40.5 -99.5t-98.5 -39.5zM241 1646h676v-204h-676v204z" />
    <glyph glyph-name="uni01D7" unicode="&#x1d7;" horiz-adv-x="1370" 
d="M686 -26q-168 0 -295.5 82t-199 220.5t-71.5 307.5v816h276v-816q0 -91 34 -167t99 -121.5t157 -45.5q93 0 157.5 45t97.5 121t33 168v816h276v-816q0 -127 -40.5 -237.5t-115.5 -194.5t-178.5 -131t-229.5 -47zM476 1467q-60 0 -101 39.5t-41 99.5q0 58 41 99t101 41
q58 0 98.5 -41t40.5 -99q0 -60 -40.5 -99.5t-98.5 -39.5zM897 1467q-60 0 -101 39.5t-41 99.5q0 58 41 99t101 41q58 0 98.5 -41t40.5 -99q0 -60 -40.5 -99.5t-98.5 -39.5zM612 1814l80 288h276l-172 -288h-184z" />
    <glyph glyph-name="uni01D8" unicode="&#x1d8;" horiz-adv-x="1089" 
d="M80 366v634h276v-558q0 -53 25.5 -95.5t68.5 -67.5t94 -25q52 0 95 25t68 67.5t25 95.5v558h276l1 -1000h-276l-1 76q-50 -48 -117.5 -75t-142.5 -27q-108 0 -197 53t-142 141.5t-53 197.5zM370 1069q-60 0 -101 39.5t-41 99.5q0 58 41 99t101 41q58 0 98.5 -41t40.5 -99
q0 -60 -40.5 -99.5t-98.5 -39.5zM791 1069q-60 0 -101 39.5t-41 99.5q0 58 41 99t101 41q58 0 98.5 -41t40.5 -99q0 -60 -40.5 -99.5t-98.5 -39.5zM506 1416l80 288h276l-172 -288h-184z" />
    <glyph glyph-name="uni01D9" unicode="&#x1d9;" horiz-adv-x="1370" 
d="M686 -26q-168 0 -295.5 82t-199 220.5t-71.5 307.5v816h276v-816q0 -91 34 -167t99 -121.5t157 -45.5q93 0 157.5 45t97.5 121t33 168v816h276v-816q0 -127 -40.5 -237.5t-115.5 -194.5t-178.5 -131t-229.5 -47zM476 1467q-60 0 -101 39.5t-41 99.5q0 58 41 99t101 41
q58 0 98.5 -41t40.5 -99q0 -60 -40.5 -99.5t-98.5 -39.5zM897 1467q-60 0 -101 39.5t-41 99.5q0 58 41 99t101 41q58 0 98.5 -41t40.5 -99q0 -60 -40.5 -99.5t-98.5 -39.5zM530 1814l-194 288h184l165 -190l163 190h184l-190 -288h-312z" />
    <glyph glyph-name="uni01DA" unicode="&#x1da;" horiz-adv-x="1089" 
d="M80 366v634h276v-558q0 -53 25.5 -95.5t68.5 -67.5t94 -25q52 0 95 25t68 67.5t25 95.5v558h276l1 -1000h-276l-1 76q-50 -48 -117.5 -75t-142.5 -27q-108 0 -197 53t-142 141.5t-53 197.5zM370 1069q-60 0 -101 39.5t-41 99.5q0 58 41 99t101 41q58 0 98.5 -41t40.5 -99
q0 -60 -40.5 -99.5t-98.5 -39.5zM791 1069q-60 0 -101 39.5t-41 99.5q0 58 41 99t101 41q58 0 98.5 -41t40.5 -99q0 -60 -40.5 -99.5t-98.5 -39.5zM424 1416l-194 288h184l165 -190l163 190h184l-190 -288h-312z" />
    <glyph glyph-name="uni01DB" unicode="&#x1db;" horiz-adv-x="1370" 
d="M686 -26q-168 0 -295.5 82t-199 220.5t-71.5 307.5v816h276v-816q0 -91 34 -167t99 -121.5t157 -45.5q93 0 157.5 45t97.5 121t33 168v816h276v-816q0 -127 -40.5 -237.5t-115.5 -194.5t-178.5 -131t-229.5 -47zM476 1467q-60 0 -101 39.5t-41 99.5q0 58 41 99t101 41
q58 0 98.5 -41t40.5 -99q0 -60 -40.5 -99.5t-98.5 -39.5zM897 1467q-60 0 -101 39.5t-41 99.5q0 58 41 99t101 41q58 0 98.5 -41t40.5 -99q0 -60 -40.5 -99.5t-98.5 -39.5zM403 2102h276l80 -288h-184z" />
    <glyph glyph-name="uni01DC" unicode="&#x1dc;" horiz-adv-x="1089" 
d="M80 366v634h276v-558q0 -53 25.5 -95.5t68.5 -67.5t94 -25q52 0 95 25t68 67.5t25 95.5v558h276l1 -1000h-276l-1 76q-50 -48 -117.5 -75t-142.5 -27q-108 0 -197 53t-142 141.5t-53 197.5zM370 1069q-60 0 -101 39.5t-41 99.5q0 58 41 99t101 41q58 0 98.5 -41t40.5 -99
q0 -60 -40.5 -99.5t-98.5 -39.5zM791 1069q-60 0 -101 39.5t-41 99.5q0 58 41 99t101 41q58 0 98.5 -41t40.5 -99q0 -60 -40.5 -99.5t-98.5 -39.5zM297 1704h276l80 -288h-184z" />
    <glyph glyph-name="uni01DE" unicode="&#x1de;" horiz-adv-x="1490" 
d="M588 1400h314l508 -1400h-293l-84 232h-576l-84 -232h-293zM558 508h374l-188 513zM536 1467q-60 0 -101 39.5t-41 99.5q0 58 41 99t101 41q58 0 98.5 -41t40.5 -99q0 -60 -40.5 -99.5t-98.5 -39.5zM957 1467q-60 0 -101 39.5t-41 99.5q0 58 41 99t101 41q58 0 98.5 -41
t40.5 -99q0 -60 -40.5 -99.5t-98.5 -39.5zM407 2044h676v-204h-676v204z" />
    <glyph glyph-name="uni01DF" unicode="&#x1df;" horiz-adv-x="1210" 
d="M854 1000h276v-1000h-277l-13 104q-39 -58 -100 -94t-143 -36q-112 0 -209 42t-171 116t-115.5 171.5t-41.5 209.5q0 107 39 200t110 164t163.5 111t199.5 40q92 0 165.5 -39t128.5 -99zM590 239q68 0 123 35t87 94.5t32 131.5q0 73 -32 132t-87 94t-123 35
q-69 0 -125 -35t-89 -94.5t-33 -131.5t33.5 -131.5t89.5 -94.5t124 -35zM410 1067q-60 0 -101 39.5t-41 99.5q0 58 41 99t101 41q58 0 98.5 -41t40.5 -99q0 -60 -40.5 -99.5t-98.5 -39.5zM831 1067q-60 0 -101 39.5t-41 99.5q0 58 41 99t101 41q58 0 98.5 -41t40.5 -99
q0 -60 -40.5 -99.5t-98.5 -39.5zM281 1644h676v-204h-676v204z" />
    <glyph glyph-name="uni01E2" unicode="&#x1e2;" horiz-adv-x="1696" 
d="M80 0l508 1400h1008v-276h-470v-286h374v-276h-374v-286h470v-276h-746v232h-393l-84 -232h-293zM558 508h292v616h-68zM754 1740h676v-204h-676v204z" />
    <glyph glyph-name="uni01E3" unicode="&#x1e3;" horiz-adv-x="1714" 
d="M364 -26q-96 0 -171.5 44t-119 116.5t-43.5 158.5q0 85 43.5 157.5t119 117t171.5 44.5h280q-10 40 -33.5 71.5t-60 50t-83.5 18.5q-79 0 -143 -40l-152 229q65 44 139.5 65.5t152.5 21.5q100 0 189.5 -40t152.5 -114q45 47 99.5 81.5t118 53.5t131.5 19q119 0 217.5 -51
t166.5 -139t97.5 -199t9.5 -231h-694q14 -45 41.5 -80.5t69 -56.5t94.5 -21q52 0 95.5 25t73.5 66l281 -65q-60 -133 -181 -217.5t-271 -84.5q-77 0 -146.5 23.5t-129 66t-104.5 99.5q-36 -49 -99 -91.5t-143 -70t-169 -27.5zM364 214q65 0 118.5 24.5t91.5 67.5
q41 42 69 102h-279q-40 0 -67 -27.5t-27 -66.5q0 -38 27 -69t67 -31zM942 612h425q-12 50 -43.5 90t-75 63t-93.5 23t-93.5 -23t-74.5 -62.5t-45 -90.5zM468 1342h676v-204h-676v204z" />
    <glyph glyph-name="Gcaron" unicode="&#x1e6;" horiz-adv-x="1536" 
d="M768 -26q-146 0 -271.5 57t-219 157.5t-145.5 232.5t-52 281q0 160 57 292t155 228.5t222.5 149t259.5 52.5q148 0 290 -69t254 -219l-246 -132q-64 74 -142.5 110t-159.5 36t-155.5 -33t-132.5 -94t-92 -144t-34 -183q0 -93 32.5 -174t89.5 -142t132.5 -95.5
t161.5 -34.5q53 0 104.5 15.5t98.5 45.5t86.5 75t69.5 104h-217v240h542q6 -155 -45 -292t-146 -241.5t-222 -163.5t-275 -59zM614 1510l-194 288h184l165 -190l163 190h184l-190 -288h-312z" />
    <glyph glyph-name="gcaron" unicode="&#x1e7;" horiz-adv-x="1242" 
d="M846 1000h276v-1014q0 -111 -45 -200.5t-122.5 -153.5t-178 -98t-212.5 -34q-106 0 -203 41.5t-172 114.5t-117 168l252 115q21 -50 57.5 -86t84 -55.5t98.5 -19.5q55 0 105.5 13t90.5 39t63 65t23 91v116q-46 -57 -111.5 -92.5t-151.5 -35.5q-108 0 -202.5 41
t-166.5 113.5t-113 167.5t-41 204t41 204t113 167.5t166.5 113.5t202.5 41q86 0 151.5 -35.5t111.5 -92.5v102zM587 239q68 0 123 35.5t86.5 94.5t31.5 131t-31.5 131.5t-86.5 94.5t-123 35q-67 0 -122.5 -35t-88.5 -94.5t-33 -131.5t33 -131.5t88.5 -94.5t122.5 -35z
M466 1110l-194 288h184l165 -190l163 190h184l-190 -288h-312z" />
    <glyph glyph-name="uni01E8" unicode="&#x1e8;" horiz-adv-x="1205" 
d="M1181 0h-360l-373 524l-52 -62v-462h-276v1400h276v-509l426 509h360l-554 -660zM448 1510l-194 288h184l165 -190l163 190h184l-190 -288h-312z" />
    <glyph glyph-name="uni01E9" unicode="&#x1e9;" horiz-adv-x="1098" 
d="M1048 0h-318l-212 365l-122 -145v-220h-276v1500h276v-851l294 351h360l-343 -411zM513 1510l-194 288h184l165 -190l163 190h184l-190 -288h-312z" />
    <glyph glyph-name="uni0218" unicode="&#x218;" horiz-adv-x="1257" 
d="M629 -26q-118 0 -225.5 37t-188 107t-115.5 166l259 96q12 -34 50 -63.5t95 -48t125 -18.5q65 0 122.5 19.5t93 54.5t35.5 82t-37 78t-95 49.5t-119 28.5q-151 22 -270.5 71.5t-188.5 137t-69 222.5q0 130 73.5 227t194 151t260.5 54q116 0 224 -37t188.5 -107
t115.5 -168l-259 -94q-12 34 -50 63t-95 47t-124 18q-64 1 -121.5 -19t-94 -55t-36.5 -80q0 -59 34.5 -89t91.5 -43t126 -23q142 -21 262 -74.5t192.5 -142t72.5 -215.5q0 -130 -73 -227t-193 -151t-261 -54zM510 -441l62 338h276l-154 -338h-184z" />
    <glyph glyph-name="uni0219" unicode="&#x219;" horiz-adv-x="872" 
d="M411 -18q-77 6 -148 32.5t-126.5 72t-86.5 109.5l232 100q11 -16 33 -34.5t53.5 -32.5t73.5 -14q31 0 60 7.5t47 25t18 46.5q0 32 -23 49t-55.5 25.5t-62.5 14.5q-92 16 -173.5 57.5t-132.5 107.5t-51 158q0 101 53 174.5t138 113.5t184 40q117 0 217 -49t161 -138
l-218 -129q-13 19 -33.5 36.5t-47 30t-56.5 14.5q-39 3 -71 -4.5t-50.5 -27.5t-18.5 -54q0 -33 29 -48.5t67 -23t67 -17.5q87 -28 163.5 -71.5t123.5 -106.5t44 -148q0 -99 -59 -173.5t-152.5 -113t-198.5 -29.5zM293 -441l62 338h276l-154 -338h-184z" />
    <glyph glyph-name="uni021A" unicode="&#x21a;" horiz-adv-x="1259" 
d="M1180 1400v-276h-412v-1124h-276v1124h-412v276h1100zM430 -441l62 338h276l-154 -338h-184z" />
    <glyph glyph-name="uni021B" unicode="&#x21b;" horiz-adv-x="724" 
d="M664 724h-180v-724h-276v724h-138v276h138v314h276v-314h180v-276zM146 -441l62 338h276l-154 -338h-184z" />
    <glyph glyph-name="uni022A" unicode="&#x22a;" horiz-adv-x="1540" 
d="M770 -26q-142 0 -267 56.5t-220 156.5t-149 231.5t-54 281.5t54 281.5t149 231.5t220 156.5t267 56.5q143 0 268 -56.5t220 -156.5t148.5 -231.5t53.5 -281.5t-53.5 -281.5t-148.5 -231.5t-220 -156.5t-268 -56.5zM770 250q85 0 160 35.5t132 97.5t89.5 143t32.5 174
t-32.5 174.5t-89.5 143t-132 97t-160 35.5t-160 -35.5t-132 -97.5t-89.5 -143t-32.5 -174t32.5 -174.5t89.5 -143t132 -97t160 -35.5zM561 1467q-60 0 -101 39.5t-41 99.5q0 58 41 99t101 41q58 0 98.5 -41t40.5 -99q0 -60 -40.5 -99.5t-98.5 -39.5zM982 1467
q-60 0 -101 39.5t-41 99.5q0 58 41 99t101 41q58 0 98.5 -41t40.5 -99q0 -60 -40.5 -99.5t-98.5 -39.5zM432 2044h676v-204h-676v204z" />
    <glyph glyph-name="uni022B" unicode="&#x22b;" 
d="M560 -26q-138 0 -251.5 71t-181 190.5t-67.5 264.5q0 110 39 205.5t107.5 168t159.5 113.5t194 41q138 0 251.5 -71t181 -191t67.5 -266q0 -109 -39 -204t-107.5 -167.5t-159 -113.5t-194.5 -41zM560 250q64 0 115 34.5t80 91.5t29 124q0 69 -30.5 126.5t-81.5 91.5
t-112 34q-63 0 -114 -35t-80.5 -92t-29.5 -125q0 -71 30.5 -127.5t81.5 -89.5t112 -33zM351 1067q-60 0 -101 39.5t-41 99.5q0 58 41 99t101 41q58 0 98.5 -41t40.5 -99q0 -60 -40.5 -99.5t-98.5 -39.5zM772 1067q-60 0 -101 39.5t-41 99.5q0 58 41 99t101 41q58 0 98.5 -41
t40.5 -99q0 -60 -40.5 -99.5t-98.5 -39.5zM222 1644h676v-204h-676v204z" />
    <glyph glyph-name="uni0232" unicode="&#x232;" horiz-adv-x="1364" 
d="M978 1400h326l-484 -769v-631h-276v631l-484 769h326l296 -469zM344 1740h676v-204h-676v204z" />
    <glyph glyph-name="uni0233" unicode="&#x233;" horiz-adv-x="1180" 
d="M806 1000h294l-548 -1500h-292l180 500l-360 1000h302l196 -623zM252 1340h676v-204h-676v204z" />
    <glyph glyph-name="uni0237" unicode="&#x237;" horiz-adv-x="501" 
d="M-80 -500v276q51 0 93 24.5t67 66.5t25 93v1040h276v-1040q0 -127 -61.5 -231t-166 -166.5t-233.5 -62.5z" />
    <glyph glyph-name="quoteleft" unicode="&#x2bb;" horiz-adv-x="438" 
d="M60 878l154 522h184l-62 -522h-276z" />
    <glyph glyph-name="quoteleft" unicode="&#x2018;" horiz-adv-x="438" 
d="M60 878l154 522h184l-62 -522h-276z" />
    <glyph glyph-name="uni02BC" unicode="&#x2bc;" horiz-adv-x="572" 
d="M40 878l62 522h276l-154 -522h-184z" />
    <glyph glyph-name="circumflex" unicode="&#x2c6;" horiz-adv-x="727" 
d="M518 1398l194 -288h-184l-165 190l-163 -190h-184l190 288h312z" />
    <glyph glyph-name="caron" unicode="&#x2c7;" horiz-adv-x="688" 
d="M190 1110l-194 288h184l165 -190l163 190h184l-190 -288h-312z" />
    <glyph glyph-name="breve" unicode="&#x2d8;" horiz-adv-x="1144" 
d="M572 1088q-91 0 -166.5 45t-120.5 120.5t-45 166.5h168q0 -45 22.5 -82t59.5 -59.5t82 -22.5t82.5 21.5t59.5 59t22 83.5h168q0 -93 -44.5 -168.5t-120 -119.5t-167.5 -44z" />
    <glyph glyph-name="dotaccent" unicode="&#x2d9;" horiz-adv-x="1081" 
d="M542 1115q-60 0 -101 40t-41 99t41 99t100 40t99.5 -40t40.5 -99t-39.5 -99t-99.5 -40z" />
    <glyph glyph-name="ring" unicode="&#x2da;" horiz-adv-x="1188" 
d="M594 1060q-80 0 -137 58t-57 138q0 52 26 95.5t70 70t98 26.5q80 0 137 -57t57 -135q0 -82 -57 -139t-137 -57zM594 1191q26 0 44.5 19t18.5 45q0 25 -18.5 43.5t-44.5 18.5q-27 0 -45 -18t-18 -43q0 -27 18 -46t45 -19z" />
    <glyph glyph-name="ogonek" unicode="&#x2db;" horiz-adv-x="1126" 
d="M551 -465q-76 0 -132.5 36t-87.5 94.5t-31 121.5q0 48 17.5 93.5t56.5 83.5l168 168l131 -132q-31 -31 -61.5 -60t-55 -57t-39.5 -54.5t-15 -51.5q0 -23 16 -42t44 -19q38 0 65 27t27 66h172q0 -73 -36 -135.5t-98.5 -100.5t-140.5 -38z" />
    <glyph glyph-name="tilde" unicode="&#x2dc;" horiz-adv-x="1267" 
d="M803 1099q-38 0 -90.5 27t-104 59t-88.5 51t-46 4q-9 -17 -8.5 -35.5t9.5 -49.5l-157 -43q-29 84 -16 152.5t61.5 108.5t127.5 40q36 0 84.5 -21.5t96.5 -49.5t85 -49.5t49 -21.5q20 0 24 12.5t-1.5 32t-12.5 37.5l161 52q29 -89 14 -158t-64.5 -108.5t-123.5 -39.5z" />
    <glyph glyph-name="hungarumlaut" unicode="&#x2dd;" horiz-adv-x="1109" 
d="M554 1110l80 288h276l-172 -288h-184zM200 1110l80 288h276l-172 -288h-184z" />
    <glyph glyph-name="gravecomb" unicode="&#x300;" horiz-adv-x="0" 
d="M308 1398h276l80 -288h-184z" />
    <glyph glyph-name="acutecomb" unicode="&#x301;" horiz-adv-x="0" 
d="M452 1110l80 288h276l-172 -288h-184z" />
    <glyph glyph-name="uni0302" unicode="&#x302;" horiz-adv-x="0" 
d="M518 1398l194 -288h-184l-165 190l-163 -190h-184l190 288h312z" />
    <glyph glyph-name="tildecomb" unicode="&#x303;" horiz-adv-x="0" 
d="M805 1097q-38 0 -90.5 27t-104 59t-88.5 51t-46 4q-9 -17 -8.5 -35.5t9.5 -49.5l-157 -43q-29 84 -16 152.5t61.5 108.5t127.5 40q36 0 84.5 -21.5t96.5 -49.5t85 -49.5t49 -21.5q20 0 24 12.5t-1.5 32t-12.5 37.5l161 52q29 -89 14 -158t-64.5 -108.5t-123.5 -39.5z" />
    <glyph glyph-name="uni0304" unicode="&#x304;" horiz-adv-x="0" 
d="M262 1340h676v-204h-676v204z" />
    <glyph glyph-name="uni0306" unicode="&#x306;" horiz-adv-x="0" 
d="M572 1088q-91 0 -166.5 45t-120.5 120.5t-45 166.5h168q0 -45 22.5 -82t59.5 -59.5t82 -22.5t82.5 21.5t59.5 59t22 83.5h168q0 -93 -44.5 -168.5t-120 -119.5t-167.5 -44z" />
    <glyph glyph-name="uni0307" unicode="&#x307;" horiz-adv-x="0" 
d="M542 1115q-60 0 -101 40t-41 99t41 99t100 40t99.5 -40t40.5 -99t-39.5 -99t-99.5 -40z" />
    <glyph glyph-name="uni0308" unicode="&#x308;" horiz-adv-x="0" 
d="M542 1067q-60 0 -101 39.5t-41 99.5q0 58 41 99t101 41q58 0 98.5 -41t40.5 -99q0 -60 -40.5 -99.5t-98.5 -39.5zM963 1067q-60 0 -101 39.5t-41 99.5q0 58 41 99t101 41q58 0 98.5 -41t40.5 -99q0 -60 -40.5 -99.5t-98.5 -39.5z" />
    <glyph glyph-name="uni030A" unicode="&#x30a;" horiz-adv-x="0" 
d="M594 1060q-80 0 -137 58t-57 138q0 52 26 95.5t70 70t98 26.5q80 0 137 -57t57 -135q0 -82 -57 -139t-137 -57zM594 1191q26 0 44.5 19t18.5 45q0 25 -18.5 43.5t-44.5 18.5q-27 0 -45 -18t-18 -43q0 -27 18 -46t45 -19z" />
    <glyph glyph-name="uni030B" unicode="&#x30b;" horiz-adv-x="0" 
d="M554 1110l80 288h276l-172 -288h-184zM200 1110l80 288h276l-172 -288h-184z" />
    <glyph glyph-name="uni030C" unicode="&#x30c;" horiz-adv-x="0" 
d="M190 1110l-194 288h184l165 -190l163 190h184l-190 -288h-312z" />
    <glyph glyph-name="dotbelowcomb" unicode="&#x323;" horiz-adv-x="0" 
d="M542 -454q-60 0 -101 40t-41 99t41 99t100 40t99.5 -40t40.5 -99t-39.5 -99t-99.5 -40z" />
    <glyph glyph-name="uni0326" unicode="&#x326;" horiz-adv-x="0" 
d="M400 -441l62 338h276l-154 -338h-184z" />
    <glyph glyph-name="uni0327" unicode="&#x327;" horiz-adv-x="0" 
d="M628 -379q-74 -19 -140.5 19t-85.5 111l136 37q5 -17 20.5 -26t33.5 -5q17 5 26 20.5t5 33.5q-5 18 -20 25t-34 6l-138 -2l146 257l123 -71l-37 -63q34 -16 60 -45.5t36 -70.5q20 -74 -18.5 -140t-112.5 -86z" />
    <glyph glyph-name="uni0328" unicode="&#x328;" horiz-adv-x="0" 
d="M551 -465q-76 0 -132.5 36t-87.5 94.5t-31 121.5q0 48 17.5 93.5t56.5 83.5l168 168l131 -132q-31 -31 -61.5 -60t-55 -57t-39.5 -54.5t-15 -51.5q0 -23 16 -42t44 -19q38 0 65 27t27 66h172q0 -73 -36 -135.5t-98.5 -100.5t-140.5 -38z" />
    <glyph glyph-name="uni03BC" unicode="&#x3bc;" horiz-adv-x="1158" 
d="M80 -432v1432h276v-505q0 -71 29 -129t81.5 -92.5t121.5 -34.5t116.5 34.5t72.5 92.5t25 129v505h276v-1000h-276v103q-47 -57 -112.5 -94t-149.5 -37q-53 0 -98.5 13.5t-85.5 35.5v-453h-276z" />
    <glyph glyph-name="uni1E04" unicode="&#x1e04;" horiz-adv-x="1192" 
d="M120 0v1400h521q113 0 205 -46.5t145.5 -132.5t53.5 -202q0 -47 -12.5 -97t-42 -92t-80.5 -64q66 -16 106 -59.5t61 -100t28 -115.5t7 -107q0 -108 -56 -195t-150.5 -138t-208.5 -51h-577zM396 235h272q55 0 100 26.5t72 73t27 105.5q0 50 -27 95t-72 73.5t-100 28.5
h-272v-402zM396 867h213q66 0 113 43t47 111q0 70 -47 106.5t-113 36.5h-213v-297zM598 -454q-60 0 -101 40t-41 99t41 99t100 40t99.5 -40t40.5 -99t-39.5 -99t-99.5 -40z" />
    <glyph glyph-name="uni1E05" unicode="&#x1e05;" horiz-adv-x="1251" 
d="M664 1028q146 0 265.5 -71t190.5 -190.5t71 -264.5q0 -109 -41 -205t-113.5 -168.5t-168 -113.5t-204.5 -41q-86 0 -153 38t-115 96v-108h-276v1500h276v-606q48 59 115 96.5t153 37.5zM660 241q69 0 125.5 35t89.5 94.5t33 131.5t-33.5 131t-90 94.5t-124.5 35.5
t-122.5 -35.5t-86 -95t-31.5 -130.5q0 -73 31.5 -132t86 -94t122.5 -35zM627 -454q-60 0 -101 40t-41 99t41 99t100 40t99.5 -40t40.5 -99t-39.5 -99t-99.5 -40z" />
    <glyph glyph-name="uni1E0C" unicode="&#x1e0c;" horiz-adv-x="1343" 
d="M120 0v1400h464q145 0 271.5 -54.5t223 -151t151 -223t54.5 -271.5t-54.5 -271.5t-151 -223t-223 -151t-271.5 -54.5h-464zM396 276h188q86 0 162.5 33t135.5 91t92.5 135t33.5 165t-33.5 164.5t-92 135t-135 91.5t-163.5 33h-188v-848zM656 -454q-60 0 -101 40t-41 99
t41 99t100 40t99.5 -40t40.5 -99t-39.5 -99t-99.5 -40z" />
    <glyph glyph-name="uni1E0D" unicode="&#x1e0d;" horiz-adv-x="1251" 
d="M855 1500h276v-1500h-276v106q-46 -58 -114 -95t-155 -37q-109 0 -204 41t-167.5 113.5t-113.5 167.5t-41 204t41 204t113.5 167.5t167.5 113.5t204 41q87 0 155 -36.5t114 -95.5v606zM590 239q68 0 123 35t87 94.5t32 131.5q0 73 -32 132t-87 94t-123 35q-69 0 -125 -35
t-89 -94.5t-33 -131.5t33.5 -131.5t89.5 -94.5t124 -35zM620 -454q-60 0 -101 40t-41 99t41 99t100 40t99.5 -40t40.5 -99t-39.5 -99t-99.5 -40z" />
    <glyph glyph-name="uni1E20" unicode="&#x1e20;" horiz-adv-x="1536" 
d="M768 -26q-146 0 -271.5 57t-219 157.5t-145.5 232.5t-52 281q0 160 57 292t155 228.5t222.5 149t259.5 52.5q148 0 290 -69t254 -219l-246 -132q-64 74 -142.5 110t-159.5 36t-155.5 -33t-132.5 -94t-92 -144t-34 -183q0 -93 32.5 -174t89.5 -142t132.5 -95.5
t161.5 -34.5q53 0 104.5 15.5t98.5 45.5t86.5 75t69.5 104h-217v240h542q6 -155 -45 -292t-146 -241.5t-222 -163.5t-275 -59zM432 1740h676v-204h-676v204z" />
    <glyph glyph-name="uni1E21" unicode="&#x1e21;" horiz-adv-x="1242" 
d="M846 1000h276v-1014q0 -111 -45 -200.5t-122.5 -153.5t-178 -98t-212.5 -34q-106 0 -203 41.5t-172 114.5t-117 168l252 115q21 -50 57.5 -86t84 -55.5t98.5 -19.5q55 0 105.5 13t90.5 39t63 65t23 91v116q-46 -57 -111.5 -92.5t-151.5 -35.5q-108 0 -202.5 41
t-166.5 113.5t-113 167.5t-41 204t41 204t113 167.5t166.5 113.5t202.5 41q86 0 151.5 -35.5t111.5 -92.5v102zM587 239q68 0 123 35.5t86.5 94.5t31.5 131t-31.5 131.5t-86.5 94.5t-123 35q-67 0 -122.5 -35t-88.5 -94.5t-33 -131.5t33 -131.5t88.5 -94.5t122.5 -35z
M283 1340h676v-204h-676v204z" />
    <glyph glyph-name="uni1E24" unicode="&#x1e24;" horiz-adv-x="1324" 
d="M928 1400h276v-1400h-276v612h-532v-612h-276v1400h276v-512h532v512zM664 -454q-60 0 -101 40t-41 99t41 99t100 40t99.5 -40t40.5 -99t-39.5 -99t-99.5 -40z" />
    <glyph glyph-name="uni1E25" unicode="&#x1e25;" horiz-adv-x="1129" 
d="M1049 636v-636h-276v560q0 53 -25.5 95.5t-68 67.5t-94.5 25t-95 -25t-68 -67.5t-25 -95.5v-560h-276l-1 1500h276l1 -574q50 48 117.5 75t142.5 27q109 0 197.5 -53t141.5 -141.5t53 -197.5zM623 -454q-60 0 -101 40t-41 99t41 99t100 40t99.5 -40t40.5 -99t-39.5 -99
t-99.5 -40z" />
    <glyph glyph-name="uni1E2E" unicode="&#x1e2e;" horiz-adv-x="576" 
d="M150 0v1400h276v-1400h-276zM79 1467q-60 0 -101 39.5t-41 99.5q0 58 41 99t101 41q58 0 98.5 -41t40.5 -99q0 -60 -40.5 -99.5t-98.5 -39.5zM500 1467q-60 0 -101 39.5t-41 99.5q0 58 41 99t101 41q58 0 98.5 -41t40.5 -99q0 -60 -40.5 -99.5t-98.5 -39.5zM215 1814
l80 288h276l-172 -288h-184z" />
    <glyph glyph-name="uni1E2F" unicode="&#x1e2f;" horiz-adv-x="516" 
d="M120 1000h276v-1000h-276v1000zM49 1067q-60 0 -101 39.5t-41 99.5q0 58 41 99t101 41q58 0 98.5 -41t40.5 -99q0 -60 -40.5 -99.5t-98.5 -39.5zM470 1067q-60 0 -101 39.5t-41 99.5q0 58 41 99t101 41q58 0 98.5 -41t40.5 -99q0 -60 -40.5 -99.5t-98.5 -39.5zM185 1414
l80 288h276l-172 -288h-184z" />
    <glyph glyph-name="uni1E36" unicode="&#x1e36;" horiz-adv-x="1060" 
d="M120 0v1400h276v-1124h564v-276h-840zM542 -454q-60 0 -101 40t-41 99t41 99t100 40t99.5 -40t40.5 -99t-39.5 -99t-99.5 -40z" />
    <glyph glyph-name="uni1E37" unicode="&#x1e37;" horiz-adv-x="516" 
d="M120 0v1500h276v-1500h-276zM260 -454q-60 0 -101 40t-41 99t41 99t100 40t99.5 -40t40.5 -99t-39.5 -99t-99.5 -40z" />
    <glyph glyph-name="uni1E3E" unicode="&#x1e3e;" horiz-adv-x="1901" 
d="M120 0l272 1400h233l325 -857l326 857h233l272 -1400h-282l-155 803l-299 -789h-190l-298 789l-156 -803h-281zM877 1510l80 288h276l-172 -288h-184z" />
    <glyph glyph-name="uni1E3F" unicode="&#x1e3f;" horiz-adv-x="1777" 
d="M120 0v1000h276v-74q51 48 118 75t142 27q102 0 187.5 -47t137.5 -125q53 78 138 125t186 47q109 0 197.5 -53t141.5 -141.5t53 -197.5v-636h-276v560q0 52 -25.5 94.5t-67.5 68t-94 25.5t-94.5 -25t-68 -67.5t-25.5 -95.5v-560h-276v560q0 53 -25 95.5t-67.5 67.5
t-94.5 25q-51 0 -93.5 -25.5t-68 -68t-25.5 -94.5v-560h-276zM908 1110l80 288h276l-172 -288h-184z" />
    <glyph glyph-name="uni1E40" unicode="&#x1e40;" horiz-adv-x="1901" 
d="M120 0l272 1400h233l325 -857l326 857h233l272 -1400h-282l-155 803l-299 -789h-190l-298 789l-156 -803h-281zM952 1515q-60 0 -101 40t-41 99t41 99t100 40t99.5 -40t40.5 -99t-39.5 -99t-99.5 -40z" />
    <glyph glyph-name="uni1E41" unicode="&#x1e41;" horiz-adv-x="1777" 
d="M120 0v1000h276v-74q51 48 118 75t142 27q102 0 187.5 -47t137.5 -125q53 78 138 125t186 47q109 0 197.5 -53t141.5 -141.5t53 -197.5v-636h-276v560q0 52 -25.5 94.5t-67.5 68t-94 25.5t-94.5 -25t-68 -67.5t-25.5 -95.5v-560h-276v560q0 53 -25 95.5t-67.5 67.5
t-94.5 25q-51 0 -93.5 -25.5t-68 -68t-25.5 -94.5v-560h-276zM983 1115q-60 0 -101 40t-41 99t41 99t100 40t99.5 -40t40.5 -99t-39.5 -99t-99.5 -40z" />
    <glyph glyph-name="uni1E42" unicode="&#x1e42;" horiz-adv-x="1901" 
d="M120 0l272 1400h233l325 -857l326 857h233l272 -1400h-282l-155 803l-299 -789h-190l-298 789l-156 -803h-281zM952 -454q-60 0 -101 40t-41 99t41 99t100 40t99.5 -40t40.5 -99t-39.5 -99t-99.5 -40z" />
    <glyph glyph-name="uni1E43" unicode="&#x1e43;" horiz-adv-x="1777" 
d="M120 0v1000h276v-74q51 48 118 75t142 27q102 0 187.5 -47t137.5 -125q53 78 138 125t186 47q109 0 197.5 -53t141.5 -141.5t53 -197.5v-636h-276v560q0 52 -25.5 94.5t-67.5 68t-94 25.5t-94.5 -25t-68 -67.5t-25.5 -95.5v-560h-276v560q0 53 -25 95.5t-67.5 67.5
t-94.5 25q-51 0 -93.5 -25.5t-68 -68t-25.5 -94.5v-560h-276zM910 -454q-60 0 -101 40t-41 99t41 99t100 40t99.5 -40t40.5 -99t-39.5 -99t-99.5 -40z" />
    <glyph glyph-name="uni1E44" unicode="&#x1e44;" horiz-adv-x="1360" 
d="M120 0v1400h298l546 -901v901h276v-1400h-298l-546 901v-901h-276zM682 1515q-60 0 -101 40t-41 99t41 99t100 40t99.5 -40t40.5 -99t-39.5 -99t-99.5 -40z" />
    <glyph glyph-name="uni1E45" unicode="&#x1e45;" horiz-adv-x="1129" 
d="M1049 636v-636h-276v560q0 53 -25.5 95.5t-68 67.5t-94.5 25t-95 -25t-68 -67.5t-25 -95.5v-560h-276l-1 1000h276l1 -74q50 48 117.5 75t142.5 27q109 0 197.5 -53t141.5 -141.5t53 -197.5zM605 1115q-60 0 -101 40t-41 99t41 99t100 40t99.5 -40t40.5 -99t-39.5 -99
t-99.5 -40z" />
    <glyph glyph-name="uni1E46" unicode="&#x1e46;" horiz-adv-x="1360" 
d="M120 0v1400h298l546 -901v901h276v-1400h-298l-546 901v-901h-276zM682 -454q-60 0 -101 40t-41 99t41 99t100 40t99.5 -40t40.5 -99t-39.5 -99t-99.5 -40z" />
    <glyph glyph-name="uni1E47" unicode="&#x1e47;" horiz-adv-x="1129" 
d="M1049 636v-636h-276v560q0 53 -25.5 95.5t-68 67.5t-94.5 25t-95 -25t-68 -67.5t-25 -95.5v-560h-276l-1 1000h276l1 -74q50 48 117.5 75t142.5 27q109 0 197.5 -53t141.5 -141.5t53 -197.5zM587 -454q-60 0 -101 40t-41 99t41 99t100 40t99.5 -40t40.5 -99t-39.5 -99
t-99.5 -40z" />
    <glyph glyph-name="uni1E62" unicode="&#x1e62;" horiz-adv-x="1257" 
d="M629 -26q-118 0 -225.5 37t-188 107t-115.5 166l259 96q12 -34 50 -63.5t95 -48t125 -18.5q65 0 122.5 19.5t93 54.5t35.5 82t-37 78t-95 49.5t-119 28.5q-151 22 -270.5 71.5t-188.5 137t-69 222.5q0 130 73.5 227t194 151t260.5 54q116 0 224 -37t188.5 -107
t115.5 -168l-259 -94q-12 34 -50 63t-95 47t-124 18q-64 1 -121.5 -19t-94 -55t-36.5 -80q0 -59 34.5 -89t91.5 -43t126 -23q142 -21 262 -74.5t192.5 -142t72.5 -215.5q0 -130 -73 -227t-193 -151t-261 -54zM711 -454q-60 0 -101 40t-41 99t41 99t100 40t99.5 -40t40.5 -99
t-39.5 -99t-99.5 -40z" />
    <glyph glyph-name="uni1E63" unicode="&#x1e63;" horiz-adv-x="872" 
d="M411 -18q-77 6 -148 32.5t-126.5 72t-86.5 109.5l232 100q11 -16 33 -34.5t53.5 -32.5t73.5 -14q31 0 60 7.5t47 25t18 46.5q0 32 -23 49t-55.5 25.5t-62.5 14.5q-92 16 -173.5 57.5t-132.5 107.5t-51 158q0 101 53 174.5t138 113.5t184 40q117 0 217 -49t161 -138
l-218 -129q-13 19 -33.5 36.5t-47 30t-56.5 14.5q-39 3 -71 -4.5t-50.5 -27.5t-18.5 -54q0 -33 29 -48.5t67 -23t67 -17.5q87 -28 163.5 -71.5t123.5 -106.5t44 -148q0 -99 -59 -173.5t-152.5 -113t-198.5 -29.5zM495 -454q-60 0 -101 40t-41 99t41 99t100 40t99.5 -40
t40.5 -99t-39.5 -99t-99.5 -40z" />
    <glyph glyph-name="uni1E6C" unicode="&#x1e6c;" horiz-adv-x="1259" 
d="M1180 1400v-276h-412v-1124h-276v1124h-412v276h1100zM632 -454q-60 0 -101 40t-41 99t41 99t100 40t99.5 -40t40.5 -99t-39.5 -99t-99.5 -40z" />
    <glyph glyph-name="uni1E6D" unicode="&#x1e6d;" horiz-adv-x="724" 
d="M664 724h-180v-724h-276v724h-138v276h138v314h276v-314h180v-276zM347 -454q-60 0 -101 40t-41 99t41 99t100 40t99.5 -40t40.5 -99t-39.5 -99t-99.5 -40z" />
    <glyph glyph-name="Wgrave" unicode="&#x1e80;" horiz-adv-x="1919" 
d="M450 0l-358 1400h285l228 -895l228 895h253l228 -895l228 895h285l-356 -1400h-312l-199 778l-198 -778h-312zM677 1798h276l80 -288h-184z" />
    <glyph glyph-name="wgrave" unicode="&#x1e81;" horiz-adv-x="1730" 
d="M666 0h-272l-334 1000h270l201 -599l199 599h270l199 -599l200 599h271l-335 -1000h-271l-199 600zM583 1398h276l80 -288h-184z" />
    <glyph glyph-name="Wacute" unicode="&#x1e82;" horiz-adv-x="1919" 
d="M450 0l-358 1400h285l228 -895l228 895h253l228 -895l228 895h285l-356 -1400h-312l-199 778l-198 -778h-312zM887 1510l80 288h276l-172 -288h-184z" />
    <glyph glyph-name="wacute" unicode="&#x1e83;" horiz-adv-x="1730" 
d="M666 0h-272l-334 1000h270l201 -599l199 599h270l199 -599l200 599h271l-335 -1000h-271l-199 600zM792 1110l80 288h276l-172 -288h-184z" />
    <glyph glyph-name="Wdieresis" unicode="&#x1e84;" horiz-adv-x="1919" 
d="M450 0l-358 1400h285l228 -895l228 895h253l228 -895l228 895h285l-356 -1400h-312l-199 778l-198 -778h-312zM750 1467q-60 0 -101 39.5t-41 99.5q0 58 41 99t101 41q58 0 98.5 -41t40.5 -99q0 -60 -40.5 -99.5t-98.5 -39.5zM1171 1467q-60 0 -101 39.5t-41 99.5
q0 58 41 99t101 41q58 0 98.5 -41t40.5 -99q0 -60 -40.5 -99.5t-98.5 -39.5z" />
    <glyph glyph-name="wdieresis" unicode="&#x1e85;" horiz-adv-x="1730" 
d="M666 0h-272l-334 1000h270l201 -599l199 599h270l199 -599l200 599h271l-335 -1000h-271l-199 600zM656 1067q-60 0 -101 39.5t-41 99.5q0 58 41 99t101 41q58 0 98.5 -41t40.5 -99q0 -60 -40.5 -99.5t-98.5 -39.5zM1077 1067q-60 0 -101 39.5t-41 99.5q0 58 41 99
t101 41q58 0 98.5 -41t40.5 -99q0 -60 -40.5 -99.5t-98.5 -39.5z" />
    <glyph glyph-name="uni1E92" unicode="&#x1e92;" horiz-adv-x="1292" 
d="M80 0v276l759 848h-759v276h1132v-276l-759 -848h759v-276h-1132zM648 -454q-60 0 -101 40t-41 99t41 99t100 40t99.5 -40t40.5 -99t-39.5 -99t-99.5 -40z" />
    <glyph glyph-name="uni1E93" unicode="&#x1e93;" horiz-adv-x="1014" 
d="M934 724l-455 -448h455v-276h-854v276l455 448h-455v276h854v-276zM509 -454q-60 0 -101 40t-41 99t41 99t100 40t99.5 -40t40.5 -99t-39.5 -99t-99.5 -40z" />
    <glyph glyph-name="uni1E97" unicode="&#x1e97;" horiz-adv-x="724" 
d="M664 724h-180v-724h-276v724h-138v276h138v314h276v-314h180v-276zM136 1381q-60 0 -101 39.5t-41 99.5q0 58 41 99t101 41q58 0 98.5 -41t40.5 -99q0 -60 -40.5 -99.5t-98.5 -39.5zM557 1381q-60 0 -101 39.5t-41 99.5q0 58 41 99t101 41q58 0 98.5 -41t40.5 -99
q0 -60 -40.5 -99.5t-98.5 -39.5z" />
    <glyph glyph-name="uni1E9E" unicode="&#x1e9e;" horiz-adv-x="1228" 
d="M120 0v882q0 108 40.5 201.5t111.5 164.5t165 111.5t201 40.5q103 0 195 -43.5t149.5 -117t57.5 -163.5q0 -47 -27 -91t-78.5 -102.5t-125.5 -149.5q68 13 132 -10.5t115 -71.5t81.5 -109.5t30.5 -125.5q0 -101 -41.5 -178.5t-110.5 -130.5t-153.5 -80t-169.5 -27h-56
l-56 235h83q55 0 115 16.5t102 56.5t42 110t-42 109.5t-102 56.5t-115 17h-81v102q0 43 18 90.5t44.5 93t53.5 85t45.5 68.5t18.5 42q0 40 -25 57t-65 20.5t-86 3.5q-48 0 -92 -28t-71.5 -75t-27.5 -106v-954h-276z" />
    <glyph glyph-name="uni1EA0" unicode="&#x1ea0;" horiz-adv-x="1490" 
d="M588 1400h314l508 -1400h-293l-84 232h-576l-84 -232h-293zM558 508h374l-188 513zM746 -454q-60 0 -101 40t-41 99t41 99t100 40t99.5 -40t40.5 -99t-39.5 -99t-99.5 -40z" />
    <glyph glyph-name="uni1EA1" unicode="&#x1ea1;" horiz-adv-x="1210" 
d="M854 1000h276v-1000h-277l-13 104q-39 -58 -100 -94t-143 -36q-112 0 -209 42t-171 116t-115.5 171.5t-41.5 209.5q0 107 39 200t110 164t163.5 111t199.5 40q92 0 165.5 -39t128.5 -99zM590 239q68 0 123 35t87 94.5t32 131.5q0 73 -32 132t-87 94t-123 35
q-69 0 -125 -35t-89 -94.5t-33 -131.5t33.5 -131.5t89.5 -94.5t124 -35zM621 -454q-60 0 -101 40t-41 99t41 99t100 40t99.5 -40t40.5 -99t-39.5 -99t-99.5 -40z" />
    <glyph glyph-name="uni1EAC" unicode="&#x1eac;" horiz-adv-x="1490" 
d="M588 1400h314l508 -1400h-293l-84 232h-576l-84 -232h-293zM558 508h374l-188 513zM746 -454q-60 0 -101 40t-41 99t41 99t100 40t99.5 -40t40.5 -99t-39.5 -99t-99.5 -40zM900 1798l194 -288h-184l-165 190l-163 -190h-184l190 288h312z" />
    <glyph glyph-name="uni1EAD" unicode="&#x1ead;" horiz-adv-x="1210" 
d="M854 1000h276v-1000h-277l-13 104q-39 -58 -100 -94t-143 -36q-112 0 -209 42t-171 116t-115.5 171.5t-41.5 209.5q0 107 39 200t110 164t163.5 111t199.5 40q92 0 165.5 -39t128.5 -99zM590 239q68 0 123 35t87 94.5t32 131.5q0 73 -32 132t-87 94t-123 35
q-69 0 -125 -35t-89 -94.5t-33 -131.5t33.5 -131.5t89.5 -94.5t124 -35zM621 -454q-60 0 -101 40t-41 99t41 99t100 40t99.5 -40t40.5 -99t-39.5 -99t-99.5 -40zM774 1398l194 -288h-184l-165 190l-163 -190h-184l190 288h312z" />
    <glyph glyph-name="uni1EB6" unicode="&#x1eb6;" horiz-adv-x="1490" 
d="M588 1400h314l508 -1400h-293l-84 232h-576l-84 -232h-293zM558 508h374l-188 513zM746 -454q-60 0 -101 40t-41 99t41 99t100 40t99.5 -40t40.5 -99t-39.5 -99t-99.5 -40zM745 1488q-91 0 -166.5 45t-120.5 120.5t-45 166.5h168q0 -45 22.5 -82t59.5 -59.5t82 -22.5
t82.5 21.5t59.5 59t22 83.5h168q0 -93 -44.5 -168.5t-120 -119.5t-167.5 -44z" />
    <glyph glyph-name="uni1EB7" unicode="&#x1eb7;" horiz-adv-x="1210" 
d="M854 1000h276v-1000h-277l-13 104q-39 -58 -100 -94t-143 -36q-112 0 -209 42t-171 116t-115.5 171.5t-41.5 209.5q0 107 39 200t110 164t163.5 111t199.5 40q92 0 165.5 -39t128.5 -99zM590 239q68 0 123 35t87 94.5t32 131.5q0 73 -32 132t-87 94t-123 35
q-69 0 -125 -35t-89 -94.5t-33 -131.5t33.5 -131.5t89.5 -94.5t124 -35zM621 -454q-60 0 -101 40t-41 99t41 99t100 40t99.5 -40t40.5 -99t-39.5 -99t-99.5 -40zM619 1088q-91 0 -166.5 45t-120.5 120.5t-45 166.5h168q0 -45 22.5 -82t59.5 -59.5t82 -22.5t82.5 21.5
t59.5 59t22 83.5h168q0 -93 -44.5 -168.5t-120 -119.5t-167.5 -44z" />
    <glyph glyph-name="uni1EB8" unicode="&#x1eb8;" horiz-adv-x="1106" 
d="M120 0v1400h886v-276h-610v-236h476v-276h-476v-336h610v-276h-886zM555 -454q-60 0 -101 40t-41 99t41 99t100 40t99.5 -40t40.5 -99t-39.5 -99t-99.5 -40z" />
    <glyph glyph-name="uni1EB9" unicode="&#x1eb9;" 
d="M560 -26q-138 0 -251.5 71t-181 191t-67.5 265q0 109 39 204.5t107.5 168t159.5 113.5t194 41q119 0 217.5 -51t167 -139t98 -199t9.5 -231h-694q13 -44 40.5 -79.5t68 -56.5t93.5 -22q52 -1 96 24t75 67l282 -65q-61 -133 -182 -217.5t-271 -84.5zM348 612h425
q-13 50 -44 90t-74.5 63t-94.5 23q-50 0 -93.5 -23t-74 -62.5t-44.5 -90.5zM562 -454q-60 0 -101 40t-41 99t41 99t100 40t99.5 -40t40.5 -99t-39.5 -99t-99.5 -40z" />
    <glyph glyph-name="uni1EBC" unicode="&#x1ebc;" horiz-adv-x="1106" 
d="M120 0v1400h886v-276h-610v-236h476v-276h-476v-336h610v-276h-886zM709 1497q-38 0 -90.5 27t-104 59t-88.5 51t-46 4q-9 -17 -8.5 -35.5t9.5 -49.5l-157 -43q-29 84 -16 152.5t61.5 108.5t127.5 40q36 0 84.5 -21.5t96.5 -49.5t85 -49.5t49 -21.5q20 0 24 12.5t-1.5 32
t-12.5 37.5l161 52q29 -89 14 -158t-64.5 -108.5t-123.5 -39.5z" />
    <glyph glyph-name="uni1EBD" unicode="&#x1ebd;" 
d="M560 -26q-138 0 -251.5 71t-181 191t-67.5 265q0 109 39 204.5t107.5 168t159.5 113.5t194 41q119 0 217.5 -51t167 -139t98 -199t9.5 -231h-694q13 -44 40.5 -79.5t68 -56.5t93.5 -22q52 -1 96 24t75 67l282 -65q-61 -133 -182 -217.5t-271 -84.5zM348 612h425
q-13 50 -44 90t-74.5 63t-94.5 23q-50 0 -93.5 -23t-74 -62.5t-44.5 -90.5zM716 1097q-38 0 -90.5 27t-104 59t-88.5 51t-46 4q-9 -17 -8.5 -35.5t9.5 -49.5l-157 -43q-29 84 -16 152.5t61.5 108.5t127.5 40q36 0 84.5 -21.5t96.5 -49.5t85 -49.5t49 -21.5q20 0 24 12.5
t-1.5 32t-12.5 37.5l161 52q29 -89 14 -158t-64.5 -108.5t-123.5 -39.5z" />
    <glyph glyph-name="uni1EC6" unicode="&#x1ec6;" horiz-adv-x="1106" 
d="M120 0v1400h886v-276h-610v-236h476v-276h-476v-336h610v-276h-886zM555 -454q-60 0 -101 40t-41 99t41 99t100 40t99.5 -40t40.5 -99t-39.5 -99t-99.5 -40zM708 1798l194 -288h-184l-165 190l-163 -190h-184l190 288h312z" />
    <glyph glyph-name="uni1EC7" unicode="&#x1ec7;" 
d="M560 -26q-138 0 -251.5 71t-181 191t-67.5 265q0 109 39 204.5t107.5 168t159.5 113.5t194 41q119 0 217.5 -51t167 -139t98 -199t9.5 -231h-694q13 -44 40.5 -79.5t68 -56.5t93.5 -22q52 -1 96 24t75 67l282 -65q-61 -133 -182 -217.5t-271 -84.5zM348 612h425
q-13 50 -44 90t-74.5 63t-94.5 23q-50 0 -93.5 -23t-74 -62.5t-44.5 -90.5zM562 -454q-60 0 -101 40t-41 99t41 99t100 40t99.5 -40t40.5 -99t-39.5 -99t-99.5 -40zM715 1398l194 -288h-184l-165 190l-163 -190h-184l190 288h312z" />
    <glyph glyph-name="uni1ECA" unicode="&#x1eca;" horiz-adv-x="576" 
d="M150 0v1400h276v-1400h-276zM290 -454q-60 0 -101 40t-41 99t41 99t100 40t99.5 -40t40.5 -99t-39.5 -99t-99.5 -40z" />
    <glyph glyph-name="uni1ECB" unicode="&#x1ecb;" horiz-adv-x="516" 
d="M120 1000h276v-1000h-276v1000zM260 1115q-60 0 -101 40t-41 99t41 99t100 40t99.5 -40t40.5 -99t-39.5 -99t-99.5 -40zM260 -454q-60 0 -101 40t-41 99t41 99t100 40t99.5 -40t40.5 -99t-39.5 -99t-99.5 -40z" />
    <glyph glyph-name="uni1ECC" unicode="&#x1ecc;" horiz-adv-x="1540" 
d="M770 -26q-142 0 -267 56.5t-220 156.5t-149 231.5t-54 281.5t54 281.5t149 231.5t220 156.5t267 56.5q143 0 268 -56.5t220 -156.5t148.5 -231.5t53.5 -281.5t-53.5 -281.5t-148.5 -231.5t-220 -156.5t-268 -56.5zM770 250q85 0 160 35.5t132 97.5t89.5 143t32.5 174
t-32.5 174.5t-89.5 143t-132 97t-160 35.5t-160 -35.5t-132 -97.5t-89.5 -143t-32.5 -174t32.5 -174.5t89.5 -143t132 -97t160 -35.5zM772 -454q-60 0 -101 40t-41 99t41 99t100 40t99.5 -40t40.5 -99t-39.5 -99t-99.5 -40z" />
    <glyph glyph-name="uni1ECD" unicode="&#x1ecd;" 
d="M560 -26q-138 0 -251.5 71t-181 190.5t-67.5 264.5q0 110 39 205.5t107.5 168t159.5 113.5t194 41q138 0 251.5 -71t181 -191t67.5 -266q0 -109 -39 -204t-107.5 -167.5t-159 -113.5t-194.5 -41zM560 250q64 0 115 34.5t80 91.5t29 124q0 69 -30.5 126.5t-81.5 91.5
t-112 34q-63 0 -114 -35t-80.5 -92t-29.5 -125q0 -71 30.5 -127.5t81.5 -89.5t112 -33zM562 -454q-60 0 -101 40t-41 99t41 99t100 40t99.5 -40t40.5 -99t-39.5 -99t-99.5 -40z" />
    <glyph glyph-name="uni1ED8" unicode="&#x1ed8;" horiz-adv-x="1540" 
d="M770 -26q-142 0 -267 56.5t-220 156.5t-149 231.5t-54 281.5t54 281.5t149 231.5t220 156.5t267 56.5q143 0 268 -56.5t220 -156.5t148.5 -231.5t53.5 -281.5t-53.5 -281.5t-148.5 -231.5t-220 -156.5t-268 -56.5zM770 250q85 0 160 35.5t132 97.5t89.5 143t32.5 174
t-32.5 174.5t-89.5 143t-132 97t-160 35.5t-160 -35.5t-132 -97.5t-89.5 -143t-32.5 -174t32.5 -174.5t89.5 -143t132 -97t160 -35.5zM772 -454q-60 0 -101 40t-41 99t41 99t100 40t99.5 -40t40.5 -99t-39.5 -99t-99.5 -40zM925 1798l194 -288h-184l-165 190l-163 -190h-184
l190 288h312z" />
    <glyph glyph-name="uni1ED9" unicode="&#x1ed9;" 
d="M560 -26q-138 0 -251.5 71t-181 190.5t-67.5 264.5q0 110 39 205.5t107.5 168t159.5 113.5t194 41q138 0 251.5 -71t181 -191t67.5 -266q0 -109 -39 -204t-107.5 -167.5t-159 -113.5t-194.5 -41zM560 250q64 0 115 34.5t80 91.5t29 124q0 69 -30.5 126.5t-81.5 91.5
t-112 34q-63 0 -114 -35t-80.5 -92t-29.5 -125q0 -71 30.5 -127.5t81.5 -89.5t112 -33zM562 -454q-60 0 -101 40t-41 99t41 99t100 40t99.5 -40t40.5 -99t-39.5 -99t-99.5 -40zM715 1398l194 -288h-184l-165 190l-163 -190h-184l190 288h312z" />
    <glyph glyph-name="uni1EE4" unicode="&#x1ee4;" horiz-adv-x="1370" 
d="M686 -26q-168 0 -295.5 82t-199 220.5t-71.5 307.5v816h276v-816q0 -91 34 -167t99 -121.5t157 -45.5q93 0 157.5 45t97.5 121t33 168v816h276v-816q0 -127 -40.5 -237.5t-115.5 -194.5t-178.5 -131t-229.5 -47zM687 -454q-60 0 -101 40t-41 99t41 99t100 40t99.5 -40
t40.5 -99t-39.5 -99t-99.5 -40z" />
    <glyph glyph-name="uni1EE5" unicode="&#x1ee5;" horiz-adv-x="1089" 
d="M80 366v634h276v-558q0 -53 25.5 -95.5t68.5 -67.5t94 -25q52 0 95 25t68 67.5t25 95.5v558h276l1 -1000h-276l-1 76q-50 -48 -117.5 -75t-142.5 -27q-108 0 -197 53t-142 141.5t-53 197.5zM581 -452q-60 0 -101 40t-41 99t41 99t100 40t99.5 -40t40.5 -99t-39.5 -99
t-99.5 -40z" />
    <glyph glyph-name="Ygrave" unicode="&#x1ef2;" horiz-adv-x="1364" 
d="M978 1400h326l-484 -769v-631h-276v631l-484 769h326l296 -469zM400 1798h276l80 -288h-184z" />
    <glyph glyph-name="ygrave" unicode="&#x1ef3;" horiz-adv-x="1180" 
d="M806 1000h294l-548 -1500h-292l180 500l-360 1000h302l196 -623zM308 1398h276l80 -288h-184z" />
    <glyph glyph-name="uni1EF4" unicode="&#x1ef4;" horiz-adv-x="1364" 
d="M978 1400h326l-484 -769v-631h-276v631l-484 769h326l296 -469zM683 -454q-60 0 -101 40t-41 99t41 99t100 40t99.5 -40t40.5 -99t-39.5 -99t-99.5 -40z" />
    <glyph glyph-name="uni1EF5" unicode="&#x1ef5;" horiz-adv-x="1180" 
d="M806 1000h294l-548 -1500h-292l180 500l-360 1000h302l196 -623zM843 -454q-60 0 -101 40t-41 99t41 99t100 40t99.5 -40t40.5 -99t-39.5 -99t-99.5 -40z" />
    <glyph glyph-name="uni1EF8" unicode="&#x1ef8;" horiz-adv-x="1364" 
d="M978 1400h326l-484 -769v-631h-276v631l-484 769h326l296 -469zM838 1497q-38 0 -90.5 27t-104 59t-88.5 51t-46 4q-9 -17 -8.5 -35.5t9.5 -49.5l-157 -43q-29 84 -16 152.5t61.5 108.5t127.5 40q36 0 84.5 -21.5t96.5 -49.5t85 -49.5t49 -21.5q20 0 24 12.5t-1.5 32
t-12.5 37.5l161 52q29 -89 14 -158t-64.5 -108.5t-123.5 -39.5z" />
    <glyph glyph-name="uni1EF9" unicode="&#x1ef9;" horiz-adv-x="1180" 
d="M806 1000h294l-548 -1500h-292l180 500l-360 1000h302l196 -623zM746 1097q-38 0 -90.5 27t-104 59t-88.5 51t-46 4q-9 -17 -8.5 -35.5t9.5 -49.5l-157 -43q-29 84 -16 152.5t61.5 108.5t127.5 40q36 0 84.5 -21.5t96.5 -49.5t85 -49.5t49 -21.5q20 0 24 12.5t-1.5 32
t-12.5 37.5l161 52q29 -89 14 -158t-64.5 -108.5t-123.5 -39.5z" />
    <glyph glyph-name="uni2002" unicode="&#x2002;" horiz-adv-x="1000" 
 />
    <glyph glyph-name="uni2009" unicode="&#x2009;" horiz-adv-x="400" 
 />
    <glyph glyph-name="uni200B" unicode="&#x200b;" horiz-adv-x="0" 
 />
    <glyph glyph-name="endash" unicode="&#x2013;" horiz-adv-x="1240" 
d="M120 738h1000v-276h-1000v276z" />
    <glyph glyph-name="emdash" unicode="&#x2014;" horiz-adv-x="2040" 
d="M120 738h1800v-276h-1800v276z" />
    <glyph glyph-name="quoteright" unicode="&#x2019;" horiz-adv-x="438" 
d="M40 878l62 522h276l-154 -522h-184z" />
    <glyph glyph-name="quoteright" unicode="&#x2032;" horiz-adv-x="438" 
d="M40 878l62 522h276l-154 -522h-184z" />
    <glyph glyph-name="quotesinglbase" unicode="&#x201a;" horiz-adv-x="494" 
d="M76 -112l62 338h276l-154 -338h-184z" />
    <glyph glyph-name="quotedblleft" unicode="&#x201c;" horiz-adv-x="852" 
d="M120 878l154 522h184l-62 -522h-276zM474 882l154 522h184l-62 -522h-276z" />
    <glyph glyph-name="quotedblright" unicode="&#x201d;" horiz-adv-x="852" 
d="M40 878l62 522h276l-154 -522h-184zM394 878l62 522h276l-154 -522h-184z" />
    <glyph glyph-name="quotedblright" unicode="&#x2033;" horiz-adv-x="852" 
d="M40 878l62 522h276l-154 -522h-184zM394 878l62 522h276l-154 -522h-184z" />
    <glyph glyph-name="quotedblbase" unicode="&#x201e;" horiz-adv-x="892" 
d="M76 -112l62 338h276l-154 -338h-184zM474 -112l62 338h276l-154 -338h-184z" />
    <glyph glyph-name="dagger" unicode="&#x2020;" horiz-adv-x="880" 
d="M80 1014v276h222v210h276v-210h222v-276h-222v-450h-276v450h-222z" />
    <glyph glyph-name="daggerdbl" unicode="&#x2021;" horiz-adv-x="880" 
d="M80 714v274h222v116h-222v276h222v120h276v-120h222v-276h-222v-116h222v-274h-222v-154h-276v154h-222z" />
    <glyph glyph-name="bullet" unicode="&#x2022;" horiz-adv-x="532" 
d="M266 414q-78 0 -132 54t-54 132q0 77 54 131.5t132 54.5q77 0 131.5 -54.5t54.5 -131.5q0 -78 -54.5 -132t-131.5 -54z" />
    <glyph glyph-name="ellipsis" unicode="&#x2026;" horiz-adv-x="1327" 
d="M219 -26q-58 0 -98.5 40.5t-40.5 99.5q0 57 40.5 98t98.5 41t99 -41t41 -98q0 -59 -41 -99.5t-99 -40.5zM643 -26q-58 0 -98.5 40.5t-40.5 99.5q0 57 40.5 98t98.5 41t99 -41t41 -98q0 -59 -41 -99.5t-99 -40.5zM1067 -26q-58 0 -98.5 40.5t-40.5 99.5q0 57 40.5 98
t98.5 41t99 -41t41 -98q0 -59 -41 -99.5t-99 -40.5z" />
    <glyph glyph-name="perthousand" unicode="&#x2030;" horiz-adv-x="2267" 
d="M226 0l808 1400h318l-808 -1400h-318zM400 774q-88 0 -160.5 42t-116 114.5t-43.5 161.5q0 92 44.5 163.5t117 113t158.5 41.5q87 0 159.5 -42.5t115.5 -115t43 -160.5q0 -91 -44.5 -162.5t-117 -113.5t-156.5 -42zM400 960q54 0 93 38.5t39 93.5q0 56 -39 94t-93 38
q-55 0 -94.5 -38t-39.5 -94q0 -55 39.5 -93.5t94.5 -38.5zM1172 -12q-89 0 -161.5 44.5t-114.5 117.5t-42 156q0 91 44.5 163.5t116.5 114.5t157 42q92 0 164 -45t114 -117.5t42 -157.5q0 -87 -43 -159.5t-116 -115.5t-161 -43zM1172 174q56 0 95 39t39 93q0 56 -39 95
t-95 39q-54 0 -93 -39t-39 -95q0 -54 39 -93t93 -39zM1867 -12q-89 0 -161.5 44.5t-114.5 117.5t-42 156q0 91 44.5 163.5t117 114.5t156.5 42q92 0 164 -45t114 -117.5t42 -157.5q0 -87 -43 -159.5t-116 -115.5t-161 -43zM1867 174q56 0 95 39t39 93q0 56 -39 95t-95 39
q-54 0 -93 -39t-39 -95q0 -54 39 -93t93 -39z" />
    <glyph glyph-name="uni2035" unicode="&#x2035;" horiz-adv-x="578" 
d="M274 878l-154 522h276l62 -522h-184z" />
    <glyph glyph-name="guilsinglleft" unicode="&#x2039;" horiz-adv-x="798" 
d="M420 261l-300 340l300 338h278l-298 -338l298 -340h-278z" />
    <glyph glyph-name="guilsinglright" unicode="&#x203a;" horiz-adv-x="798" 
d="M100 261l298 340l-298 338h278l300 -338l-300 -340h-278z" />
    <glyph glyph-name="fraction" unicode="&#x2044;" horiz-adv-x="450" 
d="M-291 0l808 1400h224l-808 -1400h-224z" />
    <glyph glyph-name="fraction" unicode="&#x2215;" horiz-adv-x="450" 
d="M-291 0l808 1400h224l-808 -1400h-224z" />
    <glyph glyph-name="uni2070" unicode="&#x2070;" horiz-adv-x="648" 
d="M324 798q-69 0 -126.5 44t-91.5 120t-34 172q0 95 34 170.5t91.5 119.5t126.5 44q70 0 127 -44t91 -119.5t34 -170.5q0 -96 -34 -172t-91 -120t-127 -44zM324 946q31 0 51.5 32t31.5 76.5t11 79.5q0 41 -11.5 84t-32 72.5t-50.5 29.5q-32 0 -53 -30.5t-31 -74t-10 -81.5
q0 -42 11 -86t32 -73t51 -29z" />
    <glyph glyph-name="uni2074" unicode="&#x2074;" horiz-adv-x="694" 
d="M336 818v91h-240v191l222 349h176v-381h56v-159h-56v-91h-158zM250 1068h101v160z" />
    <glyph glyph-name="uni2075" unicode="&#x2075;" horiz-adv-x="702" 
d="M320 798q-96 0 -166 63t-70 161h158q0 -31 23 -53.5t55 -22.5q33 0 56.5 22.5t23.5 53.5q0 33 -23.5 53.5t-56.5 24.5q-19 2 -54.5 1t-75.5 -4t-74 -8l34 360h341v-137h-197l-1 -54q122 2 193.5 -64t71.5 -172q0 -98 -69.5 -161t-168.5 -63z" />
    <glyph glyph-name="uni2076" unicode="&#x2076;" horiz-adv-x="706" 
d="M329 798q-98 0 -165.5 61.5t-67.5 159.5q0 27 6.5 52t27 64.5t63 113t114.5 197.5h184l-118 -201q61 -15 103 -48t64 -79t22 -101q0 -65 -32 -114.5t-84.5 -77t-116.5 -27.5zM329 946q35 0 57 26t15 60q-4 27 -24.5 43.5t-47.5 16.5q-41 0 -60 -29t-13 -59q6 -32 28 -45
t45 -13z" />
    <glyph glyph-name="uni2077" unicode="&#x2077;" horiz-adv-x="679" 
d="M154 818l270 470h-304v158h487v-154l-272 -474h-181z" />
    <glyph glyph-name="uni2078" unicode="&#x2078;" horiz-adv-x="632" 
d="M315 798q-91 0 -155 57t-64 148q0 42 14.5 79.5t39.5 66.5q-20 25 -31 57.5t-11 65.5q0 87 61 142.5t146 55.5t146.5 -55.5t61.5 -142.5q0 -33 -11 -65.5t-30 -57.5q25 -29 39.5 -66.5t14.5 -79.5q0 -91 -64 -148t-157 -57zM315 944q26 0 44 17t18 42q0 26 -18 44t-44 18
q-25 0 -43 -18t-18 -44q0 -25 18 -42t43 -17zM315 1224q21 0 35.5 14.5t14.5 33.5q0 21 -14.5 34.5t-35.5 13.5q-19 0 -33.5 -13.5t-14.5 -34.5q0 -19 14.5 -33.5t33.5 -14.5z" />
    <glyph glyph-name="uni2079" unicode="&#x2079;" horiz-adv-x="658" 
d="M141 818l117 204q-44 7 -79.5 29.5t-60 55t-36 72t-7.5 80.5q3 91 70 150t160 59q52 0 95.5 -18.5t74.5 -50.5t47 -74t13 -90q0 -54 -29 -104l-182 -313h-183zM305 1172q21 0 38.5 11.5t27 30t8.5 40.5q-1 26 -24.5 46t-49.5 20q-24 0 -41 -12t-25.5 -29.5t-7.5 -37.5
q2 -38 27.5 -53.5t46.5 -15.5z" />
    <glyph glyph-name="uni2080" unicode="&#x2080;" horiz-adv-x="648" 
d="M324 -31q-69 0 -126.5 46.5t-91.5 125t-34 174.5q0 95 34 173t91.5 124.5t126.5 46.5q70 0 127 -46.5t91 -124.5t34 -173q0 -96 -34 -174.5t-91 -125t-127 -46.5zM324 127q31 0 51.5 32.5t31.5 76.5t11 79q0 41 -11.5 83.5t-32 72.5t-50.5 30q-32 0 -53 -31t-31 -74
t-10 -81q0 -41 11 -85t32 -73.5t51 -29.5z" />
    <glyph glyph-name="uni2081" unicode="&#x2081;" horiz-adv-x="460" 
d="M157 0v473h-61l23 158h197v-631h-159z" />
    <glyph glyph-name="uni2082" unicode="&#x2082;" horiz-adv-x="721" 
d="M96 0v139q42 29 88.5 58.5t91 61.5t82 72t61.5 90q0 35 -23.5 58t-57.5 23q-35 0 -59.5 -23t-24.5 -58h-158q0 66 32.5 120.5t88 87t121.5 32.5t120.5 -32.5t86.5 -87t32 -120.5q0 -40 -17 -75t-45 -67t-62 -61.5t-68 -59.5h181v-158h-470z" />
    <glyph glyph-name="uni2083" unicode="&#x2083;" horiz-adv-x="583" 
d="M293 -31q-61 0 -111 30t-80 79.5t-30 109.5h158q0 -26 18.5 -43.5t44.5 -17.5q25 0 42.5 17.5t17.5 43.5q0 32 -28.5 60.5t-86.5 28.5v102q58 0 78 25.5t20 50.5q0 19 -14.5 32.5t-33.5 13.5t-33 -13.5t-14 -32.5h-159q0 85 60.5 144.5t145.5 59.5q86 0 146 -59.5
t60 -144.5q0 -34 -10.5 -65t-29.5 -57q29 -30 43 -67t14 -78q0 -60 -29.5 -109.5t-79.5 -79.5t-109 -30z" />
    <glyph glyph-name="uni2084" unicode="&#x2084;" horiz-adv-x="694" 
d="M336 0v91h-240v191l222 349h176v-381h56v-159h-56v-91h-158zM250 250h101v160z" />
    <glyph glyph-name="uni2085" unicode="&#x2085;" horiz-adv-x="702" 
d="M320 -31q-64 0 -118 31.5t-86 84.5t-32 118h158q0 -31 23 -53.5t55 -22.5q33 0 56.5 22.5t23.5 53.5q0 32 -23.5 55t-56.5 23l-206 -4l36 353h341v-139h-197l-1 -53l31 1q114 0 174 -68t60 -168q0 -65 -32 -118t-86 -84.5t-120 -31.5z" />
    <glyph glyph-name="uni2086" unicode="&#x2086;" horiz-adv-x="682" 
d="M329 -31q-98 0 -165.5 67t-67.5 165q0 27 6.5 51.5t27 64.5t63 113.5t114.5 197.5h184l-118 -202q61 -15 103 -48t64 -79t22 -101q0 -64 -32 -116.5t-84.5 -82.5t-116.5 -30zM329 127q35 0 57 26t15 60q-4 28 -24.5 44t-47.5 16q-41 0 -59 -29t-14 -59q6 -32 28 -45
t45 -13z" />
    <glyph glyph-name="uni2087" unicode="&#x2087;" horiz-adv-x="679" 
d="M151 0l273 473h-304v158h487v-154l-275 -477h-181z" />
    <glyph glyph-name="uni2088" unicode="&#x2088;" horiz-adv-x="632" 
d="M315 -31q-91 0 -155 62.5t-64 152.5q0 42 14.5 80t39.5 66q-20 26 -31 57.5t-11 65.5q0 87 61 147t146 60t146.5 -60t61.5 -147q0 -34 -11 -65.5t-30 -57.5q25 -28 39.5 -66t14.5 -80q0 -90 -64 -152.5t-157 -62.5zM315 125q26 0 44 17t18 42q0 26 -18 44t-44 18
q-25 0 -43 -18t-18 -44q0 -25 18 -42t43 -17zM315 404q21 0 35.5 15t14.5 34q0 20 -14.5 34t-35.5 14q-19 0 -33.5 -14t-14.5 -34q0 -19 14.5 -34t33.5 -15z" />
    <glyph glyph-name="uni2089" unicode="&#x2089;" horiz-adv-x="658" 
d="M141 0l117 204q-44 7 -79.5 29.5t-60 55.5t-36 72.5t-7.5 80.5q2 61 33.5 110.5t83 79t113.5 29.5q66 0 118 -31.5t82 -83t32 -112.5t-31 -120l-182 -314h-183zM305 355q21 0 38.5 11.5t27 29.5t8.5 40q-1 26 -24.5 46t-49.5 20q-24 0 -41 -12t-25.5 -29.5t-7.5 -37.5
q2 -38 27.5 -53t46.5 -15z" />
    <glyph glyph-name="Euro" unicode="&#x20ac;" horiz-adv-x="1107" 
d="M1027 -16q-134 -21 -256.5 5t-225.5 93t-178 166.5t-115 224.5h-172v186h139v78h-139v186h172q39 128 114.5 228.5t178.5 167.5t226 93t256 4v-285q-76 22 -147 17t-133 -34t-111.5 -77.5t-83.5 -113.5h252v-186h-309l2 -78h307v-186h-250q35 -66 86 -114t113 -75.5
t131.5 -31.5t142.5 17v-285z" />
    <glyph glyph-name="trademark" unicode="&#x2122;" horiz-adv-x="3061" 
d="M1180 1400v-276h-412v-1124h-276v1124h-412v276h1100zM1279 0l272 1400h233l325 -857l326 857h233l272 -1400h-282l-155 803l-299 -789h-190l-298 789l-156 -803h-281z" />
    <glyph glyph-name="oneeighth" unicode="&#x215b;" horiz-adv-x="1541" 
d="M157 818v473h-61l23 158h197v-631h-159zM169 0l808 1400h224l-808 -1400h-224zM1225 -31q-91 0 -155 62.5t-64 152.5q0 42 14.5 80t39.5 66q-20 26 -31 57.5t-11 65.5q0 87 61 147t146 60t146.5 -60t61.5 -147q0 -34 -11 -65.5t-30 -57.5q25 -28 39.5 -66t14.5 -80
q0 -90 -64 -152.5t-157 -62.5zM1225 125q26 0 44 17t18 42q0 26 -18 44t-44 18q-25 0 -43 -18t-18 -44q0 -25 18 -42t43 -17zM1225 404q21 0 35.5 15t14.5 34q0 20 -14.5 34t-35.5 14q-19 0 -33.5 -14t-14.5 -34q0 -19 14.5 -34t33.5 -15z" />
    <glyph glyph-name="threeeighths" unicode="&#x215c;" horiz-adv-x="1665" 
d="M293 798q-91 0 -156 59t-65 151h158q0 -27 18.5 -44.5t44.5 -17.5q25 0 42.5 17.5t17.5 44.5q0 32 -28.5 60t-86.5 28v102q58 0 78 25t20 50q0 20 -14.5 33.5t-33.5 13.5t-33 -13.5t-14 -33.5h-159q0 86 60.5 140.5t145.5 54.5q86 0 146 -54.5t60 -140.5
q0 -33 -10.5 -64.5t-29.5 -57.5q29 -29 43 -66t14 -77q0 -92 -64.5 -151t-153.5 -59zM292 0l808 1400h224l-808 -1400h-224zM1348 -31q-91 0 -155 62.5t-64 152.5q0 42 14.5 80t39.5 66q-20 26 -31 57.5t-11 65.5q0 87 61 147t146 60t146.5 -60t61.5 -147q0 -34 -11 -65.5
t-30 -57.5q25 -28 39.5 -66t14.5 -80q0 -90 -64 -152.5t-157 -62.5zM1348 125q26 0 44 17t18 42q0 26 -18 44t-44 18q-25 0 -43 -18t-18 -44q0 -25 18 -42t43 -17zM1348 404q21 0 35.5 15t14.5 34q0 20 -14.5 34t-35.5 14q-19 0 -33.5 -14t-14.5 -34q0 -19 14.5 -34
t33.5 -15z" />
    <glyph glyph-name="fiveeighths" unicode="&#x215d;" horiz-adv-x="1784" 
d="M320 798q-96 0 -166 63t-70 161h158q0 -31 23 -53.5t55 -22.5q33 0 56.5 22.5t23.5 53.5q0 33 -23.5 53.5t-56.5 24.5q-19 2 -54.5 1t-75.5 -4t-74 -8l34 360h341v-137h-197l-1 -54q122 2 193.5 -64t71.5 -172q0 -98 -69.5 -161t-168.5 -63zM411 0l808 1400h224
l-808 -1400h-224zM1467 -31q-91 0 -155 62.5t-64 152.5q0 42 14.5 80t39.5 66q-20 26 -31 57.5t-11 65.5q0 87 61 147t146 60t146.5 -60t61.5 -147q0 -34 -11 -65.5t-30 -57.5q25 -28 39.5 -66t14.5 -80q0 -90 -64 -152.5t-157 -62.5zM1467 125q26 0 44 17t18 42
q0 26 -18 44t-44 18q-25 0 -43 -18t-18 -44q0 -25 18 -42t43 -17zM1467 404q21 0 35.5 15t14.5 34q0 20 -14.5 34t-35.5 14q-19 0 -33.5 -14t-14.5 -34q0 -19 14.5 -34t33.5 -15z" />
    <glyph glyph-name="seveneighths" unicode="&#x215e;" horiz-adv-x="1760" 
d="M154 818l270 470h-304v158h487v-154l-272 -474h-181zM388 0l808 1400h224l-808 -1400h-224zM1444 -31q-91 0 -155 62.5t-64 152.5q0 42 14.5 80t39.5 66q-20 26 -31 57.5t-11 65.5q0 87 61 147t146 60t146.5 -60t61.5 -147q0 -34 -11 -65.5t-30 -57.5q25 -28 39.5 -66
t14.5 -80q0 -90 -64 -152.5t-157 -62.5zM1444 125q26 0 44 17t18 42q0 26 -18 44t-44 18q-25 0 -43 -18t-18 -44q0 -25 18 -42t43 -17zM1444 404q21 0 35.5 15t14.5 34q0 20 -14.5 34t-35.5 14q-19 0 -33.5 -14t-14.5 -34q0 -19 14.5 -34t33.5 -15z" />
    <glyph glyph-name="arrowleft" unicode="&#x2190;" horiz-adv-x="1418" 
d="M623 207l-543 543l543 543l195 -195l-210 -210h730v-276h-730l210 -210z" />
    <glyph glyph-name="arrowup" unicode="&#x2191;" horiz-adv-x="1247" 
d="M486 120v730l-211 -209l-195 195l544 544l543 -544l-195 -195l-210 209v-730h-276z" />
    <glyph glyph-name="arrowright" unicode="&#x2192;" horiz-adv-x="1419" 
d="M796 207l-195 195l208 210h-729v276h729l-208 210l195 195l543 -543z" />
    <glyph glyph-name="arrowdown" unicode="&#x2193;" horiz-adv-x="1245" 
d="M622 120l-542 544l195 195l209 -209v730h276v-730l210 209l195 -195z" />
    <glyph glyph-name="arrowboth" unicode="&#x2194;" horiz-adv-x="1891" 
d="M623 207l-543 543l543 543l195 -195l-210 -210h673l-208 210l195 195l543 -543l-543 -543l-195 195l208 210h-673l210 -210z" />
    <glyph glyph-name="arrowupdn" unicode="&#x2195;" horiz-adv-x="1247" 
d="M623 -116l-543 544l195 195l210 -209v672l-210 -209l-195 195l543 544l544 -544l-195 -195l-211 209v-672l211 209l195 -195z" />
    <glyph glyph-name="uni2196" unicode="&#x2196;" horiz-adv-x="1148" 
d="M873 256l-517 517v-297h-276v768h768v-276h-297l517 -517z" />
    <glyph glyph-name="uni2197" unicode="&#x2197;" horiz-adv-x="1147" 
d="M275 257l-195 195l516 515h-298v276h769v-768h-276v297z" />
    <glyph glyph-name="uni2198" unicode="&#x2198;" horiz-adv-x="1147" 
d="M299 257v276h297l-516 515l195 195l516 -515v297h276v-768h-768z" />
    <glyph glyph-name="uni2199" unicode="&#x2199;" horiz-adv-x="1147" 
d="M80 257v768h276v-297l516 515l195 -195l-516 -515h297v-276h-768z" />
    <glyph glyph-name="partialdiff" unicode="&#x2202;" horiz-adv-x="1166" 
d="M584 -26q-139 0 -253.5 68t-182.5 182t-68 252q0 104 39 195.5t108.5 161t161 108.5t195.5 39q31 0 60.5 -7.5t53.5 -22.5q-20 49 -46.5 102.5t-66 100.5t-98.5 76t-145 29l-2 276q171 0 308.5 -83.5t235.5 -227t150 -327t52 -383.5q0 -157 -65 -279t-178.5 -191
t-258.5 -69zM584 250q62 0 113.5 31t82 82.5t30.5 112.5q0 63 -30.5 114.5t-82 82.5t-113.5 31q-63 0 -115 -31t-82.5 -83t-30.5 -114q0 -61 30.5 -112.5t82.5 -82.5t115 -31z" />
    <glyph glyph-name="emptyset" unicode="&#x2205;" horiz-adv-x="1160" 
d="M372 -81l-192 111l53 92q-70 72 -111.5 169.5t-41.5 208.5q0 110 39 205.5t107.5 168t159.5 113.5t194 41q42 0 82.5 -7t75.5 -21l50 84l192 -111l-53 -93q71 -72 112 -169.5t41 -210.5q0 -109 -39 -204t-107.5 -167.5t-159 -113.5t-194.5 -41q-42 0 -82.5 7t-77.5 21z
M369 354l246 427q-56 5 -106.5 -17t-90 -63.5t-62 -97.5t-22.5 -119q0 -37 9.5 -69.5t25.5 -60.5zM545 221q58 -4 109 17t89.5 62.5t60.5 97t22 118.5q0 38 -9.5 71t-25.5 61z" />
    <glyph glyph-name="product" unicode="&#x220f;" horiz-adv-x="1280" 
d="M80 1400h1120v-276h-1120v276zM202 1211h276v-1211h-276v1211zM802 1211h276v-1211h-276v1211z" />
    <glyph glyph-name="summation" unicode="&#x2211;" horiz-adv-x="913" 
d="M80 0v276l216 422l-216 422v276h773v-276h-462l214 -422l-214 -422h462v-276h-773z" />
    <glyph glyph-name="minus" unicode="&#x2212;" horiz-adv-x="1160" 
d="M80 462v276h1000v-276h-1000z" />
    <glyph glyph-name="radical" unicode="&#x221a;" horiz-adv-x="1364" 
d="M911 1400h373v-276h-180l-411 -1124h-355l-258 708h293l143 -389z" />
    <glyph glyph-name="infinity" unicode="&#x221e;" horiz-adv-x="1537" 
d="M454 239q-117 10 -200.5 62t-128.5 133.5t-45 181.5q0 105 47 190.5t131.5 135.5t195.5 50q64 0 119 -18.5t103 -55.5t92 -91q47 55 96 91.5t103 55t115 18.5q119 0 203 -52.5t128 -138t44 -185.5q0 -107 -47 -192t-130.5 -134.5t-194.5 -50.5q-65 0 -119.5 18.5
t-102.5 55t-95 89.5q-46 -55 -95 -93t-103 -56t-116 -14zM451 490q33 0 65 22t58 51.5t43 52.5q-19 25 -45.5 55t-57.5 50.5t-63 18.5q-59 -2 -90.5 -41t-31.5 -83q0 -53 33.5 -89t88.5 -37zM1088 490q59 3 90 41t31 85q0 49 -31 87t-82 39q-36 0 -67.5 -19t-58 -48
t-48.5 -59q14 -20 32.5 -42t40.5 -41.5t45.5 -31.5t47.5 -11z" />
    <glyph glyph-name="integral" unicode="&#x222b;" horiz-adv-x="1134" 
d="M382 -26q-89 0 -159 40t-109 111t-34 162l172 -13q5 -34 11.5 -57.5t39.5 -24.5q33 0 55 17.5t26 48.5l95 949q9 62 52.5 111.5t106 78.5t127.5 29q85 0 153 -45t105 -117t30 -153l-155 15q-6 49 -31 66t-57 12q-23 -2 -41 -19.5t-22 -49.5l-94 -944
q-27 -116 -104 -166.5t-167 -50.5z" />
    <glyph glyph-name="approxequal" unicode="&#x2248;" horiz-adv-x="1330" 
d="M941 668q-66 0 -142 24.5t-152 56.5t-144.5 56.5t-120.5 24.5q-28 0 -43.5 -14.5t-21 -37t-4.5 -47.5l-270 6q-13 91 26.5 171t114.5 130t169 50q66 0 133.5 -25.5t134.5 -59t128.5 -59t114.5 -25.5q28 0 44.5 13.5t23 37t4.5 51.5l270 -6q14 -92 -14.5 -171
t-92.5 -127.5t-158 -48.5zM941 120q-66 0 -142 24.5t-152 56.5t-144.5 56.5t-120.5 24.5q-28 0 -43.5 -14.5t-21 -37t-4.5 -47.5l-270 6q-13 91 26.5 171t114.5 130t169 50q66 0 133.5 -25.5t134.5 -59t128.5 -59t114.5 -25.5q28 0 44.5 13.5t23 37t4.5 51.5l270 -6
q14 -92 -14.5 -171t-92.5 -127.5t-158 -48.5z" />
    <glyph glyph-name="notequal" unicode="&#x2260;" horiz-adv-x="1160" 
d="M893 1182l-66 -225h253v-276h-334l-47 -162h381v-276h-462l-66 -225h-287l66 225h-251v276h332l47 162h-379v276h460l66 225h287z" />
    <glyph glyph-name="lessequal" unicode="&#x2264;" horiz-adv-x="1160" 
d="M1080 330l-1000 284v461l1000 286v-287l-802 -228l802 -229v-287zM80 0v276h1000v-276h-1000z" />
    <glyph glyph-name="greaterequal" unicode="&#x2265;" horiz-adv-x="1160" 
d="M80 352v287l802 217l-802 218v287l1000 -275v-461zM80 0v276h1000v-276h-1000z" />
    <glyph glyph-name="lozenge" unicode="&#x25ca;" horiz-adv-x="1150" 
d="M328 0l-268 702l266 698h498l266 -698l-268 -702h-494zM575 134l226 568l-226 568l-224 -568z" />
    <glyph glyph-name="uniFFFD" unicode="&#xfffd;" horiz-adv-x="1630" 
d="M816 -26q-54 0 -106 20t-94 62l-414 414q-42 42 -62 94t-20 106t21 106t61 92l414 414q42 42 94 62t106 20t105 -20t93 -62l414 -414q42 -42 62 -93t20 -105t-20 -106t-62 -94l-414 -414q-40 -40 -92 -61t-106 -21zM820 242q40 0 66.5 27.5t26.5 67.5q0 38 -26.5 64.5
t-66.5 26.5q-39 0 -66 -26.5t-27 -64.5q0 -40 27 -67.5t66 -27.5zM722 513h186v2q0 29 26 44q61 35 97.5 96t36.5 134q0 72 -35 131t-94.5 94.5t-131.5 35.5t-131.5 -35.5t-94.5 -94.5t-35 -131h186q0 32 22 53.5t53 21.5q32 0 53.5 -21.5t21.5 -53.5q0 -21 -9.5 -39.5
t-26.5 -27.5q-59 -29 -91.5 -85t-32.5 -122v-2z" />
    </font>
</defs>
</svg>
